<svg width="214" height="245" viewBox="0 0 214 245" fill="none" xmlns="http://www.w3.org/2000/svg">
<g id="bell-solid 1" clip-path="url(#clip0_1_2)">
<path id="bell-body" d="M107 0C98.5453 0 91.7145 6.84277 91.7145 15.3125V24.5C56.8439 31.582 30.5716 62.4941 30.5716 99.5312V108.527C30.5716 131.018 22.3078 152.742 7.40419 169.586L3.86937 173.558C-0.143132 178.056 -1.09849 184.516 1.33767 190.019C3.77383 195.521 9.26714 199.062 15.2859 199.062H198.714C204.733 199.062 210.179 195.521 212.663 190.019C215.147 184.516 214.143 178.056 210.131 173.558L206.596 169.586C191.693 152.742 183.429 131.065 183.429 108.527V99.5312C183.429 62.4941 157.156 31.582 122.286 24.5V15.3125C122.286 6.84277 115.455 0 107 0ZM128.639 236.052C134.371 230.31 137.572 222.51 137.572 214.375H107H76.4287C76.4287 222.51 79.6292 230.31 85.3613 236.052C91.0935 241.794 98.8796 245 107 245C115.121 245 122.907 241.794 128.639 236.052Z" fill="black"/>
<ellipse id="notif-dot" cx="174" cy="46" rx="21" ry="22" fill="#FF1414"/>
</g>
<defs>
<clipPath id="clip0_1_2">
<rect width="214" height="245" fill="white"/>
</clipPath>
</defs>
</svg>
