<svg xmlns="http://www.w3.org/2000/svg" version="1.1" xmlns:xlink="http://www.w3.org/1999/xlink" xmlns:svgjs="http://svgjs.com/svgjs" width="512" height="512" x="0" y="0" viewBox="0 0 60 60" style="enable-background:new 0 0 512 512" xml:space="preserve" class=""><g><path xmlns="http://www.w3.org/2000/svg" d="m35.472 53.5a.5.5 0 0 1 -.25-.933l23.498-13.567a.5.5 0 0 1 .519.854l-3.129 2.006 2.61-1.506a.5.5 0 0 1 .536.843l-7.931 5.535 7.395-4.268a.5.5 0 0 1 .528.848l-2.7 1.814 2.172-1.256a.5.5 0 0 1 .528.848l-.484.325a.5.5 0 0 1 .5.86l-2.4 1.734 1.859-1.073a.5.5 0 0 1 .584.8l-3.1 2.78 2.513-1.444a.5.5 0 0 1 .611.779l-1.254 1.308.643-.37a.5.5 0 0 1 .5.865l-3.678 2.124a.5.5 0 0 1 -.611-.778l1.254-1.31-3.623 2.092a.5.5 0 0 1 -.584-.8l3.095-2.78-6.218 3.59a.5.5 0 0 1 -.543-.838l2.4-1.735-4.464 2.577a.5.5 0 0 1 -.528-.848l.458-.306-2 1.156a.5.5 0 0 1 -.529-.848l2.7-1.814-4.619 2.666a.5.5 0 0 1 -.536-.843l7.931-5.536-11.052 6.378a.5.5 0 0 1 -.519-.854l3.132-2.009-4.964 2.866a.494.494 0 0 1 -.25.068z" fill="#36728a" data-original="#36728a" class=""></path><path xmlns="http://www.w3.org/2000/svg" d="m30.056 56.47a.5.5 0 0 1 -.271-.92l11.721-7.55-14.525 8.381a.5.5 0 0 1 -.519-.854l13.83-8.852-14.834 8.564a.5.5 0 0 1 -.513-.858l5.2-3.209-4.874 2.813a.5.5 0 0 1 -.515-.856l9.082-5.665-10.291 5.936a.5.5 0 0 1 -.515-.856l10.635-6.631-12.967 7.487a.5.5 0 0 1 -.51-.86l.1-.06-1.594.92a.5.5 0 0 1 -.513-.857l13.294-8.239-15.759 9.096a.5.5 0 0 1 -.509-.86l.446-.27-1.955 1.13a.5.5 0 0 1 -.514-.856l20.585-12.839-23.724 13.695a.5.5 0 0 1 -.514-.857l22.524-13.98-25.7 14.837a.5.5 0 0 1 -.509-.86l13.868-8.417-16.07 9.277a.5.5 0 0 1 -.509-.86l17.522-10.64-18.846 10.874a.5.5 0 0 1 -.507-.86l12.6-7.6-12.613 7.286a.5.5 0 0 1 -.509-.861l17.028-10.315-16.532 9.544a.5.5 0 0 1 -.509-.861l14.336-8.656-13.827 7.983a.5.5 0 0 1 -.511-.859l27.671-17.032-27.16 15.681a.5.5 0 0 1 -.509-.861l16.03-9.7-15.521 8.961a.5.5 0 0 1 -.509-.859l20.223-12.329-19.714 11.381a.5.5 0 0 1 -.513-.857l25.117-15.572-24.6 14.2a.5.5 0 0 1 -.512-.859l18.981-11.689-18.473 10.665a.5.5 0 0 1 -.512-.858l15.985-9.847-15.473 8.933a.5.5 0 0 1 -.515-.857l19.221-12.064-18.706 10.8a.5.5 0 0 1 -.514-.858l13.663-8.508-13.149 7.591a.5.5 0 0 1 -.511-.858l4.624-2.836-4.113 2.374a.5.5 0 0 1 -.519-.854l14.925-9.563-14.406 8.32a.5.5 0 0 1 -.519-.854l11.544-7.391-11.025 6.366a.5.5 0 0 1 -.519-.855l8.2-5.234-7.681 4.433a.5.5 0 0 1 -.526-.85l10.069-6.674-9.543 5.51a.5.5 0 0 1 -.521-.853l4.3-2.78-3.779 2.183a.5.5 0 0 1 -.533-.846l7.234-4.975-6.7 3.869a.5.5 0 0 1 -.543-.838l6.228-4.506-5.686 3.282a.5.5 0 0 1 -.54-.84l2.931-2.09-2.391 1.38a.5.5 0 0 1 -.537-.842l.4-.282a.5.5 0 0 1 -.454-.854l2.568-2.371-1.977 1.143a.5.5 0 0 1 -.68-.682l1.018-1.776-.05.028a.5.5 0 0 1 -.5-.866l1.654-.955a.5.5 0 0 1 .683.682l-1.018 1.775 4.26-2.457a.5.5 0 0 1 .589.8l-2.567 2.368 5.491-3.168a.5.5 0 0 1 .537.842l-.207.145 1.71-.987a.5.5 0 0 1 .54.84l-2.93 2.088 5.076-2.928a.5.5 0 0 1 .543.838l-6.229 4.502 9.257-5.34a.5.5 0 0 1 .533.845l-7.236 4.976 10.084-5.821a.5.5 0 0 1 .521.853l-4.3 2.775 6.29-3.628a.5.5 0 0 1 .526.85l-10.075 6.673 13.038-7.523a.5.5 0 0 1 .519.854l-8.2 5.236 10.549-6.09a.5.5 0 0 1 .52.854l-11.542 7.385 14.276-8.239a.5.5 0 0 1 .519.854l-14.927 9.559 18.042-10.413a.5.5 0 0 1 .511.859l-4.626 2.837 6.4-3.7a.5.5 0 0 1 .515.857l-13.655 8.5 16.214-9.353a.5.5 0 0 1 .516.856l-19.223 12.063 22.381-12.919a.5.5 0 0 1 .513.859l-15.99 9.846 18.55-10.705a.5.5 0 0 1 .513.859l-18.991 11.7 21.744-12.559a.5.5 0 0 1 .513.858l-25.118 15.57 28.451-16.428a.5.5 0 0 1 .51.86l-20.215 12.325 21.293-12.291a.5.5 0 0 1 .508.86l-16.021 9.7 15.833-9.148a.5.5 0 0 1 .511.859l-27.678 17.035 27.167-15.684a.5.5 0 0 1 .509.862l-14.35 8.664 13.841-7.991a.5.5 0 0 1 .509.861l-17.015 10.3 16.506-9.526a.5.5 0 0 1 .508.861l-12.622 7.612 12.114-6.993a.5.5 0 0 1 .509.86l-17.518 10.645 17.009-9.819a.5.5 0 0 1 .509.86l-13.862 8.414 13.353-7.709a.5.5 0 0 1 .513.858l-22.52 13.978 22.007-12.707a.5.5 0 0 1 .514.858l-20.592 12.843 20.078-11.593a.5.5 0 0 1 .509.861l-.483.292a.5.5 0 0 1 .487.872l-13.291 8.237 12.778-7.377a.5.5 0 0 1 .509.86l-.426.259a.5.5 0 0 1 .431.895l-10.634 6.629 10.12-5.841a.5.5 0 0 1 .514.857l-9.07 5.658 8.556-4.939a.5.5 0 0 1 .512.858l-5.192 3.207 4.68-2.7a.5.5 0 0 1 .519.853l-13.833 8.854 13.314-7.689a.5.5 0 0 1 .52.853l-23.773 15.324a.5.5 0 0 1 -.143.408l-.372.373a.5.5 0 0 1 .233.933l-2.792 1.609a.5.5 0 0 1 -.605-.785l.165-.165-1.647.95a.5.5 0 0 1 -.25.07z" fill="#36728a" data-original="#36728a" class=""></path><path xmlns="http://www.w3.org/2000/svg" d="m13.107 49.47a.5.5 0 0 1 -.312-.891l1.012-.808-2.828 1.629a.5.5 0 0 1 -.6-.793l2.173-2.086-4.985 2.879a.5.5 0 0 1 -.567-.817l1.292-1.059-2.36 1.363a.5.5 0 0 1 -.623-.765l1.876-2.108-1.9 1.1a.5.5 0 0 1 -.706-.638l.621-1.383a.5.5 0 0 1 -.668-.49l.068-1.703a.454.454 0 0 1 .185-.584l.073-.042a.5.5 0 0 1 .75.454l-.04 1.007.474-.273a.5.5 0 0 1 .706.639l-.619 1.369 3.241-1.87a.5.5 0 0 1 .623.764l-1.876 2.107 4.977-2.871a.5.5 0 0 1 .567.819l-1.295 1.061 3.258-1.88a.5.5 0 0 1 .6.793l-2.173 2.086 4.985-2.879a.5.5 0 0 1 .563.823l-1.012.808 2.827-1.631a.5.5 0 0 1 .594.8l-2.139 2.03 4.893-2.83a.5.5 0 0 1 .605.784l-2.267 2.29 4.15-2.4a.5.5 0 0 1 .6.79l-1.515 1.48 2.153-1.244a.5.5 0 0 1 .655.726l-.966 1.328 1.166-.672a.505.505 0 0 1 .511.005.5.5 0 0 1 .238.453l-.053 1.06a.5.5 0 0 1 .18.928l-.469.27a.5.5 0 0 1 -.75-.454l.047-.933-2.411 1.389a.5.5 0 0 1 -.655-.726l.967-1.329-3.561 2.055a.5.5 0 0 1 -.6-.79l1.513-1.476-3.929 2.266a.5.5 0 0 1 -.605-.784l2.268-2.291-5.327 3.075a.5.5 0 0 1 -.594-.8l2.141-2.031-4.9 2.826a.493.493 0 0 1 -.247.075z" fill="#b7b7b7" data-original="#b7b7b7" class=""></path><path xmlns="http://www.w3.org/2000/svg" d="m54.85 43.32a.5.5 0 0 1 -.25-.932l.12-.07a.5.5 0 0 1 .5.866l-.12.069a.494.494 0 0 1 -.25.067z" fill="#b7b7b7" data-original="#b7b7b7" class=""></path><path xmlns="http://www.w3.org/2000/svg" d="m30.7 49.5a.5.5 0 0 1 -.321-.884l1.531-1.282-1.465.846a.5.5 0 0 1 -.594-.795l1.289-1.226a.491.491 0 0 1 -.267-.222.5.5 0 0 1 .183-.682l2.683-1.55a.5.5 0 0 1 .595.795l-.751.714 2.8-1.617a.5.5 0 0 1 .571.816l-1.528 1.287 3.634-2.1a.5.5 0 0 1 .583.8l-1.933 1.725 4.379-2.525a.5.5 0 0 1 .615.774l-2.343 2.5 5.671-3.274a.5.5 0 0 1 .554.829l-.389.3 1.954-1.129a.5.5 0 0 1 .553.83l-.243.185 1.76-1.015a.5.5 0 0 1 .6.787l-2.256 2.244 6.153-3.552a.5.5 0 0 1 .557.827l-1.333 1.039.776-.447a.5.5 0 0 1 .574.814l-.586.5.012-.007a.5.5 0 0 1 .612.777l-.411.433a.5.5 0 0 1 .225.931l-2.525 1.454a.5.5 0 0 1 -.612-.777l.217-.228-1.747 1.008a.5.5 0 0 1 -.575-.813l.585-.5-2.278 1.315a.5.5 0 0 1 -.558-.827l1.332-1.038-3.238 1.869a.5.5 0 0 1 -.6-.787l2.255-2.241-5.261 3.037a.5.5 0 0 1 -.553-.83l.243-.186-1.765 1.019a.5.5 0 0 1 -.553-.829l.388-.3-1.959 1.131a.5.5 0 0 1 -.615-.775l2.342-2.5-5.68 3.28a.5.5 0 0 1 -.583-.806l1.933-1.722-4.388 2.533a.5.5 0 0 1 -.249.067z" fill="#b7b7b7" data-original="#b7b7b7" class=""></path><path xmlns="http://www.w3.org/2000/svg" d="m33.968 44.582a.5.5 0 0 1 -.25-.933l21-12.126a.5.5 0 0 1 .527.849l-5.245 3.506 4.723-2.726a.5.5 0 0 1 .531.846l-4.01 2.726 3.479-2.008a.5.5 0 0 1 .535.844l-2.8 1.943 2.268-1.309a.5.5 0 0 1 .545.836l-2.592 1.9 2.047-1.182a.5.5 0 0 1 .556.827l-1.682 1.308 1.126-.651a.5.5 0 0 1 .608.782l-1.674 1.721 1.066-.615a.5.5 0 0 1 .639.746l-.536.666a.492.492 0 0 1 .292.23.5.5 0 0 1 -.182.682l-1.659.957a.5.5 0 0 1 -.639-.746l.266-.331-1.875 1.076a.5.5 0 0 1 -.608-.781l1.676-1.719-4.336 2.5a.5.5 0 0 1 -.557-.827l1.684-1.307-3.7 2.134a.5.5 0 0 1 -.545-.836l2.595-1.9-4.741 2.736a.5.5 0 0 1 -.535-.843l2.8-1.941-4.824 2.784a.5.5 0 0 1 -.531-.845l4.014-2.729-6.192 3.574a.5.5 0 0 1 -.527-.848l5.244-3.5-7.731 4.464a.494.494 0 0 1 -.25.066z" fill="#d8d8d8" data-original="#d8d8d8" class=""></path><path xmlns="http://www.w3.org/2000/svg" d="m30.207 8.206a.5.5 0 0 1 -.343-.864l1.259-1.188a.5.5 0 0 1 -.068-.9l2.683-1.549a.5.5 0 0 1 .593.8l-.667.629 2.659-1.534a.5.5 0 0 1 .5.866l-6.366 3.673a.5.5 0 0 1 -.25.067z" fill="#d8d8d8" data-original="#d8d8d8" class=""></path><path xmlns="http://www.w3.org/2000/svg" d="m29.961 48.715a.5.5 0 0 1 -.464-.687l.194-.482a.508.508 0 0 1 -.49-.236.5.5 0 0 1 .158-.681l6.535-4.174-6.694 3.865a.5.5 0 0 1 -.527-.848l13.006-8.661-14.127 8.154a.5.5 0 0 1 -.522-.853l11.214-7.26-13.079 7.548a.5.5 0 0 1 -.519-.853l11.44-7.315-14.149 8.168a.5.5 0 0 1 -.512-.858l4.047-2.5-5.811 3.358a.5.5 0 0 1 -.511-.859l.178-.108-1.677.967a.5.5 0 0 1 -.518-.854l17.929-11.4-21.235 12.254a.5.5 0 0 1 -.51-.859l5.183-3.157-6.959 4.016a.5.5 0 0 1 -.512-.858l13.656-8.409-16.053 9.267a.5.5 0 0 1 -.511-.859l12-7.33-13.787 7.963a.5.5 0 0 1 -.51-.861l10.328-6.271-10.701 6.178a.5.5 0 0 1 -.511-.86l15.837-9.682-15.497 8.947a.5.5 0 0 1 -.51-.859l14.817-9.042-14.307 8.259a.5.5 0 0 1 -.512-.858l21.556-13.325-21.044 12.152a.5.5 0 0 1 -.511-.858l18.5-11.363-17.989 10.387a.5.5 0 0 1 -.514-.857l24.416-15.218-23.9 13.8a.5.5 0 0 1 -.509-.861l6.209-3.754-5.7 3.291a.5.5 0 0 1 -.513-.858l17.91-11.1-17.399 10.047a.5.5 0 0 1 -.516-.856l19.564-12.324-19.048 11a.5.5 0 0 1 -.51-.86l6.064-3.713-5.554 3.204a.5.5 0 0 1 -.514-.857l11.787-7.364-11.273 6.508a.5.5 0 0 1 -.52-.854l7.178-4.611-6.658 3.845a.5.5 0 0 1 -.519-.854l6.573-4.214-6.054 3.495a.5.5 0 0 1 -.515-.857l1-.629-.488.282a.5.5 0 0 1 -.527-.849l10.15-6.763-9.62 5.554a.5.5 0 0 1 -.531-.847l9.951-6.784-9.42 5.44a.5.5 0 0 1 -.525-.851l4.486-2.957-3.961 2.285a.5.5 0 0 1 -.527-.848l3.323-2.222-2.8 1.615a.5.5 0 0 1 -.553-.83l5.96-4.554-5.403 3.121a.5.5 0 0 1 -.571-.816l3.953-3.313-3.382 1.953a.5.5 0 0 1 -.565-.821l1.072-.874-.507.293a.5.5 0 0 1 -.68-.681l1.029-1.813-.062.035a.5.5 0 0 1 -.5-.866l1.659-.956a.5.5 0 0 1 .684.681l-1.032 1.812 4.322-2.493a.5.5 0 0 1 .566.82l-1.075.875 2.937-1.695a.5.5 0 0 1 .571.816l-3.953 3.311 7.154-4.127a.5.5 0 0 1 .554.83l-5.962 4.55 9.325-5.38a.5.5 0 0 1 .528.848l-3.325 2.219 5.318-3.067a.5.5 0 0 1 .525.85l-4.484 2.95 6.4-3.695a.5.5 0 0 1 .532.846l-9.954 6.786 11.508-6.637a.5.5 0 0 1 .528.849l-10.145 6.758 10.794-6.232a.5.5 0 0 1 .516.857l-1.013.635.927-.536a.5.5 0 0 1 .519.854l-6.569 4.215 6.292-3.633a.5.5 0 0 1 .52.854l-7.174 4.605 17.89-10.326a.5.5 0 0 1 .515.857l-11.794 7.365 14.246-8.222a.5.5 0 0 1 .511.859l-6.063 3.709 7.918-4.568a.5.5 0 0 1 .517.856l-19.566 12.322 22.831-13.178a.5.5 0 0 1 .514.858l-17.921 11.1 20.593-11.89a.5.5 0 0 1 .509.861l-6.2 3.751 6.758-3.9a.5.5 0 0 1 .515.858l-24.4 15.211 24.287-14.03a.5.5 0 0 1 .511.86l-18.51 11.367 18-10.392a.5.5 0 0 1 .512.858l-21.544 13.314 21.031-12.142a.5.5 0 0 1 .51.86l-14.83 9.048 14.32-8.266a.5.5 0 0 1 .51.86l-15.846 9.689 15.336-8.855a.5.5 0 0 1 .509.86l-10.329 6.273 9.821-5.669a.5.5 0 0 1 .51.86l-12.014 7.337 11.5-6.641a.5.5 0 0 1 .511.859l-13.645 8.401 13.137-7.581a.5.5 0 0 1 .509.86l-5.183 3.158 4.674-2.7a.5.5 0 0 1 .518.855l-17.93 11.408 17.412-10.053a.5.5 0 0 1 .51.86l-.432.263a.5.5 0 0 1 .434.9l-4.051 2.5 3.539-2.044a.5.5 0 0 1 .519.855l-11.439 7.308 10.92-6.3a.5.5 0 0 1 .521.853l-11.21 7.258 10.689-6.175a.5.5 0 0 1 .527.849l-13 8.66 12.476-7.2a.5.5 0 0 1 .519.854l-24.131 15.412-.567 1.4a.5.5 0 0 1 -.247.495l-.087.049a.5.5 0 0 1 -.249.071z" fill="#d8d8d8" data-original="#d8d8d8" class=""></path><g xmlns="http://www.w3.org/2000/svg" fill="#262626"><path d="m.275 19.55q0 11.2 0 22.41v7.9c-.271 1.754.491 3.515 2.484 3.428 7.2.134 14.416.025 21.619-.033a2.34 2.34 0 0 0 2.741 3.032c2.819-.284 8.637 1.365 8.6-3q10.167-.006 20.333 0c1.753-.006 3.616-.627 3.669-2.666.1-10.5-.054-21.009 0-31.513-.084-2.635.169-5.325-.1-7.932-.56-1.681-2.455-1.489-3.9-1.463-.084-3.106.9-6.37-3.485-6.028-5.636.045-11.279-.106-16.914 0a6.308 6.308 0 0 0 -5.232 2.789c-1.09-2.314-3.829-3.043-6.258-2.791h-10.356c-5.776.326-9.988-1.933-9.2 6.049-5.93-.28-3.544 5.961-4.001 9.818zm52.53 29.133h-22.036c.322-4.8 5.584-4.176 9.1-4.126 4.743-.279 9.79.607 14.407-.433-.187 1.491.703 4.398-1.471 4.559zm-17.718-44.366q7.752-.006 15.5 0c1.553 0 3.506-.3 3.684 1.877-.012 11.949.022 23.91-.012 35.854-.146 1.81-2.15 1.395-3.441 1.395-5.25.042-10.506-.094-15.755 0a6.046 6.046 0 0 0 -4.344 1.975v-31.659c-.042-3.609-.719-9.37 4.368-9.442zm-29.363 1.491c.133-1.579 1.036-1.491 2.167-1.491 5.577 0 11.213-.25 16.784 0a4.9 4.9 0 0 1 4.6 4.877v36.129c-1.641-1.947-4.482-1.861-6.866-1.778h-12.644c-1.555 0-3.864.45-4.041-1.739q.003-17.999 0-35.998zm-.015 38.35c6.044.772 12.343.066 18.461.3a4.773 4.773 0 0 1 5.041 4.227h-19.646c-3.82.393-4.085-1.053-3.856-4.527zm-3.985-32.249c.008-1.615 1.12-1.9 2.552-1.639v35.551c0 1.744.174 3.439 2.462 3.5 7.529.017 15.06-.011 22.59 0a.907.907 0 0 0 1.213 0h19.776c1.4 0 3.063.22 4.292-.58 1.991-1.549.836-4.545 1.116-6.725q0-15.849 0-31.729a2.2 2.2 0 0 1 2.551 2.635q0 11.305 0 22.612v14.334c0 1.01.186 2.633-1.1 2.847-7.216.03-14.476-.02-21.707 0-.247 0-1.2.117-1.2.479.372 3.193-2.086 2.564-4.3 2.521-2.456.173-4.524.166-4.25-2.909-4.485-.261-9.18 0-13.733-.091-2.951-.074-5.943.151-8.873-.09a1.974 1.974 0 0 1 -1.4-2.142c-.189-12.852.071-25.722.011-38.574z" fill="#262626" data-original="#262626" class=""></path><path d="m8.73 11.453h16c.294 0 .825-.09.951-.413.117-.3-.1-.493-.411-.493h-14.017c-.927.141-2.258-.373-2.934.413-.119.298.1.493.411.493z" fill="#262626" data-original="#262626" class=""></path><path d="m8.938 17.539h16c.833 0 1.107-1.078.124-1.078h-16c-.833 0-1.107 1.078-.124 1.078z" fill="#262626" data-original="#262626" class=""></path><path d="m25.475 22.725c-5.631.238-11.507-.474-17.024.274-.176.15-.25.276.074.276h14.017c.982-.089 2.126.24 3.007-.274.176-.15.251-.276-.074-.276z" fill="#262626" data-original="#262626" class=""></path><path d="m22.713 29.327h1.987c.438 0 1.57-.654.608-.654h-16.008c-.438 0-1.57.654-.608.654z" fill="#262626" data-original="#262626" class=""></path><path d="m11.279 34.643h-1.979c-.476 0-1.56.714-.592.714h16c.476 0 1.56-.714.592-.714z" fill="#262626" data-original="#262626" class=""></path><path d="m50.705 11.363c.251 0 .851-.1.962-.376s-.1-.35-.372-.35h-16c-.466-.1-1.643.613-.59.726z" fill="#262626" data-original="#262626" class=""></path><path d="m51.265 16.526h-14.018c-.925.145-2.269-.382-2.932.422-.113.3.1.526.42.526h16c.3 0 .823-.087.949-.422.116-.3-.1-.526-.419-.526z" fill="#262626" data-original="#262626" class=""></path><path d="m34.737 23.482h16c.306 0 .822-.087.949-.425.112-.3-.1-.539-.423-.539h-14.018c-.925.146-2.273-.385-2.931.425-.114.302.1.539.423.539z" fill="#262626" data-original="#262626" class=""></path><path d="m51.063 28.466h-16c-.83 0-1.11 1.068-.126 1.068h16c.83 0 1.11-1.068.126-1.068z" fill="#262626" data-original="#262626" class=""></path><path d="m51.067 34.479h-16c-.821 0-1.118 1.042-.134 1.042h16c.821 0 1.118-1.042.134-1.042z" fill="#262626" data-original="#262626" class=""></path></g></g></svg>