<svg xmlns="http://www.w3.org/2000/svg" version="1.1" xmlns:xlink="http://www.w3.org/1999/xlink" xmlns:svgjs="http://svgjs.com/svgjs" width="512" height="512" x="0" y="0" viewBox="0 0 345 345" style="enable-background:new 0 0 512 512" xml:space="preserve" class=""><g><g xmlns="http://www.w3.org/2000/svg" id="Layer_4" data-name="Layer 4"><path d="m180.23 18a12.19 12.19 0 0 1 12.19 12.19v36.58a0 0 0 0 1 0 0h-24.42a0 0 0 0 1 0 0v-36.58a12.19 12.19 0 0 1 12.23-12.19z" fill="#61b776" data-original="#61b776"></path><path d="m192.43 30.19v36.58h-4.16v-36.58a12.17 12.17 0 0 0 -10.11-12 11.48 11.48 0 0 1 2.08-.18 12.19 12.19 0 0 1 12.19 12.19z" fill="#4da769" data-original="#4da769"></path><rect fill="#ffcc33" height="268.86" rx="134.43" width="345" y="58.14" data-original="#ffcc33" class=""></rect><path d="m345 192.58a134.83 134.83 0 0 1 -134.43 134.42h-16.06a134.83 134.83 0 0 0 134.43-134.42c0-73.94-60.49-134.43-134.43-134.43h16.06c73.94-.01 134.43 60.49 134.43 134.43z" fill="#ffba31" data-original="#ffba31" class=""></path><ellipse cx="180.23" cy="192.58" fill="#ffa932" rx="107.07" ry="134.43" data-original="#ffa932" class=""></ellipse><ellipse cx="170.12" cy="192.58" fill="#ffba31" rx="107.07" ry="134.43" data-original="#ffba31" class=""></ellipse></g><g xmlns="http://www.w3.org/2000/svg" id="Emoticons"><path id="path13305-45-3-4" d="m138.39 121.52h84.13c35.44 0 41 22.35 41 41 0 24-8.92 52.43-51.14 52.43-32.8 0-51.44-25-58.2-53.11-2.25-9.34-5-37 5.59-40" fill="#2276bc" data-original="#2276bc" class=""></path><path d="m212.37 216.92c-29.43 0-51.91-20.43-60.14-54.64-1.26-5.26-4.89-29.2 2-38.77h-15.84a2 2 0 0 1 0-4h84.13c28.92 0 43 14.06 43 43-.02 24.82-9.24 54.41-53.15 54.41zm-51.56-93.41a2 2 0 0 1 -.51.22c-8 2.25-7 26-4.19 37.62 7.76 32.3 28.8 51.58 56.26 51.58 40.62 0 49.14-27.43 49.14-50.43 0-16.74-4-39-39-39z" fill="#1a598d" data-original="#1a598d" class=""></path><path id="path13305-4-1-4-8" d="m146.61 121.52h-84.13c-35.44 0-41 22.35-41 41 0 24 8.92 52.43 51.14 52.43 32.8 0 51.44-25 58.2-53.11 2.25-9.34 5-37-5.59-40" fill="#2276bc" data-original="#2276bc" class=""></path><path d="m72.63 216.92c-43.91 0-53.13-29.6-53.13-54.42 0-28.92 14.06-43 43-43h84.13a2 2 0 0 1 0 4h-15.88c6.91 9.57 3.28 33.51 2 38.77-8.21 34.23-30.69 54.65-60.12 54.65zm-10.16-93.41c-34.95 0-39 22.25-39 39 0 23 8.53 50.43 49.14 50.43 27.46 0 48.5-19.28 56.26-51.58 2.79-11.59 3.83-35.37-4.19-37.62a2 2 0 0 1 -.51-.22z" fill="#1a598d" data-original="#1a598d" class=""></path><path d="m151.8 151.28h-19.25a2 2 0 0 1 0-4h19.25a2 2 0 1 1 0 4z" fill="#1a598d" data-original="#1a598d" class=""></path><path d="m32.76 153.38a5 5 0 0 1 -1-.1 5 5 0 0 1 -3.9-5.87c2.27-11.31 11.6-19.28 24.34-20.79a5 5 0 0 1 1.18 9.9c-8.57 1-14.3 5.7-15.74 12.85a5 5 0 0 1 -4.88 4.01z" fill="#ffffff" data-original="#ffffff"></path><path d="m186.13 136.56h-21.75a5 5 0 1 1 0-10h21.74a5 5 0 1 1 0 10z" fill="#ffffff" data-original="#ffffff"></path><path d="m232.92 111.45a5 5 0 0 1 -3.51-1.44c-7-6.92-18.46-10.13-27.88-7.79a5 5 0 0 1 -2.4-9.68c12.82-3.18 27.81 1 37.3 10.38a5 5 0 0 1 -3.51 8.53z" fill="#000000" data-original="#000000"></path><path d="m52.08 111.45a5 5 0 0 1 -3.51-8.53c9.49-9.39 24.48-13.56 37.3-10.38a5 5 0 0 1 -2.4 9.68c-9.42-2.34-20.89.87-27.88 7.79a5 5 0 0 1 -3.51 1.44z" fill="#000000" data-original="#000000"></path><path d="m142.5 253.52c-12.4 0-24.8-2.42-33.17-7.25a5 5 0 0 1 5-8.63c13.7 7.91 42.68 7.91 56.37 0a5 5 0 0 1 5 8.63c-8.4 4.83-20.8 7.25-33.2 7.25z" fill="#000000" data-original="#000000"></path></g></g></svg>