<svg width="335" height="117" viewBox="0 0 335 117" fill="none" xmlns="http://www.w3.org/2000/svg">
<g id="Frame 1">
<rect width="335" height="117" fill="white"/>
<g id="bar">
<rect id="Rectangle 3" x="225.681" y="24" width="86.3185" height="10.7616" rx="4" fill="#FF1A11"/>
<rect id="Rectangle 2" x="97.5287" y="24" width="134.873" height="10.7616" rx="4" fill="#FF8900"/>
<path id="Rectangle 1" d="M22 28C22 25.7909 23.7909 24 26 24H101.621C103.83 24 105.621 25.7909 105.621 28V30.7616C105.621 32.9707 103.83 34.7616 101.621 34.7616H26C23.7909 34.7616 22 32.9707 22 30.7616V28Z" fill="#117FFF"/>
</g>
<g id="Group 1">
<circle id="Ellipse 3" cx="27.5" cy="82.5" r="5.5" fill="#117FFF"/>
<path id="Readers" d="M39.233 87V76.8182H42.6733C43.4688 76.8182 44.1217 76.9541 44.6321 77.2259C45.1425 77.4943 45.5204 77.8639 45.7656 78.3345C46.0109 78.8052 46.1335 79.3404 46.1335 79.9403C46.1335 80.5402 46.0109 81.0722 45.7656 81.5362C45.5204 82.0002 45.1442 82.3648 44.6371 82.63C44.13 82.8918 43.482 83.0227 42.6932 83.0227H39.9091V81.9091H42.6534C43.197 81.9091 43.6345 81.8295 43.9659 81.6705C44.3007 81.5114 44.5426 81.286 44.6918 80.9943C44.8442 80.6993 44.9205 80.348 44.9205 79.9403C44.9205 79.5327 44.8442 79.1764 44.6918 78.8714C44.5393 78.5665 44.2957 78.3312 43.9609 78.1655C43.6262 77.9964 43.1837 77.9119 42.6335 77.9119H40.4659V87H39.233ZM44.0256 82.4261L46.5312 87H45.0994L42.6335 82.4261H44.0256ZM51.1486 87.1591C50.4128 87.1591 49.7781 86.9967 49.2445 86.6719C48.7142 86.3438 48.3049 85.8864 48.0165 85.2997C47.7315 84.7098 47.589 84.0237 47.589 83.2415C47.589 82.4593 47.7315 81.7699 48.0165 81.1733C48.3049 80.5734 48.7059 80.1061 49.2196 79.7713C49.7367 79.4332 50.3399 79.2642 51.0293 79.2642C51.427 79.2642 51.8198 79.3305 52.2076 79.4631C52.5953 79.5956 52.9483 79.8111 53.2665 80.1094C53.5847 80.4044 53.8382 80.7955 54.0272 81.2827C54.2161 81.7699 54.3105 82.3698 54.3105 83.0824V83.5795H48.4242V82.5653H53.1174C53.1174 82.1345 53.0312 81.75 52.8588 81.4119C52.6898 81.0739 52.4479 80.8071 52.133 80.6115C51.8214 80.416 51.4535 80.3182 51.0293 80.3182C50.562 80.3182 50.1576 80.4342 49.8162 80.6662C49.4782 80.8949 49.218 81.1932 49.0357 81.5611C48.8534 81.929 48.7623 82.3234 48.7623 82.7443V83.4205C48.7623 83.9972 48.8617 84.486 49.0605 84.8871C49.2627 85.2848 49.5428 85.5881 49.9007 85.7969C50.2587 86.0024 50.6747 86.1051 51.1486 86.1051C51.4569 86.1051 51.7353 86.062 51.9838 85.9759C52.2357 85.8864 52.4528 85.7538 52.6351 85.5781C52.8174 85.3991 52.9583 85.1771 53.0577 84.9119L54.1912 85.2301C54.0719 85.6146 53.8714 85.9527 53.5897 86.2443C53.3079 86.5327 52.9599 86.758 52.5456 86.9205C52.1313 87.0795 51.6657 87.1591 51.1486 87.1591ZM58.3425 87.179C57.8586 87.179 57.4194 87.0878 57.025 86.9055C56.6306 86.7199 56.3174 86.4531 56.0854 86.1051C55.8534 85.7538 55.7374 85.3295 55.7374 84.8324C55.7374 84.3949 55.8236 84.0402 55.9959 83.7685C56.1683 83.4934 56.3986 83.2779 56.687 83.1222C56.9753 82.9664 57.2935 82.8504 57.6415 82.7741C57.9928 82.6946 58.3458 82.6316 58.7005 82.5852C59.1645 82.5256 59.5407 82.4808 59.829 82.451C60.1207 82.4179 60.3328 82.3632 60.4654 82.2869C60.6013 82.2107 60.6692 82.0781 60.6692 81.8892V81.8494C60.6692 81.3589 60.535 80.9777 60.2665 80.706C60.0014 80.4342 59.5987 80.2983 59.0584 80.2983C58.4983 80.2983 58.0591 80.4209 57.7409 80.6662C57.4228 80.9115 57.199 81.1733 57.0698 81.4517L55.9561 81.054C56.155 80.59 56.4202 80.2287 56.7516 79.9702C57.0864 79.7083 57.4509 79.526 57.8453 79.4233C58.2431 79.3172 58.6342 79.2642 59.0186 79.2642C59.2639 79.2642 59.5456 79.294 59.8638 79.3537C60.1853 79.41 60.4952 79.5277 60.7935 79.7067C61.0951 79.8857 61.3453 80.1558 61.5442 80.517C61.7431 80.8783 61.8425 81.3622 61.8425 81.9688V87H60.6692V85.9659H60.6096C60.53 86.1316 60.3974 86.3089 60.2118 86.4979C60.0262 86.6868 59.7793 86.8475 59.4711 86.9801C59.1628 87.1127 58.7866 87.179 58.3425 87.179ZM58.5215 86.125C58.9855 86.125 59.3766 86.0339 59.6948 85.8516C60.0163 85.6693 60.2582 85.4339 60.4206 85.1456C60.5864 84.8572 60.6692 84.554 60.6692 84.2358V83.1619C60.6195 83.2216 60.5101 83.2763 60.3411 83.326C60.1754 83.3724 59.9831 83.4138 59.7644 83.4503C59.5489 83.4834 59.3385 83.5133 59.133 83.5398C58.9308 83.563 58.7667 83.5829 58.6408 83.5994C58.3359 83.6392 58.0508 83.7038 57.7857 83.7933C57.5239 83.8795 57.3117 84.0104 57.1493 84.1861C56.9902 84.3584 56.9107 84.5937 56.9107 84.892C56.9107 85.2997 57.0615 85.608 57.3631 85.8168C57.668 86.0223 58.0542 86.125 58.5215 86.125ZM66.8675 87.1591C66.2312 87.1591 65.6694 86.9983 65.1822 86.6768C64.695 86.352 64.3138 85.8946 64.0387 85.3047C63.7636 84.7114 63.6261 84.0104 63.6261 83.2017C63.6261 82.3996 63.7636 81.7036 64.0387 81.1136C64.3138 80.5237 64.6966 80.0679 65.1871 79.7464C65.6777 79.425 66.2444 79.2642 66.8874 79.2642C67.3846 79.2642 67.7773 79.3471 68.0657 79.5128C68.3574 79.6752 68.5794 79.8608 68.7319 80.0696C68.8877 80.2751 69.0086 80.4441 69.0948 80.5767H69.1942V76.8182H70.3675V87H69.234V85.8267H69.0948C69.0086 85.9659 68.886 86.1416 68.7269 86.3537C68.5678 86.5625 68.3408 86.7498 68.0458 86.9155C67.7508 87.0779 67.3581 87.1591 66.8675 87.1591ZM67.0266 86.1051C67.4973 86.1051 67.895 85.9825 68.2198 85.7372C68.5446 85.4886 68.7915 85.1456 68.9606 84.7081C69.1296 84.2673 69.2141 83.7585 69.2141 83.1818C69.2141 82.6117 69.1313 82.1129 68.9656 81.6854C68.7998 81.2545 68.5546 80.9197 68.2298 80.6811C67.9049 80.4392 67.5039 80.3182 67.0266 80.3182C66.5295 80.3182 66.1152 80.4458 65.7837 80.701C65.4556 80.9529 65.2087 81.2959 65.043 81.7301C64.8806 82.161 64.7994 82.6449 64.7994 83.1818C64.7994 83.7254 64.8822 84.2192 65.0479 84.6634C65.217 85.1042 65.4656 85.4555 65.7937 85.7173C66.1251 85.9759 66.5361 86.1051 67.0266 86.1051ZM75.881 87.1591C75.1452 87.1591 74.5105 86.9967 73.9769 86.6719C73.4466 86.3438 73.0373 85.8864 72.7489 85.2997C72.4639 84.7098 72.3214 84.0237 72.3214 83.2415C72.3214 82.4593 72.4639 81.7699 72.7489 81.1733C73.0373 80.5734 73.4383 80.1061 73.9521 79.7713C74.4691 79.4332 75.0723 79.2642 75.7617 79.2642C76.1594 79.2642 76.5522 79.3305 76.94 79.4631C77.3278 79.5956 77.6808 79.8111 77.9989 80.1094C78.3171 80.4044 78.5707 80.7955 78.7596 81.2827C78.9485 81.7699 79.043 82.3698 79.043 83.0824V83.5795H73.1566V82.5653H77.8498C77.8498 82.1345 77.7636 81.75 77.5913 81.4119C77.4222 81.0739 77.1803 80.8071 76.8654 80.6115C76.5539 80.416 76.186 80.3182 75.7617 80.3182C75.2944 80.3182 74.89 80.4342 74.5487 80.6662C74.2106 80.8949 73.9504 81.1932 73.7681 81.5611C73.5858 81.929 73.4947 82.3234 73.4947 82.7443V83.4205C73.4947 83.9972 73.5941 84.486 73.793 84.8871C73.9951 85.2848 74.2752 85.5881 74.6332 85.7969C74.9911 86.0024 75.4071 86.1051 75.881 86.1051C76.1893 86.1051 76.4677 86.062 76.7163 85.9759C76.9682 85.8864 77.1853 85.7538 77.3675 85.5781C77.5498 85.3991 77.6907 85.1771 77.7901 84.9119L78.9237 85.2301C78.8043 85.6146 78.6038 85.9527 78.3221 86.2443C78.0404 86.5327 77.6924 86.758 77.2781 86.9205C76.8638 87.0795 76.3981 87.1591 75.881 87.1591ZM80.8278 87V79.3636H81.9613V80.517H82.0408C82.18 80.1392 82.4319 79.8326 82.7965 79.5973C83.1611 79.362 83.5721 79.2443 84.0295 79.2443C84.1156 79.2443 84.2234 79.246 84.3526 79.2493C84.4819 79.2526 84.5797 79.2576 84.646 79.2642V80.4574C84.6062 80.4474 84.515 80.4325 84.3725 80.4126C84.2333 80.3894 84.0858 80.3778 83.93 80.3778C83.5588 80.3778 83.2274 80.4557 82.9357 80.6115C82.6474 80.764 82.4187 80.9761 82.2496 81.2479C82.0839 81.5163 82.0011 81.8229 82.0011 82.1676V87H80.8278ZM91.4458 81.0739L90.3919 81.3722C90.3256 81.1965 90.2278 81.0258 90.0985 80.8601C89.9726 80.6911 89.8002 80.5518 89.5815 80.4425C89.3627 80.3331 89.0827 80.2784 88.7413 80.2784C88.274 80.2784 87.8845 80.3861 87.573 80.6016C87.2647 80.8137 87.1106 81.0838 87.1106 81.4119C87.1106 81.7036 87.2167 81.9339 87.4288 82.103C87.6409 82.272 87.9724 82.4129 88.4231 82.5256L89.5566 82.804C90.2394 82.9697 90.7482 83.2232 91.0829 83.5646C91.4177 83.9027 91.585 84.3385 91.585 84.8722C91.585 85.3097 91.4591 85.7008 91.2072 86.0455C90.9586 86.3902 90.6106 86.6619 90.1632 86.8608C89.7157 87.0597 89.1954 87.1591 88.6021 87.1591C87.8232 87.1591 87.1786 86.9901 86.6681 86.652C86.1577 86.3139 85.8346 85.8201 85.6987 85.1705L86.8123 84.892C86.9184 85.303 87.1189 85.6113 87.4139 85.8168C87.7122 86.0223 88.1016 86.125 88.5822 86.125C89.1291 86.125 89.5633 86.009 89.8848 85.777C90.2096 85.5417 90.372 85.2599 90.372 84.9318C90.372 84.6667 90.2792 84.4446 90.0936 84.2656C89.908 84.0833 89.6229 83.9474 89.2385 83.858L87.9657 83.5597C87.2664 83.3939 86.7527 83.1371 86.4245 82.7891C86.0997 82.4377 85.9373 81.9986 85.9373 81.4716C85.9373 81.0407 86.0583 80.6596 86.3002 80.3281C86.5455 79.9967 86.8786 79.7365 87.2995 79.5476C87.7238 79.3587 88.2044 79.2642 88.7413 79.2642C89.497 79.2642 90.0903 79.4299 90.5211 79.7614C90.9553 80.0928 91.2636 80.5303 91.4458 81.0739Z" fill="#868686"/>
</g>
<g id="Group 2">
<circle id="Ellipse 3_2" cx="116.5" cy="82.5" r="5.5" fill="#FF8900"/>
<path id="Bookmarkers" d="M128.233 87V76.8182H131.793C132.502 76.8182 133.087 76.9408 133.548 77.1861C134.008 77.428 134.351 77.7545 134.577 78.1655C134.802 78.5732 134.915 79.0256 134.915 79.5227C134.915 79.9602 134.837 80.3215 134.681 80.6065C134.529 80.8916 134.326 81.117 134.075 81.2827C133.826 81.4484 133.556 81.571 133.264 81.6506V81.75C133.576 81.7699 133.889 81.8793 134.204 82.0781C134.519 82.277 134.782 82.562 134.994 82.9332C135.206 83.3045 135.312 83.7585 135.312 84.2955C135.312 84.8059 135.196 85.2649 134.964 85.6726C134.732 86.0803 134.366 86.4034 133.866 86.642C133.365 86.8807 132.714 87 131.912 87H128.233ZM129.466 85.9062H131.912C132.717 85.9062 133.289 85.7505 133.627 85.4389C133.969 85.1241 134.139 84.7429 134.139 84.2955C134.139 83.9508 134.051 83.6326 133.876 83.3409C133.7 83.0459 133.45 82.8106 133.125 82.6349C132.8 82.456 132.416 82.3665 131.972 82.3665H129.466V85.9062ZM129.466 81.2926H131.753C132.124 81.2926 132.459 81.2197 132.757 81.0739C133.059 80.928 133.297 80.7225 133.473 80.4574C133.652 80.1922 133.741 79.8807 133.741 79.5227C133.741 79.0753 133.586 78.6958 133.274 78.3842C132.963 78.0694 132.469 77.9119 131.793 77.9119H129.466V81.2926ZM140.282 87.1591C139.592 87.1591 138.987 86.995 138.467 86.6669C137.95 86.3388 137.546 85.8797 137.254 85.2898C136.966 84.6998 136.821 84.0104 136.821 83.2216C136.821 82.4261 136.966 81.7318 137.254 81.1385C137.546 80.5452 137.95 80.0845 138.467 79.7564C138.987 79.4283 139.592 79.2642 140.282 79.2642C140.971 79.2642 141.574 79.4283 142.091 79.7564C142.612 80.0845 143.016 80.5452 143.304 81.1385C143.596 81.7318 143.742 82.4261 143.742 83.2216C143.742 84.0104 143.596 84.6998 143.304 85.2898C143.016 85.8797 142.612 86.3388 142.091 86.6669C141.574 86.995 140.971 87.1591 140.282 87.1591ZM140.282 86.1051C140.805 86.1051 141.236 85.9709 141.574 85.7024C141.912 85.4339 142.163 85.081 142.325 84.6435C142.487 84.206 142.569 83.732 142.569 83.2216C142.569 82.7112 142.487 82.2356 142.325 81.7947C142.163 81.3539 141.912 80.9976 141.574 80.7259C141.236 80.4541 140.805 80.3182 140.282 80.3182C139.758 80.3182 139.327 80.4541 138.989 80.7259C138.651 80.9976 138.401 81.3539 138.238 81.7947C138.076 82.2356 137.995 82.7112 137.995 83.2216C137.995 83.732 138.076 84.206 138.238 84.6435C138.401 85.081 138.651 85.4339 138.989 85.7024C139.327 85.9709 139.758 86.1051 140.282 86.1051ZM148.635 87.1591C147.946 87.1591 147.341 86.995 146.82 86.6669C146.303 86.3388 145.899 85.8797 145.607 85.2898C145.319 84.6998 145.175 84.0104 145.175 83.2216C145.175 82.4261 145.319 81.7318 145.607 81.1385C145.899 80.5452 146.303 80.0845 146.82 79.7564C147.341 79.4283 147.946 79.2642 148.635 79.2642C149.325 79.2642 149.928 79.4283 150.445 79.7564C150.965 80.0845 151.369 80.5452 151.658 81.1385C151.95 81.7318 152.095 82.4261 152.095 83.2216C152.095 84.0104 151.95 84.6998 151.658 85.2898C151.369 85.8797 150.965 86.3388 150.445 86.6669C149.928 86.995 149.325 87.1591 148.635 87.1591ZM148.635 86.1051C149.159 86.1051 149.59 85.9709 149.928 85.7024C150.266 85.4339 150.516 85.081 150.678 84.6435C150.841 84.206 150.922 83.732 150.922 83.2216C150.922 82.7112 150.841 82.2356 150.678 81.7947C150.516 81.3539 150.266 80.9976 149.928 80.7259C149.59 80.4541 149.159 80.3182 148.635 80.3182C148.111 80.3182 147.681 80.4541 147.343 80.7259C147.004 80.9976 146.754 81.3539 146.592 81.7947C146.429 82.2356 146.348 82.7112 146.348 83.2216C146.348 83.732 146.429 84.206 146.592 84.6435C146.754 85.081 147.004 85.4339 147.343 85.7024C147.681 85.9709 148.111 86.1051 148.635 86.1051ZM154.98 84.2159L154.96 82.7642H155.199L158.54 79.3636H159.991L156.432 82.9631H156.332L154.98 84.2159ZM153.886 87V76.8182H155.06V87H153.886ZM158.739 87L155.756 83.2216L156.591 82.4062L160.23 87H158.739ZM161.502 87V79.3636H162.635V80.5568H162.735C162.894 80.1491 163.151 79.8326 163.505 79.6072C163.86 79.3786 164.286 79.2642 164.783 79.2642C165.287 79.2642 165.706 79.3786 166.041 79.6072C166.379 79.8326 166.642 80.1491 166.831 80.5568H166.911C167.106 80.1624 167.4 79.8492 167.791 79.6172C168.182 79.3819 168.651 79.2642 169.198 79.2642C169.88 79.2642 170.439 79.478 170.873 79.9055C171.307 80.3298 171.524 80.991 171.524 81.8892V87H170.351V81.8892C170.351 81.3258 170.197 80.9231 169.889 80.6811C169.58 80.4392 169.218 80.3182 168.8 80.3182C168.263 80.3182 167.847 80.4806 167.552 80.8054C167.257 81.1269 167.11 81.5346 167.11 82.0284V87H165.916V81.7699C165.916 81.3357 165.776 80.986 165.494 80.7209C165.212 80.4524 164.849 80.3182 164.405 80.3182C164.1 80.3182 163.815 80.3994 163.55 80.5618C163.288 80.7242 163.076 80.9496 162.914 81.2379C162.754 81.523 162.675 81.8527 162.675 82.2273V87H161.502ZM175.917 87.179C175.433 87.179 174.994 87.0878 174.599 86.9055C174.205 86.7199 173.892 86.4531 173.66 86.1051C173.428 85.7538 173.312 85.3295 173.312 84.8324C173.312 84.3949 173.398 84.0402 173.57 83.7685C173.742 83.4934 173.973 83.2779 174.261 83.1222C174.55 82.9664 174.868 82.8504 175.216 82.7741C175.567 82.6946 175.92 82.6316 176.275 82.5852C176.739 82.5256 177.115 82.4808 177.403 82.451C177.695 82.4179 177.907 82.3632 178.04 82.2869C178.175 82.2107 178.243 82.0781 178.243 81.8892V81.8494C178.243 81.3589 178.109 80.9777 177.841 80.706C177.576 80.4342 177.173 80.2983 176.633 80.2983C176.073 80.2983 175.633 80.4209 175.315 80.6662C174.997 80.9115 174.773 81.1733 174.644 81.4517L173.53 81.054C173.729 80.59 173.994 80.2287 174.326 79.9702C174.661 79.7083 175.025 79.526 175.42 79.4233C175.817 79.3172 176.208 79.2642 176.593 79.2642C176.838 79.2642 177.12 79.294 177.438 79.3537C177.76 79.41 178.069 79.5277 178.368 79.7067C178.669 79.8857 178.92 80.1558 179.118 80.517C179.317 80.8783 179.417 81.3622 179.417 81.9688V87H178.243V85.9659H178.184C178.104 86.1316 177.972 86.3089 177.786 86.4979C177.6 86.6868 177.354 86.8475 177.045 86.9801C176.737 87.1127 176.361 87.179 175.917 87.179ZM176.096 86.125C176.56 86.125 176.951 86.0339 177.269 85.8516C177.59 85.6693 177.832 85.4339 177.995 85.1456C178.161 84.8572 178.243 84.554 178.243 84.2358V83.1619C178.194 83.2216 178.084 83.2763 177.915 83.326C177.75 83.3724 177.557 83.4138 177.339 83.4503C177.123 83.4834 176.913 83.5133 176.707 83.5398C176.505 83.563 176.341 83.5829 176.215 83.5994C175.91 83.6392 175.625 83.7038 175.36 83.7933C175.098 83.8795 174.886 84.0104 174.724 84.1861C174.564 84.3584 174.485 84.5937 174.485 84.892C174.485 85.2997 174.636 85.608 174.937 85.8168C175.242 86.0223 175.628 86.125 176.096 86.125ZM181.558 87V79.3636H182.692V80.517H182.771C182.911 80.1392 183.162 79.8326 183.527 79.5973C183.892 79.362 184.303 79.2443 184.76 79.2443C184.846 79.2443 184.954 79.246 185.083 79.2493C185.212 79.2526 185.31 79.2576 185.376 79.2642V80.4574C185.337 80.4474 185.246 80.4325 185.103 80.4126C184.964 80.3894 184.816 80.3778 184.661 80.3778C184.289 80.3778 183.958 80.4557 183.666 80.6115C183.378 80.764 183.149 80.9761 182.98 81.2479C182.814 81.5163 182.732 81.8229 182.732 82.1676V87H181.558ZM187.861 84.2159L187.841 82.7642H188.08L191.421 79.3636H192.872L189.313 82.9631H189.213L187.861 84.2159ZM186.767 87V76.8182H187.941V87H186.767ZM191.619 87L188.637 83.2216L189.472 82.4062L193.111 87H191.619ZM197.27 87.1591C196.534 87.1591 195.899 86.9967 195.366 86.6719C194.835 86.3438 194.426 85.8864 194.138 85.2997C193.853 84.7098 193.71 84.0237 193.71 83.2415C193.71 82.4593 193.853 81.7699 194.138 81.1733C194.426 80.5734 194.827 80.1061 195.341 79.7713C195.858 79.4332 196.461 79.2642 197.15 79.2642C197.548 79.2642 197.941 79.3305 198.329 79.4631C198.716 79.5956 199.069 79.8111 199.388 80.1094C199.706 80.4044 199.959 80.7955 200.148 81.2827C200.337 81.7699 200.432 82.3698 200.432 83.0824V83.5795H194.545V82.5653H199.238C199.238 82.1345 199.152 81.75 198.98 81.4119C198.811 81.0739 198.569 80.8071 198.254 80.6115C197.943 80.416 197.575 80.3182 197.15 80.3182C196.683 80.3182 196.279 80.4342 195.937 80.6662C195.599 80.8949 195.339 81.1932 195.157 81.5611C194.974 81.929 194.883 82.3234 194.883 82.7443V83.4205C194.883 83.9972 194.983 84.486 195.182 84.8871C195.384 85.2848 195.664 85.5881 196.022 85.7969C196.38 86.0024 196.796 86.1051 197.27 86.1051C197.578 86.1051 197.856 86.062 198.105 85.9759C198.357 85.8864 198.574 85.7538 198.756 85.5781C198.939 85.3991 199.079 85.1771 199.179 84.9119L200.312 85.2301C200.193 85.6146 199.992 85.9527 199.711 86.2443C199.429 86.5327 199.081 86.758 198.667 86.9205C198.252 87.0795 197.787 87.1591 197.27 87.1591ZM202.216 87V79.3636H203.35V80.517H203.43C203.569 80.1392 203.821 79.8326 204.185 79.5973C204.55 79.362 204.961 79.2443 205.418 79.2443C205.504 79.2443 205.612 79.246 205.741 79.2493C205.871 79.2526 205.968 79.2576 206.035 79.2642V80.4574C205.995 80.4474 205.904 80.4325 205.761 80.4126C205.622 80.3894 205.474 80.3778 205.319 80.3778C204.948 80.3778 204.616 80.4557 204.324 80.6115C204.036 80.764 203.807 80.9761 203.638 81.2479C203.473 81.5163 203.39 81.8229 203.39 82.1676V87H202.216ZM212.835 81.0739L211.781 81.3722C211.714 81.1965 211.616 81.0258 211.487 80.8601C211.361 80.6911 211.189 80.5518 210.97 80.4425C210.751 80.3331 210.471 80.2784 210.13 80.2784C209.663 80.2784 209.273 80.3861 208.962 80.6016C208.653 80.8137 208.499 81.0838 208.499 81.4119C208.499 81.7036 208.605 81.9339 208.817 82.103C209.03 82.272 209.361 82.4129 209.812 82.5256L210.945 82.804C211.628 82.9697 212.137 83.2232 212.472 83.5646C212.806 83.9027 212.974 84.3385 212.974 84.8722C212.974 85.3097 212.848 85.7008 212.596 86.0455C212.347 86.3902 211.999 86.6619 211.552 86.8608C211.104 87.0597 210.584 87.1591 209.991 87.1591C209.212 87.1591 208.567 86.9901 208.057 86.652C207.546 86.3139 207.223 85.8201 207.087 85.1705L208.201 84.892C208.307 85.303 208.508 85.6113 208.803 85.8168C209.101 86.0223 209.49 86.125 209.971 86.125C210.518 86.125 210.952 86.009 211.273 85.777C211.598 85.5417 211.761 85.2599 211.761 84.9318C211.761 84.6667 211.668 84.4446 211.482 84.2656C211.297 84.0833 211.012 83.9474 210.627 83.858L209.354 83.5597C208.655 83.3939 208.141 83.1371 207.813 82.7891C207.488 82.4377 207.326 81.9986 207.326 81.4716C207.326 81.0407 207.447 80.6596 207.689 80.3281C207.934 79.9967 208.267 79.7365 208.688 79.5476C209.112 79.3587 209.593 79.2642 210.13 79.2642C210.886 79.2642 211.479 79.4299 211.91 79.7614C212.344 80.0928 212.652 80.5303 212.835 81.0739Z" fill="#868686"/>
</g>
<g id="Group 3">
<circle id="Ellipse 3_3" cx="233.5" cy="82.5" r="5.5" fill="#FF1A11"/>
<path id="Listeners" d="M245.233 87V76.8182H246.466V85.9062H251.199V87H245.233ZM252.949 87V79.3636H254.122V87H252.949ZM253.545 78.0909C253.317 78.0909 253.12 78.013 252.954 77.8572C252.791 77.7015 252.71 77.5142 252.71 77.2955C252.71 77.0767 252.791 76.8894 252.954 76.7337C253.12 76.5779 253.317 76.5 253.545 76.5C253.774 76.5 253.97 76.5779 254.132 76.7337C254.298 76.8894 254.381 77.0767 254.381 77.2955C254.381 77.5142 254.298 77.7015 254.132 77.8572C253.97 78.013 253.774 78.0909 253.545 78.0909ZM261.68 81.0739L260.626 81.3722C260.56 81.1965 260.462 81.0258 260.333 80.8601C260.207 80.6911 260.035 80.5518 259.816 80.4425C259.597 80.3331 259.317 80.2784 258.976 80.2784C258.508 80.2784 258.119 80.3861 257.807 80.6016C257.499 80.8137 257.345 81.0838 257.345 81.4119C257.345 81.7036 257.451 81.9339 257.663 82.103C257.875 82.272 258.207 82.4129 258.657 82.5256L259.791 82.804C260.474 82.9697 260.983 83.2232 261.317 83.5646C261.652 83.9027 261.819 84.3385 261.819 84.8722C261.819 85.3097 261.693 85.7008 261.442 86.0455C261.193 86.3902 260.845 86.6619 260.398 86.8608C259.95 87.0597 259.43 87.1591 258.836 87.1591C258.058 87.1591 257.413 86.9901 256.903 86.652C256.392 86.3139 256.069 85.8201 255.933 85.1705L257.047 84.892C257.153 85.303 257.353 85.6113 257.648 85.8168C257.947 86.0223 258.336 86.125 258.817 86.125C259.363 86.125 259.798 86.009 260.119 85.777C260.444 85.5417 260.606 85.2599 260.606 84.9318C260.606 84.6667 260.514 84.4446 260.328 84.2656C260.142 84.0833 259.857 83.9474 259.473 83.858L258.2 83.5597C257.501 83.3939 256.987 83.1371 256.659 82.7891C256.334 82.4377 256.172 81.9986 256.172 81.4716C256.172 81.0407 256.293 80.6596 256.535 80.3281C256.78 79.9967 257.113 79.7365 257.534 79.5476C257.958 79.3587 258.439 79.2642 258.976 79.2642C259.731 79.2642 260.325 79.4299 260.756 79.7614C261.19 80.0928 261.498 80.5303 261.68 81.0739ZM266.907 79.3636V80.358H262.949V79.3636H266.907ZM264.103 77.5341H265.276V84.8125C265.276 85.1439 265.324 85.3925 265.42 85.5582C265.52 85.7206 265.645 85.83 265.798 85.8864C265.954 85.9394 266.118 85.9659 266.29 85.9659C266.419 85.9659 266.525 85.9593 266.608 85.946C266.691 85.9295 266.757 85.9162 266.807 85.9062L267.046 86.9602C266.966 86.9901 266.855 87.0199 266.713 87.0497C266.57 87.0829 266.39 87.0994 266.171 87.0994C265.839 87.0994 265.515 87.0282 265.196 86.8857C264.882 86.7431 264.62 86.526 264.411 86.2344C264.205 85.9427 264.103 85.5748 264.103 85.1307V77.5341ZM271.791 87.1591C271.055 87.1591 270.421 86.9967 269.887 86.6719C269.357 86.3438 268.947 85.8864 268.659 85.2997C268.374 84.7098 268.232 84.0237 268.232 83.2415C268.232 82.4593 268.374 81.7699 268.659 81.1733C268.947 80.5734 269.348 80.1061 269.862 79.7713C270.379 79.4332 270.982 79.2642 271.672 79.2642C272.07 79.2642 272.462 79.3305 272.85 79.4631C273.238 79.5956 273.591 79.8111 273.909 80.1094C274.227 80.4044 274.481 80.7955 274.67 81.2827C274.859 81.7699 274.953 82.3698 274.953 83.0824V83.5795H269.067V82.5653H273.76C273.76 82.1345 273.674 81.75 273.501 81.4119C273.332 81.0739 273.09 80.8071 272.776 80.6115C272.464 80.416 272.096 80.3182 271.672 80.3182C271.205 80.3182 270.8 80.4342 270.459 80.6662C270.121 80.8949 269.861 81.1932 269.678 81.5611C269.496 81.929 269.405 82.3234 269.405 82.7443V83.4205C269.405 83.9972 269.504 84.486 269.703 84.8871C269.905 85.2848 270.185 85.5881 270.543 85.7969C270.901 86.0024 271.317 86.1051 271.791 86.1051C272.099 86.1051 272.378 86.062 272.626 85.9759C272.878 85.8864 273.095 85.7538 273.278 85.5781C273.46 85.3991 273.601 85.1771 273.7 84.9119L274.834 85.2301C274.714 85.6146 274.514 85.9527 274.232 86.2443C273.951 86.5327 273.603 86.758 273.188 86.9205C272.774 87.0795 272.308 87.1591 271.791 87.1591ZM277.911 82.4062V87H276.738V79.3636H277.871V80.5568H277.971C278.15 80.169 278.422 79.8575 278.786 79.6222C279.151 79.3835 279.621 79.2642 280.198 79.2642C280.715 79.2642 281.168 79.3703 281.555 79.5824C281.943 79.7912 282.245 80.1094 282.46 80.5369C282.676 80.9612 282.783 81.4981 282.783 82.1477V87H281.61V82.2273C281.61 81.6274 281.454 81.16 281.143 80.8253C280.831 80.4872 280.404 80.3182 279.86 80.3182C279.486 80.3182 279.151 80.3994 278.856 80.5618C278.564 80.7242 278.334 80.9612 278.165 81.2727C277.996 81.5843 277.911 81.9621 277.911 82.4062ZM288.129 87.1591C287.393 87.1591 286.759 86.9967 286.225 86.6719C285.695 86.3438 285.285 85.8864 284.997 85.2997C284.712 84.7098 284.569 84.0237 284.569 83.2415C284.569 82.4593 284.712 81.7699 284.997 81.1733C285.285 80.5734 285.686 80.1061 286.2 79.7713C286.717 79.4332 287.32 79.2642 288.01 79.2642C288.407 79.2642 288.8 79.3305 289.188 79.4631C289.576 79.5956 289.929 79.8111 290.247 80.1094C290.565 80.4044 290.819 80.7955 291.008 81.2827C291.197 81.7699 291.291 82.3698 291.291 83.0824V83.5795H285.405V82.5653H290.098C290.098 82.1345 290.012 81.75 289.839 81.4119C289.67 81.0739 289.428 80.8071 289.113 80.6115C288.802 80.416 288.434 80.3182 288.01 80.3182C287.542 80.3182 287.138 80.4342 286.797 80.6662C286.459 80.8949 286.198 81.1932 286.016 81.5611C285.834 81.929 285.743 82.3234 285.743 82.7443V83.4205C285.743 83.9972 285.842 84.486 286.041 84.8871C286.243 85.2848 286.523 85.5881 286.881 85.7969C287.239 86.0024 287.655 86.1051 288.129 86.1051C288.437 86.1051 288.716 86.062 288.964 85.9759C289.216 85.8864 289.433 85.7538 289.616 85.5781C289.798 85.3991 289.939 85.1771 290.038 84.9119L291.172 85.2301C291.052 85.6146 290.852 85.9527 290.57 86.2443C290.288 86.5327 289.94 86.758 289.526 86.9205C289.112 87.0795 288.646 87.1591 288.129 87.1591ZM293.076 87V79.3636H294.209V80.517H294.289C294.428 80.1392 294.68 79.8326 295.045 79.5973C295.409 79.362 295.82 79.2443 296.278 79.2443C296.364 79.2443 296.471 79.246 296.601 79.2493C296.73 79.2526 296.828 79.2576 296.894 79.2642V80.4574C296.854 80.4474 296.763 80.4325 296.621 80.4126C296.481 80.3894 296.334 80.3778 296.178 80.3778C295.807 80.3778 295.475 80.4557 295.184 80.6115C294.895 80.764 294.667 80.9761 294.498 81.2479C294.332 81.5163 294.249 81.8229 294.249 82.1676V87H293.076ZM303.694 81.0739L302.64 81.3722C302.574 81.1965 302.476 81.0258 302.347 80.8601C302.221 80.6911 302.048 80.5518 301.83 80.4425C301.611 80.3331 301.331 80.2784 300.989 80.2784C300.522 80.2784 300.133 80.3861 299.821 80.6016C299.513 80.8137 299.359 81.0838 299.359 81.4119C299.359 81.7036 299.465 81.9339 299.677 82.103C299.889 82.272 300.22 82.4129 300.671 82.5256L301.805 82.804C302.487 82.9697 302.996 83.2232 303.331 83.5646C303.666 83.9027 303.833 84.3385 303.833 84.8722C303.833 85.3097 303.707 85.7008 303.455 86.0455C303.207 86.3902 302.859 86.6619 302.411 86.8608C301.964 87.0597 301.443 87.1591 300.85 87.1591C300.071 87.1591 299.427 86.9901 298.916 86.652C298.406 86.3139 298.083 85.8201 297.947 85.1705L299.06 84.892C299.166 85.303 299.367 85.6113 299.662 85.8168C299.96 86.0223 300.35 86.125 300.83 86.125C301.377 86.125 301.811 86.009 302.133 85.777C302.458 85.5417 302.62 85.2599 302.62 84.9318C302.62 84.6667 302.527 84.4446 302.342 84.2656C302.156 84.0833 301.871 83.9474 301.487 83.858L300.214 83.5597C299.514 83.3939 299.001 83.1371 298.673 82.7891C298.348 82.4377 298.185 81.9986 298.185 81.4716C298.185 81.0407 298.306 80.6596 298.548 80.3281C298.794 79.9967 299.127 79.7365 299.548 79.5476C299.972 79.3587 300.452 79.2642 300.989 79.2642C301.745 79.2642 302.338 79.4299 302.769 79.7614C303.203 80.0928 303.512 80.5303 303.694 81.0739Z" fill="#868686"/>
</g>
</g>
</svg>
