<svg width="575" height="498" viewBox="0 0 575 498" fill="none" xmlns="http://www.w3.org/2000/svg">
<g id="time-spent-stats">
<rect id="inner_frame" x="52" y="52" width="432" height="373" rx="72" fill="white"/>
<line id="y_axis" x1="124.5" y1="146" x2="124.5" y2="369" stroke="black" stroke-opacity="0.17"/>
<line id="x_axis" x1="442.998" y1="369.5" x2="123.998" y2="368.5" stroke="black" stroke-opacity="0.17"/>
<g id="monday">
<rect id="Rectangle1_1" x="145" y="200"  rx="4" "/>
<rect id="Rectangle1_2" x="183" y="248" width="29" height="120" rx="4" fill="#0AA1DD"/>
</g>
<g id="wednesday">
<rect id="Rectangle2_1" x="332" y="260" width="29" height="109" rx="4" fill="#2155CD"/>
<rect id="Rectangle2_2" x="370" y="201" width="29" height="168" rx="4" fill="#0AA1DD"/>
</g>
<g id="tuesday">
<rect id="Rectangle3_1" x="239" y="230" width="29" height="139" rx="4" fill="#2155CD"/>
<rect id="Rectangle3_2" x="277" y="319" width="29" height="50" rx="4" fill="#0AA1DD"/>
</g>
<g id="Reading-guide">
<circle id="reading-time" cx="287" cy="124" r="3" fill="#0AA1DD"/>
<path id="Reading" d="M296.057 128V119.273H299.006C299.688 119.273 300.247 119.389 300.685 119.622C301.122 119.852 301.446 120.169 301.656 120.572C301.866 120.976 301.972 121.435 301.972 121.949C301.972 122.463 301.866 122.919 301.656 123.317C301.446 123.714 301.124 124.027 300.689 124.254C300.254 124.479 299.699 124.591 299.023 124.591H296.636V123.636H298.989C299.455 123.636 299.83 123.568 300.114 123.432C300.401 123.295 300.608 123.102 300.736 122.852C300.866 122.599 300.932 122.298 300.932 121.949C300.932 121.599 300.866 121.294 300.736 121.033C300.605 120.771 300.396 120.57 300.109 120.428C299.822 120.283 299.443 120.21 298.972 120.21H297.114V128H296.057ZM300.165 124.08L302.312 128H301.085L298.972 124.08H300.165ZM306.27 128.136C305.64 128.136 305.096 127.997 304.638 127.719C304.184 127.438 303.833 127.045 303.586 126.543C303.341 126.037 303.219 125.449 303.219 124.778C303.219 124.108 303.341 123.517 303.586 123.006C303.833 122.491 304.176 122.091 304.617 121.804C305.06 121.514 305.577 121.369 306.168 121.369C306.509 121.369 306.846 121.426 307.178 121.54C307.51 121.653 307.813 121.838 308.086 122.094C308.358 122.347 308.576 122.682 308.738 123.099C308.9 123.517 308.98 124.031 308.98 124.642V125.068H303.935V124.199H307.958C307.958 123.83 307.884 123.5 307.736 123.21C307.591 122.92 307.384 122.692 307.114 122.524C306.847 122.357 306.532 122.273 306.168 122.273C305.767 122.273 305.421 122.372 305.128 122.571C304.838 122.767 304.615 123.023 304.459 123.338C304.303 123.653 304.225 123.991 304.225 124.352V124.932C304.225 125.426 304.31 125.845 304.48 126.189C304.654 126.53 304.894 126.79 305.201 126.969C305.507 127.145 305.864 127.233 306.27 127.233C306.534 127.233 306.773 127.196 306.986 127.122C307.202 127.045 307.388 126.932 307.544 126.781C307.701 126.628 307.821 126.437 307.907 126.21L308.878 126.483C308.776 126.812 308.604 127.102 308.363 127.352C308.121 127.599 307.823 127.793 307.468 127.932C307.113 128.068 306.713 128.136 306.27 128.136ZM312.436 128.153C312.022 128.153 311.645 128.075 311.307 127.919C310.969 127.76 310.701 127.531 310.502 127.233C310.303 126.932 310.203 126.568 310.203 126.142C310.203 125.767 310.277 125.463 310.425 125.23C310.573 124.994 310.77 124.81 311.017 124.676C311.265 124.543 311.537 124.443 311.836 124.378C312.137 124.31 312.439 124.256 312.743 124.216C313.141 124.165 313.463 124.126 313.711 124.101C313.961 124.072 314.142 124.026 314.256 123.96C314.373 123.895 314.431 123.781 314.431 123.619V123.585C314.431 123.165 314.316 122.838 314.086 122.605C313.858 122.372 313.513 122.256 313.05 122.256C312.57 122.256 312.194 122.361 311.921 122.571C311.648 122.781 311.456 123.006 311.346 123.244L310.391 122.903C310.561 122.506 310.789 122.196 311.073 121.974C311.36 121.75 311.672 121.594 312.01 121.506C312.351 121.415 312.686 121.369 313.016 121.369C313.226 121.369 313.468 121.395 313.74 121.446C314.016 121.494 314.282 121.595 314.537 121.749C314.796 121.902 315.01 122.134 315.181 122.443C315.351 122.753 315.436 123.168 315.436 123.688V128H314.431V127.114H314.38C314.311 127.256 314.198 127.408 314.039 127.57C313.88 127.732 313.668 127.869 313.404 127.983C313.14 128.097 312.817 128.153 312.436 128.153ZM312.59 127.25C312.988 127.25 313.323 127.172 313.596 127.016C313.871 126.859 314.078 126.658 314.218 126.411C314.36 126.163 314.431 125.903 314.431 125.631V124.71C314.388 124.761 314.294 124.808 314.15 124.851C314.007 124.891 313.843 124.926 313.655 124.957C313.471 124.986 313.29 125.011 313.114 125.034C312.941 125.054 312.8 125.071 312.692 125.085C312.431 125.119 312.186 125.175 311.959 125.251C311.735 125.325 311.553 125.437 311.414 125.588C311.277 125.736 311.209 125.937 311.209 126.193C311.209 126.543 311.338 126.807 311.597 126.986C311.858 127.162 312.189 127.25 312.59 127.25ZM319.744 128.136C319.198 128.136 318.717 127.999 318.299 127.723C317.881 127.445 317.555 127.053 317.319 126.547C317.083 126.038 316.965 125.438 316.965 124.744C316.965 124.057 317.083 123.46 317.319 122.955C317.555 122.449 317.883 122.058 318.303 121.783C318.724 121.507 319.21 121.369 319.761 121.369C320.187 121.369 320.523 121.44 320.771 121.582C321.021 121.722 321.211 121.881 321.342 122.06C321.475 122.236 321.579 122.381 321.653 122.494H321.738V119.273H322.744V128H321.772V126.994H321.653C321.579 127.114 321.474 127.264 321.337 127.446C321.201 127.625 321.006 127.786 320.754 127.928C320.501 128.067 320.164 128.136 319.744 128.136ZM319.88 127.233C320.283 127.233 320.624 127.128 320.903 126.918C321.181 126.705 321.393 126.411 321.538 126.036C321.683 125.658 321.755 125.222 321.755 124.727C321.755 124.239 321.684 123.811 321.542 123.445C321.4 123.075 321.19 122.788 320.911 122.584C320.633 122.376 320.289 122.273 319.88 122.273C319.454 122.273 319.099 122.382 318.815 122.601C318.533 122.817 318.322 123.111 318.18 123.483C318.04 123.852 317.971 124.267 317.971 124.727C317.971 125.193 318.042 125.616 318.184 125.997C318.329 126.375 318.542 126.676 318.823 126.901C319.107 127.122 319.46 127.233 319.88 127.233ZM324.725 128V121.455H325.731V128H324.725ZM325.237 120.364C325.04 120.364 324.871 120.297 324.729 120.163C324.59 120.03 324.521 119.869 324.521 119.682C324.521 119.494 324.59 119.334 324.729 119.2C324.871 119.067 325.04 119 325.237 119C325.433 119 325.6 119.067 325.739 119.2C325.881 119.334 325.952 119.494 325.952 119.682C325.952 119.869 325.881 120.03 325.739 120.163C325.6 120.297 325.433 120.364 325.237 120.364ZM328.578 124.062V128H327.573V121.455H328.544V122.477H328.63C328.783 122.145 329.016 121.878 329.328 121.676C329.641 121.472 330.044 121.369 330.539 121.369C330.982 121.369 331.37 121.46 331.702 121.642C332.034 121.821 332.293 122.094 332.478 122.46C332.662 122.824 332.755 123.284 332.755 123.841V128H331.749V123.909C331.749 123.395 331.615 122.994 331.348 122.707C331.081 122.418 330.715 122.273 330.249 122.273C329.928 122.273 329.641 122.342 329.388 122.482C329.138 122.621 328.941 122.824 328.796 123.091C328.651 123.358 328.578 123.682 328.578 124.062ZM337.234 130.591C336.749 130.591 336.331 130.528 335.982 130.403C335.632 130.281 335.341 130.119 335.108 129.918C334.878 129.719 334.695 129.506 334.558 129.278L335.359 128.716C335.45 128.835 335.565 128.972 335.705 129.125C335.844 129.281 336.034 129.416 336.276 129.53C336.52 129.646 336.839 129.705 337.234 129.705C337.763 129.705 338.199 129.577 338.543 129.321C338.886 129.065 339.058 128.665 339.058 128.119V126.79H338.973C338.899 126.909 338.794 127.057 338.658 127.233C338.524 127.406 338.331 127.561 338.078 127.697C337.828 127.831 337.49 127.898 337.064 127.898C336.536 127.898 336.061 127.773 335.641 127.523C335.223 127.273 334.892 126.909 334.648 126.432C334.406 125.955 334.286 125.375 334.286 124.693C334.286 124.023 334.403 123.439 334.639 122.942C334.875 122.442 335.203 122.055 335.624 121.783C336.044 121.507 336.53 121.369 337.081 121.369C337.507 121.369 337.845 121.44 338.095 121.582C338.348 121.722 338.541 121.881 338.675 122.06C338.811 122.236 338.916 122.381 338.99 122.494H339.092V121.455H340.064V128.188C340.064 128.75 339.936 129.207 339.68 129.56C339.428 129.915 339.087 130.175 338.658 130.339C338.232 130.507 337.757 130.591 337.234 130.591ZM337.2 126.994C337.604 126.994 337.945 126.902 338.223 126.717C338.501 126.533 338.713 126.267 338.858 125.92C339.003 125.574 339.075 125.159 339.075 124.676C339.075 124.205 339.004 123.788 338.862 123.428C338.72 123.067 338.51 122.784 338.232 122.58C337.953 122.375 337.609 122.273 337.2 122.273C336.774 122.273 336.419 122.381 336.135 122.597C335.854 122.812 335.642 123.102 335.5 123.466C335.361 123.83 335.291 124.233 335.291 124.676C335.291 125.131 335.362 125.533 335.504 125.882C335.649 126.229 335.862 126.501 336.143 126.7C336.428 126.896 336.78 126.994 337.2 126.994Z" fill="black"/>
</g>
<g id="Listening-guide">
<circle id="reading-time_2" cx="359" cy="124" r="3" fill="#2155CD"/>
<path id="Listening" d="M367.057 127V118.273H368.114V126.062H372.17V127H367.057ZM373.67 127V120.455H374.676V127H373.67ZM374.182 119.364C373.986 119.364 373.817 119.297 373.675 119.163C373.536 119.03 373.466 118.869 373.466 118.682C373.466 118.494 373.536 118.334 373.675 118.2C373.817 118.067 373.986 118 374.182 118C374.378 118 374.545 118.067 374.685 118.2C374.827 118.334 374.898 118.494 374.898 118.682C374.898 118.869 374.827 119.03 374.685 119.163C374.545 119.297 374.378 119.364 374.182 119.364ZM381.154 121.92L380.251 122.176C380.194 122.026 380.11 121.879 380 121.737C379.892 121.592 379.744 121.473 379.556 121.379C379.369 121.286 379.129 121.239 378.836 121.239C378.436 121.239 378.102 121.331 377.835 121.516C377.571 121.697 377.439 121.929 377.439 122.21C377.439 122.46 377.529 122.658 377.711 122.803C377.893 122.947 378.177 123.068 378.564 123.165L379.535 123.403C380.12 123.545 380.556 123.763 380.843 124.055C381.13 124.345 381.274 124.719 381.274 125.176C381.274 125.551 381.166 125.886 380.95 126.182C380.737 126.477 380.439 126.71 380.055 126.881C379.672 127.051 379.225 127.136 378.717 127.136C378.049 127.136 377.497 126.991 377.059 126.702C376.622 126.412 376.345 125.989 376.228 125.432L377.183 125.193C377.274 125.545 377.446 125.81 377.699 125.986C377.954 126.162 378.288 126.25 378.7 126.25C379.169 126.25 379.541 126.151 379.816 125.952C380.095 125.75 380.234 125.509 380.234 125.227C380.234 125 380.154 124.81 379.995 124.656C379.836 124.5 379.592 124.384 379.262 124.307L378.172 124.051C377.572 123.909 377.132 123.689 376.85 123.391C376.572 123.089 376.433 122.713 376.433 122.261C376.433 121.892 376.537 121.565 376.744 121.281C376.954 120.997 377.24 120.774 377.6 120.612C377.964 120.45 378.376 120.369 378.836 120.369C379.484 120.369 379.993 120.511 380.362 120.795C380.734 121.08 380.998 121.455 381.154 121.92ZM385.634 120.455V121.307H382.242V120.455H385.634ZM383.231 118.886H384.237V125.125C384.237 125.409 384.278 125.622 384.36 125.764C384.445 125.903 384.553 125.997 384.684 126.045C384.817 126.091 384.958 126.114 385.106 126.114C385.217 126.114 385.308 126.108 385.379 126.097C385.45 126.082 385.506 126.071 385.549 126.062L385.754 126.966C385.685 126.991 385.59 127.017 385.468 127.043C385.346 127.071 385.191 127.085 385.004 127.085C384.719 127.085 384.441 127.024 384.168 126.902C383.898 126.78 383.674 126.594 383.495 126.344C383.319 126.094 383.231 125.778 383.231 125.398V118.886ZM389.821 127.136C389.19 127.136 388.646 126.997 388.189 126.719C387.734 126.438 387.384 126.045 387.136 125.543C386.892 125.037 386.77 124.449 386.77 123.778C386.77 123.108 386.892 122.517 387.136 122.006C387.384 121.491 387.727 121.091 388.168 120.804C388.611 120.514 389.128 120.369 389.719 120.369C390.06 120.369 390.396 120.426 390.729 120.54C391.061 120.653 391.364 120.838 391.636 121.094C391.909 121.347 392.126 121.682 392.288 122.099C392.45 122.517 392.531 123.031 392.531 123.642V124.068H387.486V123.199H391.509C391.509 122.83 391.435 122.5 391.287 122.21C391.142 121.92 390.935 121.692 390.665 121.524C390.398 121.357 390.082 121.273 389.719 121.273C389.318 121.273 388.972 121.372 388.679 121.571C388.389 121.767 388.166 122.023 388.01 122.338C387.854 122.653 387.776 122.991 387.776 123.352V123.932C387.776 124.426 387.861 124.845 388.031 125.189C388.205 125.53 388.445 125.79 388.751 125.969C389.058 126.145 389.415 126.233 389.821 126.233C390.085 126.233 390.324 126.196 390.537 126.122C390.753 126.045 390.939 125.932 391.095 125.781C391.251 125.628 391.372 125.437 391.457 125.21L392.429 125.483C392.327 125.812 392.155 126.102 391.913 126.352C391.672 126.599 391.374 126.793 391.018 126.932C390.663 127.068 390.264 127.136 389.821 127.136ZM395.067 123.062V127H394.061V120.455H395.033V121.477H395.118C395.271 121.145 395.504 120.878 395.817 120.676C396.129 120.472 396.533 120.369 397.027 120.369C397.47 120.369 397.858 120.46 398.19 120.642C398.523 120.821 398.781 121.094 398.966 121.46C399.151 121.824 399.243 122.284 399.243 122.841V127H398.237V122.909C398.237 122.395 398.104 121.994 397.837 121.707C397.57 121.418 397.203 121.273 396.737 121.273C396.416 121.273 396.129 121.342 395.876 121.482C395.626 121.621 395.429 121.824 395.284 122.091C395.139 122.358 395.067 122.682 395.067 123.062ZM401.081 127V120.455H402.086V127H401.081ZM401.592 119.364C401.396 119.364 401.227 119.297 401.085 119.163C400.946 119.03 400.876 118.869 400.876 118.682C400.876 118.494 400.946 118.334 401.085 118.2C401.227 118.067 401.396 118 401.592 118C401.788 118 401.956 118.067 402.095 118.2C402.237 118.334 402.308 118.494 402.308 118.682C402.308 118.869 402.237 119.03 402.095 119.163C401.956 119.297 401.788 119.364 401.592 119.364ZM404.934 123.062V127H403.928V120.455H404.9V121.477H404.985C405.138 121.145 405.371 120.878 405.684 120.676C405.996 120.472 406.4 120.369 406.894 120.369C407.337 120.369 407.725 120.46 408.058 120.642C408.39 120.821 408.648 121.094 408.833 121.46C409.018 121.824 409.11 122.284 409.11 122.841V127H408.104V122.909C408.104 122.395 407.971 121.994 407.704 121.707C407.437 121.418 407.07 121.273 406.604 121.273C406.283 121.273 405.996 121.342 405.744 121.482C405.494 121.621 405.296 121.824 405.151 122.091C405.006 122.358 404.934 122.682 404.934 123.062ZM413.59 129.591C413.104 129.591 412.686 129.528 412.337 129.403C411.988 129.281 411.696 129.119 411.463 128.918C411.233 128.719 411.05 128.506 410.914 128.278L411.715 127.716C411.806 127.835 411.921 127.972 412.06 128.125C412.199 128.281 412.39 128.416 412.631 128.53C412.875 128.646 413.195 128.705 413.59 128.705C414.118 128.705 414.554 128.577 414.898 128.321C415.242 128.065 415.414 127.665 415.414 127.119V125.79H415.328C415.255 125.909 415.15 126.057 415.013 126.233C414.88 126.406 414.686 126.561 414.434 126.697C414.184 126.831 413.846 126.898 413.419 126.898C412.891 126.898 412.417 126.773 411.996 126.523C411.578 126.273 411.248 125.909 411.003 125.432C410.762 124.955 410.641 124.375 410.641 123.693C410.641 123.023 410.759 122.439 410.995 121.942C411.23 121.442 411.559 121.055 411.979 120.783C412.4 120.507 412.885 120.369 413.436 120.369C413.863 120.369 414.201 120.44 414.451 120.582C414.703 120.722 414.897 120.881 415.03 121.06C415.167 121.236 415.272 121.381 415.346 121.494H415.448V120.455H416.419V127.188C416.419 127.75 416.292 128.207 416.036 128.56C415.783 128.915 415.442 129.175 415.013 129.339C414.587 129.507 414.113 129.591 413.59 129.591ZM413.556 125.994C413.959 125.994 414.3 125.902 414.578 125.717C414.857 125.533 415.069 125.267 415.213 124.92C415.358 124.574 415.431 124.159 415.431 123.676C415.431 123.205 415.36 122.788 415.218 122.428C415.076 122.067 414.865 121.784 414.587 121.58C414.309 121.375 413.965 121.273 413.556 121.273C413.13 121.273 412.775 121.381 412.49 121.597C412.209 121.812 411.998 122.102 411.855 122.466C411.716 122.83 411.647 123.233 411.647 123.676C411.647 124.131 411.718 124.533 411.86 124.882C412.005 125.229 412.218 125.501 412.499 125.7C412.783 125.896 413.135 125.994 413.556 125.994Z" fill="black"/>
</g>
<g id="days_x_axis">
<g id="days_x_axis_2">
<path id="Mon" d="M165.861 383.273H167.795L170.386 389.597H170.489L173.08 383.273H175.014V392H173.497V386.004H173.416L171.004 391.974H169.871L167.459 385.991H167.378V392H165.861V383.273ZM179.523 392.128C178.884 392.128 178.33 391.987 177.861 391.706C177.392 391.425 177.028 391.031 176.77 390.526C176.514 390.02 176.386 389.429 176.386 388.753C176.386 388.077 176.514 387.484 176.77 386.976C177.028 386.467 177.392 386.072 177.861 385.791C178.33 385.51 178.884 385.369 179.523 385.369C180.162 385.369 180.716 385.51 181.185 385.791C181.653 386.072 182.016 386.467 182.271 386.976C182.53 387.484 182.659 388.077 182.659 388.753C182.659 389.429 182.53 390.02 182.271 390.526C182.016 391.031 181.653 391.425 181.185 391.706C180.716 391.987 180.162 392.128 179.523 392.128ZM179.531 390.892C179.878 390.892 180.168 390.797 180.401 390.607C180.634 390.413 180.807 390.155 180.92 389.831C181.037 389.507 181.095 389.146 181.095 388.749C181.095 388.348 181.037 387.986 180.92 387.662C180.807 387.335 180.634 387.075 180.401 386.882C180.168 386.689 179.878 386.592 179.531 386.592C179.176 386.592 178.881 386.689 178.645 386.882C178.412 387.075 178.237 387.335 178.121 387.662C178.007 387.986 177.95 388.348 177.95 388.749C177.95 389.146 178.007 389.507 178.121 389.831C178.237 390.155 178.412 390.413 178.645 390.607C178.881 390.797 179.176 390.892 179.531 390.892ZM185.511 388.165V392H183.968V385.455H185.443V386.567H185.52C185.67 386.2 185.91 385.909 186.24 385.693C186.572 385.477 186.983 385.369 187.471 385.369C187.923 385.369 188.316 385.466 188.652 385.659C188.99 385.852 189.251 386.132 189.436 386.499C189.623 386.865 189.716 387.31 189.713 387.832V392H188.17V388.071C188.17 387.634 188.056 387.291 187.829 387.044C187.605 386.797 187.294 386.673 186.896 386.673C186.626 386.673 186.386 386.733 186.176 386.852C185.968 386.969 185.805 387.138 185.686 387.359C185.569 387.581 185.511 387.849 185.511 388.165Z" fill="black"/>
<path id="Tue" d="M262.477 384.598V383.273H269.44V384.598H266.743V392H265.175V384.598H262.477ZM273.996 389.247V385.455H275.538V392H274.043V390.837H273.974C273.827 391.203 273.584 391.503 273.246 391.736C272.911 391.969 272.497 392.085 272.006 392.085C271.577 392.085 271.197 391.99 270.868 391.8C270.541 391.607 270.286 391.327 270.101 390.96C269.916 390.591 269.824 390.145 269.824 389.622V385.455H271.366V389.384C271.366 389.798 271.48 390.128 271.707 390.372C271.935 390.616 272.233 390.739 272.602 390.739C272.83 390.739 273.05 390.683 273.263 390.572C273.476 390.462 273.651 390.297 273.787 390.078C273.926 389.857 273.996 389.58 273.996 389.247ZM280.022 392.128C279.366 392.128 278.799 391.991 278.322 391.719C277.848 391.443 277.483 391.054 277.227 390.551C276.971 390.045 276.843 389.45 276.843 388.766C276.843 388.092 276.971 387.501 277.227 386.993C277.485 386.482 277.846 386.084 278.309 385.8C278.772 385.513 279.316 385.369 279.941 385.369C280.345 385.369 280.725 385.435 281.083 385.565C281.444 385.693 281.762 385.892 282.038 386.162C282.316 386.432 282.535 386.776 282.694 387.193C282.853 387.608 282.933 388.102 282.933 388.676V389.149H277.568V388.109H281.454C281.451 387.814 281.387 387.551 281.262 387.321C281.137 387.088 280.963 386.905 280.738 386.771C280.517 386.638 280.258 386.571 279.963 386.571C279.647 386.571 279.37 386.648 279.132 386.801C278.893 386.952 278.707 387.151 278.574 387.398C278.443 387.642 278.376 387.911 278.373 388.203V389.111C278.373 389.491 278.443 389.818 278.582 390.091C278.721 390.361 278.916 390.568 279.166 390.713C279.416 390.855 279.708 390.926 280.044 390.926C280.268 390.926 280.471 390.895 280.653 390.832C280.835 390.767 280.993 390.672 281.126 390.547C281.26 390.422 281.36 390.267 281.429 390.082L282.869 390.244C282.778 390.625 282.605 390.957 282.349 391.241C282.096 391.523 281.772 391.741 281.377 391.898C280.983 392.051 280.531 392.128 280.022 392.128Z" fill="black"/>
<path id="Wed" d="M360.697 392L358.234 383.273H359.935L361.507 389.686H361.588L363.267 383.273H364.814L366.497 389.69H366.574L368.146 383.273H369.847L367.384 392H365.824L364.077 385.876H364.009L362.257 392H360.697ZM373.104 392.128C372.448 392.128 371.881 391.991 371.404 391.719C370.93 391.443 370.565 391.054 370.309 390.551C370.053 390.045 369.925 389.45 369.925 388.766C369.925 388.092 370.053 387.501 370.309 386.993C370.567 386.482 370.928 386.084 371.391 385.8C371.854 385.513 372.398 385.369 373.023 385.369C373.427 385.369 373.808 385.435 374.165 385.565C374.526 385.693 374.844 385.892 375.12 386.162C375.398 386.432 375.617 386.776 375.776 387.193C375.935 387.608 376.015 388.102 376.015 388.676V389.149H370.65V388.109H374.536C374.533 387.814 374.469 387.551 374.344 387.321C374.219 387.088 374.045 386.905 373.82 386.771C373.599 386.638 373.34 386.571 373.045 386.571C372.729 386.571 372.452 386.648 372.214 386.801C371.975 386.952 371.789 387.151 371.656 387.398C371.525 387.642 371.458 387.911 371.455 388.203V389.111C371.455 389.491 371.525 389.818 371.664 390.091C371.803 390.361 371.998 390.568 372.248 390.713C372.498 390.855 372.79 390.926 373.126 390.926C373.35 390.926 373.553 390.895 373.735 390.832C373.917 390.767 374.075 390.672 374.208 390.547C374.342 390.422 374.442 390.267 374.511 390.082L375.951 390.244C375.86 390.625 375.687 390.957 375.431 391.241C375.178 391.523 374.854 391.741 374.46 391.898C374.065 392.051 373.613 392.128 373.104 392.128ZM379.749 392.115C379.235 392.115 378.775 391.983 378.368 391.719C377.962 391.455 377.641 391.071 377.405 390.568C377.169 390.065 377.051 389.455 377.051 388.736C377.051 388.009 377.171 387.395 377.409 386.895C377.651 386.392 377.976 386.013 378.385 385.757C378.794 385.499 379.25 385.369 379.753 385.369C380.137 385.369 380.452 385.435 380.699 385.565C380.946 385.693 381.142 385.848 381.287 386.03C381.432 386.209 381.544 386.378 381.624 386.537H381.688V383.273H383.235V392H381.718V390.969H381.624C381.544 391.128 381.429 391.297 381.279 391.476C381.128 391.652 380.929 391.803 380.682 391.928C380.435 392.053 380.124 392.115 379.749 392.115ZM380.179 390.849C380.506 390.849 380.784 390.761 381.015 390.585C381.245 390.406 381.419 390.158 381.539 389.839C381.658 389.521 381.718 389.151 381.718 388.727C381.718 388.304 381.658 387.936 381.539 387.624C381.422 387.311 381.249 387.068 381.019 386.895C380.792 386.722 380.512 386.635 380.179 386.635C379.836 386.635 379.549 386.724 379.319 386.903C379.088 387.082 378.915 387.33 378.799 387.645C378.682 387.96 378.624 388.321 378.624 388.727C378.624 389.136 378.682 389.501 378.799 389.822C378.918 390.141 379.093 390.392 379.323 390.577C379.556 390.759 379.841 390.849 380.179 390.849Z" fill="black"/>
</g>
</g>
<path id="Time Spent" d="M100.955 93.196V90.5455H114.881V93.196H109.486V108H106.349V93.196H100.955ZM117.429 108V94.9091H120.514V108H117.429ZM118.98 93.0511C118.491 93.0511 118.071 92.8892 117.719 92.5653C117.366 92.2358 117.19 91.8409 117.19 91.3807C117.19 90.9148 117.366 90.5199 117.719 90.196C118.071 89.8665 118.491 89.7017 118.98 89.7017C119.474 89.7017 119.895 89.8665 120.241 90.196C120.594 90.5199 120.77 90.9148 120.77 91.3807C120.77 91.8409 120.594 92.2358 120.241 92.5653C119.895 92.8892 119.474 93.0511 118.98 93.0511ZM123.687 108V94.9091H126.636V97.1335H126.789C127.062 96.3835 127.513 95.7983 128.144 95.3778C128.775 94.9517 129.528 94.7386 130.403 94.7386C131.289 94.7386 132.036 94.9545 132.644 95.3864C133.258 95.8125 133.69 96.3949 133.94 97.1335H134.076C134.366 96.4062 134.854 95.8267 135.542 95.3949C136.235 94.9574 137.056 94.7386 138.005 94.7386C139.21 94.7386 140.192 95.1193 140.954 95.8807C141.715 96.642 142.096 97.7528 142.096 99.2131V108H139.002V99.6903C139.002 98.8778 138.786 98.2841 138.354 97.9091C137.923 97.5284 137.394 97.3381 136.769 97.3381C136.025 97.3381 135.442 97.571 135.022 98.0369C134.607 98.4972 134.4 99.0966 134.4 99.8352V108H131.374V99.5625C131.374 98.8864 131.17 98.3466 130.761 97.9432C130.357 97.5398 129.829 97.3381 129.175 97.3381C128.732 97.3381 128.329 97.4517 127.965 97.679C127.602 97.9006 127.312 98.2159 127.096 98.625C126.88 99.0284 126.772 99.5 126.772 100.04V108H123.687ZM151.021 108.256C149.709 108.256 148.575 107.983 147.621 107.438C146.672 106.886 145.942 106.108 145.43 105.102C144.919 104.091 144.663 102.901 144.663 101.531C144.663 100.185 144.919 99.0028 145.43 97.9858C145.947 96.9631 146.669 96.1676 147.595 95.5994C148.521 95.0256 149.609 94.7386 150.859 94.7386C151.666 94.7386 152.428 94.8693 153.143 95.1307C153.865 95.3864 154.501 95.7841 155.053 96.3239C155.609 96.8636 156.047 97.5511 156.365 98.3864C156.683 99.2159 156.842 100.205 156.842 101.352V102.298H146.112V100.219H153.885C153.879 99.6278 153.751 99.1023 153.501 98.642C153.251 98.1761 152.902 97.8097 152.453 97.5426C152.01 97.2756 151.493 97.142 150.902 97.142C150.271 97.142 149.717 97.2955 149.24 97.6023C148.763 97.9034 148.391 98.3011 148.124 98.7955C147.862 99.2841 147.729 99.821 147.723 100.406V102.222C147.723 102.983 147.862 103.636 148.141 104.182C148.419 104.722 148.808 105.136 149.308 105.426C149.808 105.71 150.393 105.852 151.064 105.852C151.513 105.852 151.919 105.79 152.283 105.665C152.646 105.534 152.962 105.344 153.229 105.094C153.496 104.844 153.697 104.534 153.834 104.165L156.714 104.489C156.533 105.25 156.186 105.915 155.675 106.483C155.169 107.045 154.521 107.483 153.732 107.795C152.942 108.102 152.038 108.256 151.021 108.256ZM175.028 95.3438C174.948 94.5994 174.613 94.0199 174.022 93.6051C173.437 93.1903 172.675 92.983 171.738 92.983C171.079 92.983 170.513 93.0824 170.042 93.2812C169.57 93.4801 169.21 93.75 168.96 94.0909C168.71 94.4318 168.582 94.821 168.576 95.2585C168.576 95.6222 168.658 95.9375 168.823 96.2045C168.994 96.4716 169.224 96.6989 169.513 96.8864C169.803 97.0682 170.124 97.2216 170.477 97.3466C170.829 97.4716 171.184 97.5767 171.542 97.6619L173.178 98.071C173.837 98.2244 174.471 98.4318 175.079 98.6932C175.692 98.9545 176.241 99.2841 176.724 99.6818C177.212 100.08 177.599 100.56 177.883 101.122C178.167 101.685 178.309 102.344 178.309 103.099C178.309 104.122 178.048 105.023 177.525 105.801C177.002 106.574 176.246 107.179 175.258 107.616C174.275 108.048 173.085 108.264 171.687 108.264C170.329 108.264 169.15 108.054 168.15 107.634C167.156 107.213 166.377 106.599 165.815 105.793C165.258 104.986 164.957 104.003 164.911 102.844H168.022C168.067 103.452 168.255 103.957 168.585 104.361C168.914 104.764 169.343 105.065 169.871 105.264C170.406 105.463 171.002 105.562 171.661 105.562C172.349 105.562 172.951 105.46 173.468 105.256C173.991 105.045 174.4 104.756 174.695 104.386C174.991 104.011 175.141 103.574 175.147 103.074C175.141 102.619 175.008 102.244 174.746 101.949C174.485 101.648 174.119 101.398 173.647 101.199C173.181 100.994 172.636 100.812 172.011 100.653L170.025 100.142C168.587 99.7727 167.451 99.2131 166.616 98.4631C165.786 97.7074 165.371 96.7045 165.371 95.4545C165.371 94.4261 165.65 93.5256 166.207 92.7528C166.769 91.9801 167.533 91.3807 168.499 90.9545C169.465 90.5227 170.559 90.3068 171.781 90.3068C173.019 90.3068 174.104 90.5227 175.036 90.9545C175.974 91.3807 176.71 91.9744 177.244 92.7358C177.778 93.4915 178.053 94.3608 178.07 95.3438H175.028ZM180.991 112.909V94.9091H184.026V97.0739H184.205C184.364 96.7557 184.588 96.4176 184.878 96.0597C185.168 95.696 185.56 95.3864 186.054 95.1307C186.548 94.8693 187.179 94.7386 187.946 94.7386C188.957 94.7386 189.869 94.9972 190.682 95.5142C191.5 96.0256 192.148 96.7841 192.625 97.7898C193.108 98.7898 193.349 100.017 193.349 101.472C193.349 102.909 193.114 104.131 192.642 105.136C192.17 106.142 191.528 106.909 190.716 107.438C189.903 107.966 188.983 108.23 187.955 108.23C187.205 108.23 186.582 108.105 186.088 107.855C185.594 107.605 185.196 107.304 184.895 106.952C184.599 106.594 184.369 106.256 184.205 105.938H184.077V112.909H180.991ZM184.017 101.455C184.017 102.301 184.136 103.043 184.375 103.679C184.619 104.315 184.969 104.812 185.423 105.17C185.884 105.523 186.44 105.699 187.094 105.699C187.776 105.699 188.347 105.517 188.807 105.153C189.267 104.784 189.614 104.281 189.847 103.645C190.085 103.003 190.205 102.273 190.205 101.455C190.205 100.642 190.088 99.9205 189.855 99.2898C189.622 98.6591 189.276 98.1648 188.815 97.8068C188.355 97.4489 187.781 97.2699 187.094 97.2699C186.435 97.2699 185.875 97.4432 185.415 97.7898C184.955 98.1364 184.605 98.6222 184.366 99.2472C184.134 99.8722 184.017 100.608 184.017 101.455ZM201.787 108.256C200.474 108.256 199.341 107.983 198.386 107.438C197.438 106.886 196.707 106.108 196.196 105.102C195.685 104.091 195.429 102.901 195.429 101.531C195.429 100.185 195.685 99.0028 196.196 97.9858C196.713 96.9631 197.435 96.1676 198.361 95.5994C199.287 95.0256 200.375 94.7386 201.625 94.7386C202.432 94.7386 203.193 94.8693 203.909 95.1307C204.631 95.3864 205.267 95.7841 205.818 96.3239C206.375 96.8636 206.813 97.5511 207.131 98.3864C207.449 99.2159 207.608 100.205 207.608 101.352V102.298H196.878V100.219H204.651C204.645 99.6278 204.517 99.1023 204.267 98.642C204.017 98.1761 203.668 97.8097 203.219 97.5426C202.776 97.2756 202.259 97.142 201.668 97.142C201.037 97.142 200.483 97.2955 200.006 97.6023C199.528 97.9034 199.156 98.3011 198.889 98.7955C198.628 99.2841 198.494 99.821 198.489 100.406V102.222C198.489 102.983 198.628 103.636 198.906 104.182C199.185 104.722 199.574 105.136 200.074 105.426C200.574 105.71 201.159 105.852 201.83 105.852C202.278 105.852 202.685 105.79 203.048 105.665C203.412 105.534 203.727 105.344 203.994 105.094C204.261 104.844 204.463 104.534 204.599 104.165L207.48 104.489C207.298 105.25 206.952 105.915 206.44 106.483C205.935 107.045 205.287 107.483 204.497 107.795C203.707 108.102 202.804 108.256 201.787 108.256ZM213.303 100.33V108H210.218V94.9091H213.167V97.1335H213.32C213.621 96.4006 214.102 95.8182 214.761 95.3864C215.425 94.9545 216.246 94.7386 217.224 94.7386C218.127 94.7386 218.914 94.9318 219.585 95.3182C220.261 95.7045 220.783 96.2642 221.153 96.9972C221.528 97.7301 221.712 98.6193 221.707 99.6648V108H218.621V100.142C218.621 99.267 218.394 98.5824 217.94 98.0881C217.491 97.5937 216.869 97.3466 216.073 97.3466C215.533 97.3466 215.053 97.4659 214.633 97.7045C214.218 97.9375 213.891 98.2756 213.653 98.7188C213.42 99.1619 213.303 99.6989 213.303 100.33ZM231.38 94.9091V97.2955H223.854V94.9091H231.38ZM225.712 91.7727H228.798V104.062C228.798 104.477 228.86 104.795 228.985 105.017C229.116 105.233 229.286 105.381 229.496 105.46C229.707 105.54 229.94 105.58 230.195 105.58C230.388 105.58 230.565 105.565 230.724 105.537C230.888 105.509 231.013 105.483 231.099 105.46L231.619 107.872C231.454 107.929 231.218 107.991 230.911 108.06C230.61 108.128 230.241 108.168 229.803 108.179C229.031 108.202 228.335 108.085 227.715 107.83C227.096 107.568 226.604 107.165 226.241 106.619C225.883 106.074 225.707 105.392 225.712 104.574V91.7727Z" fill="black"/>
<g id="minutes_y_axis">
<path id="0" d="M102.001 368.166C101.3 368.166 100.697 367.989 100.195 367.634C99.6946 367.276 99.3097 366.76 99.0398 366.087C98.7727 365.411 98.6392 364.597 98.6392 363.645C98.642 362.693 98.777 361.884 99.044 361.216C99.3139 360.545 99.6989 360.034 100.199 359.682C100.702 359.33 101.303 359.153 102.001 359.153C102.7 359.153 103.301 359.33 103.804 359.682C104.307 360.034 104.692 360.545 104.959 361.216C105.229 361.886 105.364 362.696 105.364 363.645C105.364 364.599 105.229 365.415 104.959 366.091C104.692 366.764 104.307 367.278 103.804 367.634C103.304 367.989 102.703 368.166 102.001 368.166ZM102.001 366.832C102.547 366.832 102.977 366.564 103.293 366.027C103.611 365.487 103.77 364.693 103.77 363.645C103.77 362.952 103.697 362.369 103.553 361.898C103.408 361.426 103.203 361.071 102.939 360.832C102.675 360.591 102.362 360.47 102.001 360.47C101.459 360.47 101.03 360.74 100.714 361.28C100.399 361.817 100.24 362.605 100.237 363.645C100.234 364.341 100.304 364.926 100.446 365.401C100.591 365.875 100.795 366.233 101.06 366.474C101.324 366.713 101.638 366.832 102.001 366.832Z" fill="black"/>
<path id="30" d="M95.9077 336.119C95.294 336.119 94.7486 336.014 94.2713 335.804C93.7969 335.594 93.4219 335.301 93.1463 334.926C92.8707 334.551 92.7244 334.118 92.7074 333.626H94.3097C94.3239 333.862 94.402 334.068 94.544 334.244C94.6861 334.418 94.875 334.553 95.1108 334.649C95.3466 334.746 95.6108 334.794 95.9034 334.794C96.2159 334.794 96.4929 334.74 96.7344 334.632C96.9759 334.521 97.1648 334.368 97.3011 334.172C97.4375 333.976 97.5043 333.75 97.5014 333.494C97.5043 333.23 97.4361 332.997 97.2969 332.795C97.1577 332.594 96.956 332.436 96.6918 332.322C96.4304 332.209 96.1151 332.152 95.7457 332.152H94.9744V330.933H95.7457C96.0497 330.933 96.3153 330.881 96.5426 330.776C96.7727 330.67 96.9531 330.523 97.0838 330.332C97.2145 330.139 97.2784 329.916 97.2756 329.663C97.2784 329.416 97.223 329.202 97.1094 329.02C96.9986 328.835 96.8409 328.692 96.6364 328.589C96.4347 328.487 96.1974 328.436 95.9247 328.436C95.6577 328.436 95.4105 328.484 95.1832 328.581C94.956 328.678 94.7727 328.815 94.6335 328.994C94.4943 329.17 94.4205 329.381 94.4119 329.625H92.8906C92.902 329.136 93.0426 328.707 93.3125 328.338C93.5852 327.966 93.9489 327.676 94.4034 327.469C94.858 327.259 95.3679 327.153 95.9332 327.153C96.5156 327.153 97.0213 327.263 97.4503 327.482C97.8821 327.697 98.2159 327.989 98.4517 328.355C98.6875 328.722 98.8054 329.126 98.8054 329.57C98.8082 330.061 98.6634 330.473 98.3707 330.805C98.081 331.138 97.7003 331.355 97.2287 331.457V331.526C97.8423 331.611 98.3125 331.838 98.6392 332.207C98.9688 332.574 99.1321 333.03 99.1293 333.575C99.1293 334.064 98.9901 334.501 98.7116 334.888C98.4361 335.271 98.0554 335.572 97.5696 335.791C97.0866 336.01 96.5327 336.119 95.9077 336.119ZM103.818 336.166C103.116 336.166 102.514 335.989 102.011 335.634C101.511 335.276 101.126 334.76 100.856 334.087C100.589 333.411 100.456 332.597 100.456 331.645C100.458 330.693 100.593 329.884 100.86 329.216C101.13 328.545 101.515 328.034 102.015 327.682C102.518 327.33 103.119 327.153 103.818 327.153C104.517 327.153 105.118 327.33 105.62 327.682C106.123 328.034 106.508 328.545 106.775 329.216C107.045 329.886 107.18 330.696 107.18 331.645C107.18 332.599 107.045 333.415 106.775 334.091C106.508 334.764 106.123 335.278 105.62 335.634C105.12 335.989 104.52 336.166 103.818 336.166ZM103.818 334.832C104.363 334.832 104.794 334.564 105.109 334.027C105.427 333.487 105.586 332.693 105.586 331.645C105.586 330.952 105.514 330.369 105.369 329.898C105.224 329.426 105.02 329.071 104.755 328.832C104.491 328.591 104.179 328.47 103.818 328.47C103.275 328.47 102.846 328.74 102.531 329.28C102.216 329.817 102.056 330.605 102.054 331.645C102.051 332.341 102.12 332.926 102.262 333.401C102.407 333.875 102.612 334.233 102.876 334.474C103.14 334.713 103.454 334.832 103.818 334.832Z" fill="black"/>
<path id="60" d="M95.9716 304.119C95.554 304.116 95.1463 304.044 94.7486 303.902C94.3509 303.757 93.9929 303.523 93.6747 303.199C93.3565 302.872 93.1037 302.439 92.9162 301.899C92.7287 301.357 92.6364 300.685 92.6392 299.884C92.6392 299.136 92.7188 298.47 92.8778 297.885C93.0369 297.3 93.2656 296.805 93.5639 296.402C93.8622 295.996 94.2216 295.686 94.642 295.473C95.0653 295.26 95.5384 295.153 96.0611 295.153C96.6094 295.153 97.0952 295.261 97.5185 295.477C97.9446 295.693 98.2884 295.989 98.5497 296.364C98.8111 296.736 98.973 297.156 99.0355 297.625H97.4801C97.4006 297.29 97.2372 297.023 96.9901 296.824C96.7457 296.622 96.4361 296.521 96.0611 296.521C95.456 296.521 94.9901 296.784 94.6634 297.31C94.3395 297.835 94.1761 298.557 94.1733 299.474H94.233C94.3722 299.224 94.5526 299.01 94.7741 298.831C94.9957 298.652 95.2457 298.514 95.5241 298.418C95.8054 298.318 96.1023 298.268 96.4148 298.268C96.9261 298.268 97.3849 298.391 97.7912 298.635C98.2003 298.879 98.5241 299.216 98.7628 299.645C99.0014 300.071 99.1193 300.56 99.1165 301.111C99.1193 301.685 98.9886 302.2 98.7244 302.658C98.4602 303.112 98.0923 303.47 97.6207 303.732C97.1491 303.993 96.5994 304.122 95.9716 304.119ZM95.9631 302.841C96.2727 302.841 96.5497 302.766 96.794 302.615C97.0384 302.464 97.2315 302.261 97.3736 302.006C97.5156 301.75 97.5852 301.463 97.5824 301.145C97.5852 300.832 97.517 300.55 97.3778 300.297C97.2415 300.044 97.0526 299.844 96.8111 299.696C96.5696 299.548 96.294 299.474 95.9844 299.474C95.7543 299.474 95.5398 299.518 95.3409 299.607C95.142 299.695 94.9688 299.817 94.821 299.973C94.6733 300.126 94.5568 300.305 94.4716 300.51C94.3892 300.712 94.3466 300.928 94.3438 301.158C94.3466 301.462 94.4176 301.741 94.5568 301.997C94.696 302.253 94.8878 302.457 95.1321 302.611C95.3764 302.764 95.6534 302.841 95.9631 302.841ZM103.783 304.166C103.081 304.166 102.479 303.989 101.976 303.634C101.476 303.276 101.091 302.76 100.821 302.087C100.554 301.411 100.42 300.597 100.42 299.645C100.423 298.693 100.558 297.884 100.825 297.216C101.095 296.545 101.48 296.034 101.98 295.682C102.483 295.33 103.084 295.153 103.783 295.153C104.482 295.153 105.082 295.33 105.585 295.682C106.088 296.034 106.473 296.545 106.74 297.216C107.01 297.886 107.145 298.696 107.145 299.645C107.145 300.599 107.01 301.415 106.74 302.091C106.473 302.764 106.088 303.278 105.585 303.634C105.085 303.989 104.484 304.166 103.783 304.166ZM103.783 302.832C104.328 302.832 104.759 302.564 105.074 302.027C105.392 301.487 105.551 300.693 105.551 299.645C105.551 298.952 105.479 298.369 105.334 297.898C105.189 297.426 104.984 297.071 104.72 296.832C104.456 296.591 104.143 296.47 103.783 296.47C103.24 296.47 102.811 296.74 102.496 297.28C102.18 297.817 102.021 298.605 102.018 299.645C102.016 300.341 102.085 300.926 102.227 301.401C102.372 301.875 102.577 302.233 102.841 302.474C103.105 302.713 103.419 302.832 103.783 302.832Z" fill="black"/>
<path id="90" d="M95.8054 263.153C96.223 263.156 96.6293 263.23 97.0241 263.375C97.4219 263.517 97.7798 263.75 98.098 264.074C98.4162 264.395 98.669 264.825 98.8565 265.365C99.044 265.905 99.1378 266.572 99.1378 267.368C99.1406 268.118 99.0611 268.788 98.8991 269.379C98.7401 269.967 98.5114 270.464 98.2131 270.871C97.9148 271.277 97.5554 271.587 97.1349 271.8C96.7145 272.013 96.2415 272.119 95.7159 272.119C95.1648 272.119 94.6761 272.011 94.25 271.795C93.8267 271.58 93.4844 271.284 93.223 270.909C92.9616 270.534 92.8011 270.105 92.7415 269.622H94.2969C94.3764 269.969 94.5384 270.244 94.7827 270.449C95.0298 270.651 95.3409 270.751 95.7159 270.751C96.321 270.751 96.7869 270.489 97.1136 269.963C97.4403 269.437 97.6037 268.707 97.6037 267.773H97.544C97.4048 268.023 97.2244 268.239 97.0028 268.42C96.7813 268.599 96.5298 268.737 96.2486 268.834C95.9702 268.93 95.6747 268.979 95.3622 268.979C94.8509 268.979 94.3906 268.857 93.9815 268.612C93.5753 268.368 93.2528 268.033 93.0142 267.607C92.7784 267.18 92.6591 266.693 92.6562 266.145C92.6562 265.577 92.7869 265.067 93.0483 264.615C93.3125 264.161 93.6804 263.803 94.152 263.541C94.6236 263.277 95.1747 263.148 95.8054 263.153ZM95.8097 264.432C95.5028 264.432 95.2259 264.507 94.9787 264.658C94.7344 264.805 94.5412 265.007 94.3991 265.263C94.2599 265.516 94.1903 265.798 94.1903 266.111C94.1932 266.42 94.2628 266.702 94.3991 266.955C94.5384 267.207 94.7273 267.408 94.9659 267.555C95.2074 267.703 95.483 267.777 95.7926 267.777C96.0227 267.777 96.2372 267.733 96.4361 267.645C96.6349 267.557 96.8082 267.435 96.956 267.278C97.1065 267.119 97.223 266.939 97.3054 266.737C97.3906 266.536 97.4318 266.322 97.429 266.098C97.429 265.8 97.358 265.524 97.2159 265.271C97.0767 265.018 96.8849 264.815 96.6406 264.662C96.3991 264.509 96.1222 264.432 95.8097 264.432ZM103.783 272.166C103.081 272.166 102.479 271.989 101.976 271.634C101.476 271.276 101.091 270.76 100.821 270.087C100.554 269.411 100.42 268.597 100.42 267.645C100.423 266.693 100.558 265.884 100.825 265.216C101.095 264.545 101.48 264.034 101.98 263.682C102.483 263.33 103.084 263.153 103.783 263.153C104.482 263.153 105.082 263.33 105.585 263.682C106.088 264.034 106.473 264.545 106.74 265.216C107.01 265.886 107.145 266.696 107.145 267.645C107.145 268.599 107.01 269.415 106.74 270.091C106.473 270.764 106.088 271.278 105.585 271.634C105.085 271.989 104.484 272.166 103.783 272.166ZM103.783 270.832C104.328 270.832 104.759 270.564 105.074 270.027C105.392 269.487 105.551 268.693 105.551 267.645C105.551 266.952 105.479 266.369 105.334 265.898C105.189 265.426 104.984 265.071 104.72 264.832C104.456 264.591 104.143 264.47 103.783 264.47C103.24 264.47 102.811 264.74 102.496 265.28C102.18 265.817 102.021 266.605 102.018 267.645C102.016 268.341 102.085 268.926 102.227 269.401C102.372 269.875 102.577 270.233 102.841 270.474C103.105 270.713 103.419 270.832 103.783 270.832Z" fill="black"/>
<path id="120" d="M92.3253 231.273V240H90.7443V232.811H90.6932L88.652 234.115V232.666L90.821 231.273H92.3253ZM94.5412 240V238.858L97.571 235.888C97.8608 235.595 98.1023 235.335 98.2955 235.108C98.4886 234.881 98.6335 234.661 98.7301 234.447C98.8267 234.234 98.875 234.007 98.875 233.766C98.875 233.49 98.8125 233.254 98.6875 233.058C98.5625 232.859 98.3906 232.706 98.1719 232.598C97.9531 232.49 97.7045 232.436 97.4261 232.436C97.1392 232.436 96.8878 232.496 96.6719 232.615C96.456 232.732 96.2884 232.898 96.169 233.114C96.0526 233.33 95.9943 233.587 95.9943 233.885H94.4901C94.4901 233.331 94.6165 232.849 94.8693 232.44C95.1222 232.031 95.4702 231.714 95.9134 231.49C96.3594 231.266 96.8707 231.153 97.4474 231.153C98.0327 231.153 98.5469 231.263 98.9901 231.482C99.4332 231.7 99.777 232 100.021 232.381C100.268 232.761 100.392 233.196 100.392 233.685C100.392 234.011 100.33 234.332 100.205 234.648C100.08 234.963 99.8594 235.312 99.544 235.696C99.2315 236.08 98.7926 236.544 98.2273 237.089L96.723 238.619V238.679H100.524V240H94.5412ZM105.22 240.166C104.518 240.166 103.916 239.989 103.413 239.634C102.913 239.276 102.528 238.76 102.259 238.087C101.991 237.411 101.858 236.597 101.858 235.645C101.861 234.693 101.996 233.884 102.263 233.216C102.533 232.545 102.918 232.034 103.418 231.682C103.92 231.33 104.521 231.153 105.22 231.153C105.919 231.153 106.52 231.33 107.023 231.682C107.526 232.034 107.911 232.545 108.178 233.216C108.447 233.886 108.582 234.696 108.582 235.645C108.582 236.599 108.447 237.415 108.178 238.091C107.911 238.764 107.526 239.278 107.023 239.634C106.523 239.989 105.922 240.166 105.22 240.166ZM105.22 238.832C105.766 238.832 106.196 238.564 106.511 238.027C106.83 237.487 106.989 236.693 106.989 235.645C106.989 234.952 106.916 234.369 106.771 233.898C106.626 233.426 106.422 233.071 106.158 232.832C105.893 232.591 105.581 232.47 105.22 232.47C104.678 232.47 104.249 232.74 103.933 233.28C103.618 233.817 103.459 234.605 103.456 235.645C103.453 236.341 103.523 236.926 103.665 237.401C103.81 237.875 104.014 238.233 104.278 238.474C104.543 238.713 104.857 238.832 105.22 238.832Z" fill="black"/>
<path id="150" d="M92.3253 199.273V208H90.7443V200.811H90.6932L88.652 202.115V200.666L90.821 199.273H92.3253ZM97.5753 208.119C97.0071 208.119 96.4986 208.013 96.0497 207.8C95.6009 207.584 95.2443 207.288 94.9801 206.913C94.7188 206.538 94.5795 206.109 94.5625 205.626H96.0966C96.125 205.984 96.2798 206.277 96.5611 206.504C96.8423 206.729 97.1804 206.841 97.5753 206.841C97.8849 206.841 98.1605 206.77 98.402 206.628C98.6435 206.486 98.8338 206.288 98.973 206.036C99.1122 205.783 99.1804 205.494 99.1776 205.17C99.1804 204.841 99.1108 204.548 98.9688 204.293C98.8267 204.037 98.6321 203.837 98.3849 203.692C98.1378 203.544 97.8537 203.47 97.5327 203.47C97.2713 203.467 97.0142 203.516 96.7614 203.615C96.5085 203.714 96.3082 203.845 96.1605 204.007L94.733 203.773L95.1889 199.273H100.251V200.594H96.4972L96.2457 202.908H96.2969C96.4588 202.717 96.6875 202.56 96.983 202.435C97.2784 202.307 97.6023 202.243 97.9545 202.243C98.483 202.243 98.9545 202.368 99.3693 202.618C99.7841 202.865 100.111 203.206 100.349 203.641C100.588 204.075 100.707 204.572 100.707 205.132C100.707 205.709 100.574 206.223 100.307 206.675C100.043 207.124 99.6747 207.477 99.2031 207.736C98.7344 207.991 98.1918 208.119 97.5753 208.119ZM105.361 208.166C104.659 208.166 104.057 207.989 103.554 207.634C103.054 207.276 102.669 206.76 102.399 206.087C102.132 205.411 101.999 204.597 101.999 203.645C102.001 202.693 102.136 201.884 102.403 201.216C102.673 200.545 103.058 200.034 103.558 199.682C104.061 199.33 104.662 199.153 105.361 199.153C106.06 199.153 106.661 199.33 107.163 199.682C107.666 200.034 108.051 200.545 108.318 201.216C108.588 201.886 108.723 202.696 108.723 203.645C108.723 204.599 108.588 205.415 108.318 206.091C108.051 206.764 107.666 207.278 107.163 207.634C106.663 207.989 106.063 208.166 105.361 208.166ZM105.361 206.832C105.906 206.832 106.337 206.564 106.652 206.027C106.97 205.487 107.129 204.693 107.129 203.645C107.129 202.952 107.057 202.369 106.912 201.898C106.767 201.426 106.563 201.071 106.298 200.832C106.034 200.591 105.722 200.47 105.361 200.47C104.818 200.47 104.389 200.74 104.074 201.28C103.759 201.817 103.599 202.605 103.597 203.645C103.594 204.341 103.663 204.926 103.805 205.401C103.95 205.875 104.155 206.233 104.419 206.474C104.683 206.713 104.997 206.832 105.361 206.832Z" fill="black"/>
<path id="180" d="M92.3253 167.273V176H90.7443V168.811H90.6932L88.652 170.115V168.666L90.821 167.273H92.3253ZM97.6435 176.119C97.0099 176.119 96.4474 176.013 95.956 175.8C95.4673 175.587 95.0838 175.295 94.8054 174.926C94.5298 174.554 94.3935 174.132 94.3963 173.661C94.3935 173.294 94.473 172.957 94.6349 172.651C94.7969 172.344 95.0156 172.088 95.2912 171.884C95.5696 171.676 95.8793 171.544 96.2202 171.487V171.428C95.7713 171.328 95.4077 171.099 95.1293 170.741C94.8537 170.381 94.7173 169.964 94.7202 169.493C94.7173 169.044 94.8423 168.643 95.0952 168.291C95.348 167.939 95.6946 167.662 96.1349 167.46C96.5753 167.256 97.0781 167.153 97.6435 167.153C98.2031 167.153 98.7017 167.256 99.1392 167.46C99.5795 167.662 99.9261 167.939 100.179 168.291C100.435 168.643 100.562 169.044 100.562 169.493C100.562 169.964 100.422 170.381 100.141 170.741C99.8622 171.099 99.5028 171.328 99.0625 171.428V171.487C99.4034 171.544 99.7102 171.676 99.983 171.884C100.259 172.088 100.477 172.344 100.639 172.651C100.804 172.957 100.886 173.294 100.886 173.661C100.886 174.132 100.747 174.554 100.469 174.926C100.19 175.295 99.8068 175.587 99.3182 175.8C98.8324 176.013 98.2741 176.119 97.6435 176.119ZM97.6435 174.901C97.9702 174.901 98.2543 174.845 98.4957 174.734C98.7372 174.621 98.9247 174.462 99.0582 174.257C99.1918 174.053 99.2599 173.817 99.2628 173.55C99.2599 173.271 99.1875 173.026 99.0455 172.812C98.9063 172.597 98.7145 172.428 98.4702 172.305C98.2287 172.183 97.9531 172.122 97.6435 172.122C97.331 172.122 97.0526 172.183 96.8082 172.305C96.5639 172.428 96.3707 172.597 96.2287 172.812C96.0895 173.026 96.0213 173.271 96.0241 173.55C96.0213 173.817 96.0866 174.053 96.2202 174.257C96.3537 174.459 96.5412 174.616 96.7827 174.73C97.027 174.844 97.3139 174.901 97.6435 174.901ZM97.6435 170.925C97.9105 170.925 98.1463 170.871 98.3509 170.763C98.5582 170.655 98.7216 170.504 98.8409 170.311C98.9602 170.118 99.0213 169.895 99.0241 169.642C99.0213 169.392 98.9616 169.173 98.8452 168.986C98.7287 168.795 98.5668 168.649 98.3594 168.547C98.152 168.442 97.9134 168.389 97.6435 168.389C97.3679 168.389 97.125 168.442 96.9148 168.547C96.7074 168.649 96.5455 168.795 96.429 168.986C96.3153 169.173 96.2599 169.392 96.2628 169.642C96.2599 169.895 96.3168 170.118 96.4332 170.311C96.5526 170.501 96.7159 170.652 96.9233 170.763C97.1335 170.871 97.3736 170.925 97.6435 170.925ZM105.513 176.166C104.811 176.166 104.209 175.989 103.706 175.634C103.206 175.276 102.821 174.76 102.551 174.087C102.284 173.411 102.151 172.597 102.151 171.645C102.154 170.693 102.289 169.884 102.556 169.216C102.826 168.545 103.211 168.034 103.711 167.682C104.213 167.33 104.814 167.153 105.513 167.153C106.212 167.153 106.813 167.33 107.316 167.682C107.819 168.034 108.203 168.545 108.471 169.216C108.74 169.886 108.875 170.696 108.875 171.645C108.875 172.599 108.74 173.415 108.471 174.091C108.203 174.764 107.819 175.278 107.316 175.634C106.816 175.989 106.215 176.166 105.513 176.166ZM105.513 174.832C106.059 174.832 106.489 174.564 106.804 174.027C107.123 173.487 107.282 172.693 107.282 171.645C107.282 170.952 107.209 170.369 107.064 169.898C106.919 169.426 106.715 169.071 106.451 168.832C106.186 168.591 105.874 168.47 105.513 168.47C104.971 168.47 104.542 168.74 104.226 169.28C103.911 169.817 103.752 170.605 103.749 171.645C103.746 172.341 103.816 172.926 103.958 173.401C104.103 173.875 104.307 174.233 104.571 174.474C104.836 174.713 105.15 174.832 105.513 174.832Z" fill="black"/>
</g>
</g>
</svg>
