<svg xmlns="http://www.w3.org/2000/svg" width="497" height="470" fill="none"><path d="M412.189 177.59a161.353 161.353 0 0 1-16.044 7.092s-10.476 4.752-25.468 8.049c-.192-1.486.096-3.121.497-4.527.54-1.897 1.288-3.372 1.358-3.511v-.011s13.351-25.884 39.657-7.092z" fill="#EF5752" stroke="#000" stroke-linecap="round" stroke-linejoin="round"/><path d="M354.515 179.674s-2.149-25.933 21.133-34.489c23.281-8.552 37.033 15.451 37.033 15.451 9.728-22.571 29.22-15.451 29.22-15.451 6.184-21.743 21.988-24.474 28.578-24.634 4.805-10.647 7.167-21.652 6.681-32.432 0 0-9.391 1.267-13.367-7.953-3.977-9.22 7.696-14.88 7.696-14.88-4.858-10.219-12.544-18.786-22.298-25.473 0 0-8.172 3.843-16.125-1.218 0 0-4.335 9.038-16.264 8.135-11.929-.904-10.845-7.232-10.845-7.232S387.7 67.515 370.714 61.187c-16.718-6.221-8.423-22.074-8.15-22.581-.358.277-34.8 27.498-41.417-.011a154.488 154.488 0 0 0-14.473 7.846c-.005.475-.016.951-.027 1.416-1.144 39.065-32.282 32.582-32.282 32.582v-6.756l-.021.021c-.214.225-2.256 2.405-5.11 6.05l-.016.016c-12.87 16.43-42.148 62.561 5.147 93.945 3.538 2.998 7.435 5.703 11.636 8.097 0 0 1.079 2.817 1.133 7.301.074 5.617-1.46 13.864-8.734 22.464a95.064 95.064 0 0 1 16.36-13.052c3.592-2.261 7.419-4.297 11.502-5.5 2.186-.641 4.292-1.085 6.569-.892 6.729.566 13.276 2.346 19.973 3.153m-26.13-118.685a4.243 4.243 0 0 1 4.244 4.239 4.247 4.247 0 0 1-4.244 4.243 4.242 4.242 0 0 1-4.238-4.243 4.238 4.238 0 0 1 4.238-4.239zm109.369 66.814c-2.437 1.411-5.874.038-7.664-3.073-1.796-3.105-1.267-6.761 1.17-8.172 2.443-1.411 5.874-.032 7.664 3.073 1.796 3.106 1.273 6.767-1.17 8.172zm21.582-40.438c-1.272 10.182-15.27 3.122-22.501-1.266 0 0 3.426 19.433-6.767 20.374 0 0-9.284.892-8.252-12.24-1.187 4.875-3.153 10.171-6.841 13.79-4.581 4.495-11.572 4.377-17.007 1.416-.251 1.187-.695 2.218-1.374 3.052-7.247 8.904-13.992-5.596-13.992-5.596s-4.704-9.54-9.156-6.996c-3.287 1.876-2.693 8.049-2.154 11.154.364 2.106.225 4.276-.502 6.286-.823 2.26-2.411 4.58-5.484 4.82-2.282.177-4.623-1.181-6.151-2.512v2.988s-.209 12.042-6.056 11.694c-5.847-.347-7.376-8.284-7.376-8.284l-1.881-8.974-12.945 1.737v7.857s.278 12.539-6.334 12.817c-3.308.139-5.483-3.309-6.83-6.788-1.272-3.287-1.871-6.799-1.871-10.326v-26.366c0-2.859.503-5.708 1.582-8.353 1.171-2.854 3.084-5.725 6.077-5.8 5.986-.138 5.842 9.958 5.842 9.958l.321 9.294 13.527-.54-.043-6.392c-.021-3.014.54-6.018 1.769-8.765 1.305-2.924 3.426-5.847 6.697-5.847 3.966 0 5.885 5.713 6.783 10.219.219-3.971 1.764-23.816 10.957-25.874 4.96-1.112 9.193 2.427 11.822 4.784a21.304 21.304 0 0 1 3.084 3.463s3.667-14.607 17.023-15.243c13.356-.636 14.372 18.188 8.904 19.588-5.077 1.299-10.561-2.229-11.314-2.736.94.69 9.032 6.985 7.664 18.845.299-2.314 2.464-15.83 11.662-13.046a5.624 5.624 0 0 1 1.571.748l-2.581-20.502s-1.449-15.66 5.462-15.66c4.169 0 6.334 9.166 7.397 16.445 0 0 5.153-19.733 16.43-15.35 11.272 4.388-7.05 27.723-7.05 27.723s21.614.626 19.888 14.404z" fill="#EF5752"/><path d="M354.515 179.674s-2.149-25.933 21.133-34.489c23.281-8.552 37.033 15.451 37.033 15.451 9.728-22.571 29.22-15.451 29.22-15.451 6.184-21.743 21.988-24.474 28.578-24.634 4.805-10.647 7.167-21.652 6.681-32.432 0 0-9.391 1.267-13.367-7.953-3.977-9.22 7.696-14.88 7.696-14.88-4.858-10.219-12.544-18.786-22.298-25.473 0 0-8.172 3.843-16.125-1.218 0 0-4.335 9.038-16.264 8.135-11.929-.904-10.845-7.232-10.845-7.232S387.7 67.515 370.714 61.187c-16.718-6.221-8.423-22.074-8.15-22.581-.358.277-34.8 27.498-41.417-.011a154.488 154.488 0 0 0-14.473 7.846c-.005.475-.016.951-.027 1.416-1.144 39.065-32.282 32.582-32.282 32.582v-6.756l-.021.021c-.214.225-2.256 2.405-5.11 6.05l-.016.016c-12.87 16.43-42.148 62.561 5.147 93.945 3.538 2.998 7.435 5.703 11.636 8.097 0 0 1.079 2.817 1.133 7.301.074 5.617-1.46 13.864-8.734 22.464a95.064 95.064 0 0 1 16.36-13.052c3.592-2.261 7.419-4.297 11.502-5.5 2.186-.641 4.292-1.085 6.569-.892 6.729.566 13.276 2.346 19.973 3.153m-26.13-118.685a4.243 4.243 0 0 1 4.244 4.239 4.247 4.247 0 0 1-4.244 4.243 4.242 4.242 0 0 1-4.238-4.243 4.238 4.238 0 0 1 4.238-4.239zm109.369 66.814c-2.437 1.411-5.874.038-7.664-3.073-1.796-3.105-1.267-6.761 1.17-8.172 2.443-1.411 5.874-.032 7.664 3.073 1.796 3.106 1.273 6.767-1.17 8.172zm21.582-40.438c-1.272 10.182-15.27 3.122-22.501-1.266 0 0 3.426 19.433-6.767 20.374 0 0-9.284.892-8.252-12.24-1.187 4.875-3.153 10.171-6.841 13.79-4.581 4.495-11.572 4.377-17.007 1.416-.251 1.187-.695 2.218-1.374 3.052-7.247 8.904-13.992-5.596-13.992-5.596s-4.704-9.54-9.156-6.996c-3.287 1.876-2.693 8.049-2.154 11.154.364 2.106.225 4.276-.502 6.286-.823 2.26-2.411 4.58-5.484 4.82-2.282.177-4.623-1.181-6.151-2.512v2.988s-.209 12.042-6.056 11.694c-5.847-.347-7.376-8.284-7.376-8.284l-1.881-8.974-12.945 1.737v7.857s.278 12.539-6.334 12.817c-3.308.139-5.483-3.309-6.83-6.788-1.272-3.287-1.871-6.799-1.871-10.326v-26.366c0-2.859.503-5.708 1.582-8.353 1.171-2.854 3.084-5.725 6.077-5.8 5.986-.138 5.842 9.958 5.842 9.958l.321 9.294 13.527-.54-.043-6.392c-.021-3.014.54-6.018 1.769-8.765 1.305-2.924 3.426-5.847 6.697-5.847 3.966 0 5.885 5.713 6.783 10.219.219-3.971 1.764-23.816 10.957-25.874 4.96-1.112 9.193 2.427 11.822 4.784a21.304 21.304 0 0 1 3.084 3.463s3.667-14.607 17.023-15.243c13.356-.636 14.372 18.188 8.904 19.588-5.077 1.299-10.561-2.229-11.314-2.736.94.69 9.032 6.985 7.664 18.845.299-2.314 2.464-15.83 11.662-13.046a5.624 5.624 0 0 1 1.571.748l-2.581-20.502s-1.449-15.66 5.462-15.66c4.169 0 6.334 9.166 7.397 16.445 0 0 5.153-19.733 16.43-15.35 11.272 4.388-7.05 27.723-7.05 27.723s21.614.626 19.888 14.404z" stroke="#000" stroke-linecap="round" stroke-linejoin="round"/><path d="M269.469 79.471l4.875-5.767.021-.021c8.637-10.144 19.562-19.439 32.309-27.242-.005.475-.016.951-.027 1.416-.999 34.18-24.57 33.8-30.449 33.17a15.542 15.542 0 0 1-2.095-.38l-4.634-1.176zm179.722-39.658s-8.172 3.843-16.125-1.218c0 0-4.335 9.038-16.264 8.135-11.929-.904-10.845-7.232-10.845-7.232S387.7 67.515 370.714 61.187c-16.718-6.221-8.423-22.074-8.15-22.581-.358.277-34.8 27.498-41.417-.011a163.46 163.46 0 0 1 16.97-6.922c9.476-3.26 18.963-5.574 28.284-6.985 0 0 1.24 38.941 39.011 1.62 0 0 8.365 15.713 23.25 3.2 7.525 2.662 14.431 6.115 20.529 10.305z" fill="#FDA600" stroke="#000" stroke-linecap="round" stroke-linejoin="round"/><path d="M428.662 29.509c-14.885 12.512-23.25-3.202-23.25-3.202-37.771 37.322-39.011-1.62-39.011-1.62 22.603-3.43 44.217-1.57 62.261 4.822z" fill="#EF5752" stroke="#000" stroke-linecap="round" stroke-linejoin="round"/><path d="M477.16 88.119s-9.391 1.267-13.367-7.953c-3.977-9.22 7.696-14.88 7.696-14.88a57.561 57.561 0 0 1 2.507 6.125 59.066 59.066 0 0 1 3.164 16.708z" fill="#FDA600" stroke="#000" stroke-linecap="round" stroke-linejoin="round"/><path d="M337.443 111.967v26.28s-.208 12.042-6.055 11.694c-5.847-.347-7.376-8.284-7.376-8.284l-1.881-8.974-12.945 1.737v7.857s.278 12.539-6.334 12.817c-3.308.139-5.483-3.309-6.83-6.788-1.272-3.287-1.871-6.799-1.871-10.326v-26.366c0-2.859.503-5.708 1.582-8.353 1.171-2.854 3.084-5.725 6.077-5.8 5.986-.138 5.842 9.958 5.842 9.958l.321 9.294 13.527-.54-.043-6.392c-.021-3.014.54-6.018 1.769-8.765 1.305-2.924 3.426-5.847 6.697-5.847 3.966 0 5.885 5.713 6.783 10.219.278 1.389.454 2.667.566 3.624.118.978.171 1.966.171 2.955z" fill="#9F9FF9" stroke="#000" stroke-linecap="round" stroke-linejoin="round"/><path d="M309.186 134.42v-2.298m12.314-15.954v3.218" stroke="#000" stroke-linecap="round" stroke-linejoin="round"/><path d="M376.257 125.051c-.251 1.187-.695 2.218-1.374 3.052-7.247 8.904-13.992-5.596-13.992-5.596s-4.704-9.54-9.156-6.996c-3.287 1.876-2.693 8.049-2.154 11.154.364 2.106.225 4.276-.502 6.286-.823 2.26-2.41 4.58-5.484 4.82-2.282.177-4.623-1.181-6.151-2.512v-23.292c0-.989-.054-1.977-.172-2.955a45.691 45.691 0 0 0-.566-3.624c.219-3.971 1.764-23.816 10.957-25.874 4.96-1.112 9.193 2.427 11.822 4.784a21.304 21.304 0 0 1 3.084 3.463c.422.588.812 1.192 1.181 1.817 3.544 6.05 14.527 25.831 12.507 35.473z" fill="#9F9FF9" stroke="#000" stroke-linecap="round" stroke-linejoin="round"/><path d="M336.706 105.388c-.027.443-.032.689-.032.689m9.081 1.417l8.268-11.572" stroke="#000" stroke-linecap="round" stroke-linejoin="round"/><path d="M400.105 109.845c-1.187 4.875-3.153 10.171-6.841 13.79-4.581 4.495-11.572 4.377-17.007 1.416 2.02-9.642-8.963-29.423-12.507-35.473a24.166 24.166 0 0 0-1.181-1.817s3.666-14.607 17.023-15.243c13.356-.636 14.372 18.188 8.904 19.588-5.077 1.299-10.561-2.229-11.315-2.736.941.69 9.033 6.985 7.665 18.845.299-2.314 2.464-15.83 11.662-13.046a5.624 5.624 0 0 1 1.571.748c3.966 2.72 2.977 10.005 2.026 13.928z" fill="#9F9FF9" stroke="#000" stroke-linecap="round" stroke-linejoin="round"/><path d="M384.846 108.215c-.006.032-.006.059-.011.091m-7.653-18.936s-.049-.038-.065-.043" stroke="#000" stroke-linecap="round" stroke-linejoin="round"/><path d="M384.846 108.215c-.005.032-.005.059-.011.091 0 .027-.005.053-.011.086l-.016.155m-7.626-19.177s-.049-.038-.065-.043c-.005 0-.01-.01-.016-.01-.005-.011-.01-.011-.01-.011m32.191-4.335s-.225-3.977-.925-8.77m-10.278 19.721v-.005" stroke="#000" stroke-linecap="round" stroke-linejoin="round"/><path d="M437.625 102.977c-1.272 10.182-15.27 3.122-22.501-1.266 0 0 3.426 19.433-6.767 20.374 0 0-9.283.892-8.252-12.24.951-3.923 1.94-11.208-2.026-13.928l-2.581-20.502s-1.449-15.66 5.462-15.66c4.169 0 6.334 9.166 7.397 16.445 0 0 5.153-19.733 16.43-15.35 11.272 4.388-7.05 27.723-7.05 27.723s21.614.626 19.888 14.404z" fill="#9F9FF9" stroke="#000" stroke-linecap="round" stroke-linejoin="round"/><path d="M415.124 101.711c-2.56-1.556-4.276-2.774-4.276-2.774" stroke="#000" stroke-linecap="round" stroke-linejoin="round"/><path d="M441.035 158.456c-8.423 7.194-18.108 13.671-28.846 19.128.129-.459 6.083-21.186 28.846-19.128z" fill="#EF5752" stroke="#000" stroke-linecap="round" stroke-linejoin="round"/><path d="M335.113 185.649c1.021-2.8 2.512-5.366 5.185-6.857 2.629-1.464 5.756-1.577 8.658-1.021 1.897.364 3.848.978 5.559 1.898 0 0-2.149-25.933 21.133-34.49 23.281-8.551 37.033 15.452 37.033 15.452 9.728-22.571 29.22-15.452 29.22-15.452 6.184-21.742 21.988-24.473 28.578-24.634-6.125 13.603-16.227 26.633-29.444 37.905-22.763-2.058-28.717 18.669-28.846 19.134-26.306-18.792-39.652 7.093-39.657 7.103-.07.139-.818 1.615-1.358 3.512-.401 1.406-.689 3.041-.497 4.527 0 0-14.987 4.473-37.873 2.555.171-.091.257-1.294.289-1.475.171-.893.342-1.786.508-2.678a35.59 35.59 0 0 1 1.507-5.484l.005.005z" fill="#FDA600" stroke="#000" stroke-linecap="round" stroke-linejoin="round"/><path d="M441.046 158.456h-.011" stroke="#000" stroke-linecap="round" stroke-linejoin="round"/><path d="M416.043 143.415c-2.437 1.412-5.874.038-7.664-3.073-1.796-3.105-1.267-6.761 1.17-8.172 2.443-1.411 5.874-.032 7.665 3.073 1.795 3.106 1.272 6.767-1.171 8.172z" fill="#FDA600" stroke="#000" stroke-linecap="round" stroke-linejoin="round"/><path d="M362.569 38.595l-.005.01" stroke="#000" stroke-linecap="round" stroke-linejoin="round"/><path d="M310.918 80.84a4.247 4.247 0 0 1-4.244 4.243 4.242 4.242 0 0 1-4.238-4.243 4.238 4.238 0 0 1 4.238-4.239 4.243 4.243 0 0 1 4.244 4.239z" fill="#FDA600" stroke="#000" stroke-linecap="round" stroke-linejoin="round"/><path d="M473.996 71.411s-8.429 67.264-39.749 92.48c0 0 55.104-36.996 39.749-92.48z" fill="#000" stroke="#000" stroke-linecap="round" stroke-linejoin="round"/><path d="M465.385 168.071c-2.586-5.986-6.9-9.621-14.211-9.161 5.74-2.71 8.829-7.419 9.155-14.212 2.122 5.944 6.275 9.642 14.217 9.161-7.06 2.881-9.583 7.868-9.161 14.212zm23.651-1.775c-1.593-3.688-4.249-5.932-8.76-5.649 3.538-1.668 5.446-4.57 5.644-8.76 1.309 3.666 3.869 5.943 8.76 5.649-4.345 1.775-5.901 4.848-5.644 8.76z" fill="#F6D54A" stroke="#000" stroke-linecap="round" stroke-linejoin="round"/><path d="M35.296 233.704l4.644 11.085-11.074-6.702-4.089 8.626-1.945-10.925-11.71 3.004 6.91-8.397-8.893-4.083 11.314-2.181-2.068-9.059 7.953 5.227 5.125-10.117 1.518 10.299 8.91-3.036-4.901 9.166 7.557 1.128-9.251 5.965z" fill="#FDA600" stroke="#000" stroke-linecap="round" stroke-linejoin="round"/><path d="M157.711 338.215c-3.629.176-6.371-1.679-8.487-4.666a71.469 71.469 0 0 1 2.811-2.315c-.235.155-1.384.92-3.111 1.876-5.141-7.728-6.477-22.266-8.198-29.625-2.4-10.236-8.039-11.721-8.263-11.78 4.938-3.501 10.534-6.392 16.611-7.782 5.072-1.16 10.198-1.662 15.115-1.737-8.188 2.854-3.886 19.668-3.886 19.668s10.278 35.73-2.592 36.361z" fill="#004AA5" stroke="#000" stroke-linecap="round" stroke-linejoin="round"/><path d="M148.924 333.11a46.631 46.631 0 0 1-5.905 2.769c-2.844-15.163-10.524-33.02-20.268-35.874 2.849-2.865 6.104-5.74 9.706-8.3h.006c.224.059 5.863 1.544 8.263 11.78 1.721 7.359 3.057 21.897 8.198 29.625z" fill="#77A0B6" stroke="#000" stroke-linecap="round" stroke-linejoin="round"/><path d="M143.019 335.879c-3.801 1.459-8.242 2.496-12.186 1.689-.011 0-.016-.005-.027-.005-.973-11.39-6.831-16.163-8.065-17.05.935-7.387 3.709-14.436 3.81-14.698-.235.299-7.103 9.038-16.563 10.513 1.251-2.068 5.911-9.428 12.763-16.323 9.744 2.854 17.424 20.711 20.268 35.874z" fill="#FDA600" stroke="#000" stroke-linecap="round" stroke-linejoin="round"/><path d="M224.964 179.407s-.006-.027-.022-.08" stroke="#000" stroke-linecap="round" stroke-linejoin="round"/><path d="M152.008 204.431a3.085 3.085 0 0 1-4.623.919l-4.014-2.849-.069-.224a36.536 36.536 0 0 1-1.091-4.426l7.884 2.112c1.935.513 2.875 2.709 1.913 4.468z" fill="#EF5752" stroke="#000" stroke-linecap="round" stroke-linejoin="round"/><path d="M357.887 401.945c-8.054 11.347-19.519 4.746-28.621-.267-9.102-5.014-25.334-4.752-28.894 5.943-3.564 10.7-10.293 16.724-10.293 16.724h-7.515s2.357-.529 1.08-4.853c-1.278-4.329-7.376-6.788-11.802-11.406-4.42-4.623-12.779-14.457-12.779-14.457s-6.194-7.376-12.197-5.014c0 0-3.442-5.312-9.438-4.623-2.972.337-5.388 2.085-7.066 3.752-.444-.508-2.972-3.094-7.584-2.474-1.171.16-2.272.566-3.303 1.159 0 0-1.716-2.437-6.04-.47-4.329 1.967-14.062 12.982-19.273 14.751a139.278 139.278 0 0 1-5.195 1.652c-2.87.86-4.933 1.395-4.933 1.395s-3.549.577-5.222 2.865c-.823 1.117-1.192 2.64-.481 4.708 2.159 6.291 8.958 6.232 16.424 4.741-1.555 1.406-2.586 3.095-2.362 5.19.112 1.047.39 2.116.893 3.084h-41.427l-21.155-49.049c.032-.16.765-3.335 5.89-5.997 6.168 16.35 18.488 31.737 41.363 26.206 38.792-9.38-2.961-54.201 13.672-75.585.561.101 1.149.197 1.747.278 31.823 4.366 54.768-41.919 55.105-42.614a124.78 124.78 0 0 1 3.858-.967h.006c3.768-.888 7.846-1.695 12.004-2.256-.096.321-3.324 10.556-9.674 20.182-6.451 9.775-12.271 21.731-5.35 29.444 4.094 4.559 10.262 3.046 15.003.492 5.077-2.742 10-5.783 14.719-9.102 4.463-3.138 9.54-5.457 15.131-5.351 5.216.102 10.871 2.08 12.94 7.243 2.57 6.419 1.239 14.008.871 20.684-.342 6.178 1.133 10.78 6.093 14.789 6.055 4.895 14.227 5.986 21.518 3.458 2.731-.946 5.291-2.341 7.648-4.004 7.044 17.087 13.698 36.291 14.634 49.749h.005z" fill="#004AA5" stroke="#000" stroke-linecap="round" stroke-linejoin="round"/><path d="M343.253 352.196c-2.357 1.663-4.917 3.058-7.648 4.004-7.29 2.528-15.462 1.437-21.518-3.458-4.96-4.009-6.435-8.611-6.093-14.789.369-6.676 1.7-14.265-.871-20.684-2.069-5.163-7.723-7.141-12.94-7.242-5.59-.107-10.668 2.212-15.131 5.35a147.033 147.033 0 0 1-14.719 9.102c-4.741 2.554-10.909 4.067-15.003-.492-6.921-7.713-1.101-19.669 5.35-29.444 6.35-9.626 9.578-19.861 9.674-20.182h.006c3.736-.513 7.541-.823 11.245-.823-5.665 5.564-13.217 22.758-8.022 28.263 5.002 5.307 13.345-.673 18.172-3.041 10.096-4.949 24.35-5.698 30.112 5.932 1.887 3.817 2.635 8.124 2.752 12.347.081 2.891-.267 5.729.081 8.621.555 4.543 2.025 9.861 5.873 12.736 3.122 2.341 9.332 3.132 13.507 1.737a492.818 492.818 0 0 1 4.564 10.594c.203.486.406.978.609 1.469z" fill="#FDA600" stroke="#000" stroke-linecap="round" stroke-linejoin="round"/><path d="M338.08 340.133c-4.175 1.395-10.385.604-13.507-1.737-3.848-2.875-5.318-8.193-5.873-12.736-.348-2.892 0-5.73-.081-8.621-.117-4.223-.865-8.53-2.752-12.347-5.762-11.63-20.016-10.881-30.112-5.932-4.827 2.368-13.17 8.348-18.172 3.041-5.195-5.505 2.357-22.699 8.022-28.263 3.565 0 7.034.283 10.267.968-.689.908-4.078 5.852-.668 10.801 3.774 5.484 17.365-2.271 17.365-2.271 4.944 4.094 9.23 9.075 12.71 13.81a111.44 111.44 0 0 1 5.291 7.905c.006.006.011.016.016.022 3.089 5.061 4.778 8.685 4.778 8.685s5.815 11.176 12.534 26.269c.059.134.117.267.182.406z" fill="#77A0B6" stroke="#000" stroke-linecap="round" stroke-linejoin="round"/><path d="M302.569 283.036s-13.591 7.755-17.365 2.271c-3.41-4.949-.021-9.893.668-10.802 1.577.327 3.095.749 4.538 1.278 4.377 1.603 8.455 4.179 12.159 7.253z" fill="#004AA5" stroke="#000" stroke-linecap="round" stroke-linejoin="round"/><path d="M357.689 409.535s-.721 5.841-2.469 10.309c-2.678-.486-11.919-2.282-22.127-5.499-11.983-3.779-22.127-.022-26.702 10h-16.312s6.729-6.024 10.293-16.724c3.56-10.695 19.792-10.957 28.894-5.943 9.102 5.013 20.567 11.614 28.621.267.203 2.801.15 5.355-.198 7.59z" fill="#FDA600" stroke="#000" stroke-linecap="round" stroke-linejoin="round"/><path d="M355.22 419.845c-.775 1.977-1.753 3.687-2.956 4.5h-45.873c4.575-10.022 14.719-13.779 26.702-10 10.208 3.217 19.449 5.013 22.127 5.5zm79.492 34.003H38.972v14.917h395.74v-14.917z" fill="#004AA5" stroke="#000" stroke-linecap="round" stroke-linejoin="round"/><path d="M434.712 424.345v29.503H38.972v-29.503h4.672l5.853 13.57H230.66v-6.644c1.684-.438 3.196-1.298 4.308-2.538 1.058-1.181 1.93-2.699 2.758-4.388h138.476l1.476 11.181h31.218l1.475-11.181h24.34z" fill="#9F9FF9" stroke="#000" stroke-linecap="round" stroke-linejoin="round"/><path d="M414.445 393.442l-4.073 30.903h-34.169l-4.072-30.903h42.314z" fill="#fff" stroke="#000" stroke-linecap="round" stroke-linejoin="round"/><path d="M410.372 424.345l-1.475 11.181h-31.218l-1.476-11.181h34.169zm5.885-44.623l-1.807 13.72h-42.319l-1.812-13.72h45.938z" fill="#77A0B6" stroke="#000" stroke-linecap="round" stroke-linejoin="round"/><path d="M370.319 379.722v-9.605h45.938v9.605" fill="#fff"/><path d="M370.319 379.722v-9.605h45.938v9.605" stroke="#000" stroke-linecap="round" stroke-linejoin="round"/><path d="M157.711 437.915h-10.176l-44.067-102.186h10.176l17.06 39.562 21.155 49.054 5.852 13.57z" fill="#C1BFC0" stroke="#000" stroke-linecap="round" stroke-linejoin="round"/><path d="M103.468 335.729H5.429l38.215 88.616 5.853 13.57h98.038l-44.067-102.186zm-33.49 53.047c-8.605 7.391-20.77 7.354-27.168-.091-6.397-7.445-4.612-19.476 3.987-26.868 8.606-7.397 20.77-7.36 27.168.085 6.403 7.446 4.612 19.477-3.987 26.874zM83.6 419.604l9.957-29.781 29.776 9.957-9.957 29.781-29.776-9.957z" fill="#E0E0E0" stroke="#000" stroke-linecap="round" stroke-linejoin="round"/><path d="M69.978 388.776c-8.605 7.391-20.77 7.354-27.168-.091-6.397-7.445-4.612-19.476 3.987-26.868 8.606-7.397 20.77-7.36 27.168.085 6.403 7.446 4.612 19.477-3.987 26.874z" fill="#9F9FF9" stroke="#000" stroke-linecap="round" stroke-linejoin="round"/><path d="M93.582 389.859l-9.958 29.78 29.774 9.956 9.959-29.779-29.775-9.957z" fill="#F6D54A" stroke="#000" stroke-linecap="round" stroke-linejoin="round"/><path d="M246.866 388.615c-5.996 2.357-8.941 6.981-10.026 9.835-1.085 2.848-2.854 12.095-7.376 15.633a401.63 401.63 0 0 0-2.929 2.303 572.552 572.552 0 0 0-5.232 4.185s-2.721 1.401-2.988 3.79c-.118 1.074.257 2.346 1.603 3.784-4.441 1.63-8.872 1.924-11.999-1.571-.272-.3-.529-.631-.78-.989-.85-1.224-1.047-2.384-.876-3.426 0 0 3.442 3.132 7.145-1.983 0 0 1.925-3.314 0-5.179a48.566 48.566 0 0 0 3.763-3.079c3.538-3.244 10.524-20.844 10.524-20.844s.951-1.63 2.667-3.33c1.678-1.667 4.094-3.415 7.066-3.752 5.996-.689 9.438 4.623 9.438 4.623z" fill="#BC5326" stroke="#000" stroke-linecap="round" stroke-linejoin="round"/><path d="M219.918 428.145c-4.441 1.63-8.872 1.924-11.999-1.571-8.706 3.271-12.934 1.074-14.633-2.229h-41.427l5.852 13.57h72.95v-6.644c-3.527.925-7.808.006-10.743-3.126zm-57.012 5.323l-2.678-5.28h19.397l2.864 5.28h-19.583z" fill="#C1BFC0" stroke="#000" stroke-linecap="round" stroke-linejoin="round"/><path d="M207.925 426.574h-.006" stroke="#000" stroke-linecap="round" stroke-linejoin="round"/><path d="M213.408 420.176c-3.703 5.115-7.145 1.983-7.145 1.983.449-2.795 3.532-4.736 3.532-4.736s1.561-.919 3.613-2.426c1.925 1.865 0 5.179 0 5.179z" fill="#000" stroke="#000" stroke-linecap="round" stroke-linejoin="round"/><path d="M230.362 387.744c-1.716 1.7-2.667 3.33-2.667 3.33s-6.986 17.6-10.524 20.844a47.059 47.059 0 0 1-3.763 3.073c-2.052 1.513-3.613 2.432-3.613 2.432s-3.083 1.94-3.532 4.736c-.171 1.042.026 2.202.876 3.426.251.358.508.689.78.989-8.706 3.27-12.934 1.074-14.633-2.229-.503-.968-.781-2.037-.893-3.084 0 0 4.26 2.694 7.301-2.571 3.041-5.264.379-5.986.379-5.986.465-.241.925-.465 1.363-.684 3.934-1.967 8.263-12.095 10.326-16.328 1.593-3.261 4.239-7.28 7.713-9.263 1.031-.593 2.132-.999 3.303-1.16 4.612-.619 7.14 1.967 7.584 2.475z" fill="#BC5326" stroke="#000" stroke-linecap="round" stroke-linejoin="round"/><path d="M230.437 387.83l-.075-.086" stroke="#000" stroke-linecap="round" stroke-linejoin="round"/><path d="M199.694 418.69c-3.041 5.265-7.301 2.571-7.301 2.571-.224-2.095.807-3.784 2.362-5.19h.006c1.496-1.352 3.479-2.437 5.312-3.367 0 0 2.662.722-.379 5.986zm-13.645-9.786c-4.971 1.705-7.237-2.282-7.237-2.282 1.673-2.288 5.222-2.865 5.222-2.865s2.063-.535 4.933-1.395c0 0 2.047 4.837-2.918 6.542z" fill="#000" stroke="#000" stroke-linecap="round" stroke-linejoin="round"/><path d="M219.475 386.429c-3.474 1.983-6.12 6.002-7.713 9.263-2.063 4.233-6.392 14.361-10.326 16.328-.438.219-.898.443-1.363.684-1.833.93-3.816 2.015-5.312 3.367h-.006c-7.466 1.491-14.265 1.55-16.424-4.741-.711-2.068-.342-3.591.481-4.708 0 0 2.266 3.987 7.237 2.282 4.965-1.705 2.918-6.542 2.918-6.542a139.278 139.278 0 0 0 5.195-1.652c5.211-1.769 14.944-12.784 19.273-14.751 4.324-1.967 6.04.47 6.04.47z" fill="#BC5326" stroke="#000" stroke-linecap="round" stroke-linejoin="round"/><path d="M226.535 421.288c-3.698 5.761-7.894 3.276-8.22 3.073.267-2.389 2.988-3.79 2.988-3.79s2.164-1.758 5.232-4.185c2.079 2.144 0 4.902 0 4.902z" fill="#000" stroke="#000" stroke-linecap="round" stroke-linejoin="round"/><path d="M282.564 424.345h-44.837c-.828 1.689-1.7 3.207-2.758 4.388-1.112 1.24-2.624 2.1-4.308 2.539-3.527.924-7.808.005-10.743-3.127-1.347-1.438-1.721-2.71-1.603-3.784.326.203 4.522 2.688 8.22-3.073 0 0 2.079-2.758 0-4.902a401.63 401.63 0 0 1 2.929-2.303c4.522-3.538 6.291-12.785 7.376-15.633 1.085-2.854 4.03-7.478 10.026-9.835 6.003-2.362 12.197 5.014 12.197 5.014s8.359 9.834 12.779 14.457c4.426 4.618 10.524 7.077 11.801 11.406 1.278 4.324-1.079 4.853-1.079 4.853z" fill="#BC5326" stroke="#000" stroke-linecap="round" stroke-linejoin="round"/><path d="M218.315 424.361l-.021-.016m40.769-30.716s10.652 2.207 21.427-3.047 17.782-9.027 28.423-8.888c10.642.139 27.478 5.254 27.478 5.254m-38.092-3.945s-20.503-28.658-20.636-42.533" stroke="#000" stroke-linecap="round" stroke-linejoin="round"/><path d="M177.957 395.505c-22.875 5.531-35.195-9.856-41.363-26.206.022-.01.048-.026.07-.037 3.11-1.603 7.819-3.014 14.943-3.469 3.325 6.398 7.483 10.845 12.288 10.626 10.604-.492 11.748-14.688 9.786-36.713-1.929-21.727 4.11-27.119 4.271-27.258 2.351 3.447 6.595 6.2 13.677 7.472-16.633 21.384 25.12 66.205-13.672 75.585z" fill="#FDA600" stroke="#000" stroke-linecap="round" stroke-linejoin="round"/><path d="M177.952 312.448c-.161.139-6.2 5.531-4.271 27.258 1.962 22.025.818 36.221-9.786 36.713-4.805.219-8.963-4.228-12.288-10.626a67.668 67.668 0 0 1 1.583-.085c-.155 0-.754 0-1.652-.048-3.971-7.702-6.745-18.172-8.001-26.713a83.27 83.27 0 0 1 5.687-5.398c2.116 2.987 4.858 4.842 8.487 4.666 12.87-.631 2.592-36.361 2.592-36.361s-4.302-16.814 3.886-19.668h.005c6.532-.102 12.683.55 17.83 1.4 0 0-11.528 17.932-4.072 28.862z" fill="#77A0B6" stroke="#000" stroke-linecap="round" stroke-linejoin="round"/><path d="M151.607 365.793c-7.124.455-11.833 1.866-14.943 3.469l-.07.038c-5.125 2.661-5.858 5.836-5.89 5.991l-17.06-39.562H12.613s8.7-2.677 8.7-12.945c0-10.267-7.647-22.773-7.84-23.1.289.214 12.085 8.921 20.818 4.132 7.295-3.998 8.765-8.974 9.054-10.588a8.48 8.48 0 0 0 .732-.112c2.08-.39 3.987-1.336 5.746-2.507a128.85 128.85 0 0 0 4.147-2.907s5.559 13.121 17.68 14.259c12.122 1.139 20.823-20.962 20.823-20.962s-1.854 32.085 10.995 35.099c2.266.535 4.457.556 6.52.23 9.46-1.475 16.328-10.214 16.563-10.513-.101.262-2.875 7.311-3.81 14.698-.759 6.018-.3 12.25 3.816 15.216 1.304.936 2.736 1.524 4.249 1.834.011 0 .016.005.027.005 3.944.807 8.385-.23 12.186-1.689a46.631 46.631 0 0 0 5.905-2.769c.097.15.198.3.3.439a83.518 83.518 0 0 0-5.687 5.398c-4.345 4.543-8.851 10.443-9.562 15.922-1.176 9.048 12.651 10.545 17.563 10.791l.069.133z" fill="#fff" stroke="#000" stroke-linecap="round" stroke-linejoin="round"/><path d="M126.557 305.809h-.006" stroke="#000" stroke-linecap="round" stroke-linejoin="round"/><path d="M151.538 365.66c-4.912-.246-18.739-1.743-17.563-10.791.711-5.479 5.217-11.379 9.562-15.922 1.256 8.541 4.03 19.011 8.001 26.713z" fill="#FDA600" stroke="#000" stroke-linecap="round" stroke-linejoin="round"/><path d="M152.083 331.197s-.016.011-.048.037m1.192 34.474h-.037M13.473 299.684h-.005m272.522-25.328s-.043.053-.118.15m72.02 127.434s0 .005-.005.005m-165.815-82.576c-.155.182-.299.364-.443.551m-55.035 49.379c-.059-.149-.112-.304-.171-.454" stroke="#000" stroke-linecap="round" stroke-linejoin="round"/><path d="M130.806 337.562c-1.513-.309-2.945-.897-4.249-1.833-4.116-2.966-4.575-9.198-3.816-15.216 1.234.887 7.092 5.66 8.065 17.049z" fill="#004AA5" stroke="#000" stroke-linecap="round" stroke-linejoin="round"/><path d="M177.957 312.442h-.005m7.295-140.897s0 .01-.005.037m-21.571 1.262s.005-.038.01-.049v-.016s.006-.016.006-.021c.005-.016.005-.027.005-.027m-8.76 38.728c-.93-1.849-2.298-2.79-2.298-2.79m-2.293 11.726c-.684.049-1.935.348-2.25 1.791M403.707 372.79h5.559" stroke="#000" stroke-linecap="round" stroke-linejoin="round"/><path d="M495.995 188.268v16.045l-15.244-2.031-9.684 1.54-6.644 66.712c-6.547-3.575-12.688-4.297-17.61-3.933.823-2.101 2.741-9.044-5.078-14.41-9.391-6.445-21.854 0-21.854 0l-11.219 5.992-3.025-8.178s-.091-.433-.219-1.186c-.417-2.443-1.214-8.231-.578-13.667.465-3.971 1.101-9.316 1.572-13.265l3.511.352 1.085-10.881-3.976-.396c-.85-7.942-5.676-21.753-28.75-22.838-18.156-.855-25.964 8.552-29.321 17.034l-6.745-.674-1.085 10.882s-3.009 8.033 5.864 7.354c.571 1.545 1.913 4.415 1.149 6.452-.038.096-.075.192-.123.288-1.027 2.047-2.389 4.351-2.389 4.351s-1.283 2.303-1.705 4.008a468.927 468.927 0 0 1-1.198 4.607s-.935 2.561 2.39 3.581a57.018 57.018 0 0 0 6.226 1.534l1 3.303h.005l.705 2.331s7.077-.855 9.038-6.569c0 0 .599 8.445-6.483 11.005l1.01 3.073.722 2.191c-1.096-.117-15.484-1.411-22.758 11.481 0 0-3.672 6.718 1.78 13.02-10.054 6.157-14.88 15.43-15.794 17.375a111.44 111.44 0 0 0-5.291-7.905v-43.703c-3.918-9.412-23.709-10.332-29.792-10.385 15.655-.674 29.792-17.061 29.792-17.061v-37.429a12.9 12.9 0 0 1 .363-3.035 12.753 12.753 0 0 1 9.332-9.338c.973-.24 1.994-.368 3.047-.368h155.232c7.039 0 12.742 5.702 12.742 12.741z" fill="#FB2CFA" stroke="#000" stroke-linecap="round" stroke-linejoin="round"/><path d="M464.423 270.534c-6.547-3.575-12.688-4.297-17.61-3.933.823-2.101 2.741-9.044-5.078-14.41-9.391-6.445-21.854 0-21.854 0l-11.219 5.992 2.902 7.851c-5.297 3.389-11.566 9.102-12.213 17.413 0 0-3.367-6.91-12.159-9.716l-2.576-6.735-.935-2.624-11.465-.722c-2.073 1.818-4.072 3.341-5.767 4.196-7.076 3.586-8.786-4.009-8.786-4.009l-.316-.956c-1.095-.123-15.483-1.417-22.758 11.475 0 0-3.671 6.718 1.78 13.02-10.053 6.157-14.879 15.43-15.793 17.375.005.006.01.016.016.022 3.089 5.061 4.778 8.685 4.778 8.685s5.815 11.176 12.533 26.269a487.839 487.839 0 0 1 4.746 11h90.903c-2.528-2.844.118-13.945.695-18.883.572-4.944-2.533-10.578-2.533-10.578 4.238-2.255 7.803-3.404 11.021-3.917-.097-.481-4.356-22.945 16.878-34.452l-47.958 3.522-.353-8.723 52.897-4.842.23-2.32h-.006zm-83.532 24.014c-2.464 12.309-1.748 33.031-1.08 41.892a1.867 1.867 0 0 1-1.721 2.004h-.144a1.875 1.875 0 0 1-1.866-1.726c-.005-.107-.796-10.721-.619-22.346.122-8.317.705-15.072 1.726-20.241a3.9 3.9 0 0 1 2.1-7.097h.134c1.32 0 2.491.657 3.196 1.667a3.894 3.894 0 0 1-1.726 5.847zm27.974 0c-2.464 12.309-1.748 33.031-1.08 41.892a1.866 1.866 0 0 1-1.721 2.004h-.144c-.967 0-1.79-.748-1.865-1.726-.006-.107-.797-10.721-.62-22.346.123-8.317.705-15.072 1.726-20.241a3.892 3.892 0 0 1-1.673-3.201 3.9 3.9 0 0 1 3.774-3.896h.133c1.32 0 2.491.657 3.196 1.667a3.894 3.894 0 0 1-1.726 5.847z" fill="#9F9FF9" stroke="#000" stroke-linecap="round" stroke-linejoin="round"/><path d="M408.865 294.548c-2.464 12.309-1.748 33.031-1.08 41.892a1.866 1.866 0 0 1-1.721 2.004h-.144c-.967 0-1.79-.748-1.865-1.726-.006-.107-.797-10.721-.62-22.346.123-8.317.705-15.072 1.726-20.241.567-2.854 1.267-5.221 2.101-7.097h.133c1.32 0 2.491.657 3.196 1.667-.7 1.571-1.266 3.565-1.726 5.847zm-27.974 0c-2.464 12.309-1.748 33.031-1.08 41.892a1.867 1.867 0 0 1-1.721 2.004h-.144a1.875 1.875 0 0 1-1.866-1.726c-.005-.107-.796-10.721-.619-22.346.122-8.317.705-15.072 1.726-20.241.566-2.854 1.267-5.221 2.1-7.097h.134c1.32 0 2.491.657 3.196 1.667-.7 1.571-1.267 3.565-1.726 5.847z" fill="#fff" stroke="#000" stroke-linecap="round" stroke-linejoin="round"/><path d="M411.297 290.935a3.894 3.894 0 0 1-2.432 3.613c.46-2.282 1.026-4.276 1.726-5.847a3.88 3.88 0 0 1 .706 2.234zm-4.035-3.896c-.834 1.876-1.534 4.244-2.101 7.098a3.9 3.9 0 0 1 2.101-7.098zm-23.939 3.896a3.894 3.894 0 0 1-2.432 3.613c.459-2.282 1.026-4.276 1.726-5.847a3.88 3.88 0 0 1 .706 2.234zm-4.036-3.896c-.834 1.876-1.534 4.244-2.1 7.098a3.9 3.9 0 0 1 2.1-7.098z" fill="#000" stroke="#000" stroke-linecap="round" stroke-linejoin="round"/><path d="M495.995 276.178v21.946c-14.078 2.8-20.465 16.189-21.641 18.942-.064.01-.134.021-.203.037-1.518.305-4.565.689-10.626.941-7.765.32-13.356-1.882-20.796-.695-.096-.481-4.356-22.945 16.879-34.452a42.313 42.313 0 0 1 3.763-1.807s6.435-2.159 11.293-6.622c.93-.85 1.801-1.79 2.56-2.811a11.162 11.162 0 0 0 1.796-3.784l1.731-6.66s1.823-8.006 7.179-6.745c0 0-5.409 8.311 1.646 10.861.251-1.326.491-2.908.582-4.453 0 0 0-.016.006-.048.048-.545.652-5.296 5.831-4.265v19.065s.005.198 0 .55z" fill="#F9B49D" stroke="#000" stroke-linecap="round" stroke-linejoin="round"/><path d="M484.503 350.668c-.411.037-.828.059-1.25.059h-49.706c-2.528-2.844.118-13.945.695-18.883.572-4.944-2.534-10.578-2.534-10.578 4.239-2.255 7.804-3.404 11.021-3.917 7.44-1.187 13.031 1.015 20.796.695 6.061-.252 9.108-.636 10.626-.936.069-.021.139-.032.203-.043 1.09-.229 1.272-.4 1.272-.4l8.877 34.003z" fill="#9F9FF9" stroke="#000" stroke-linecap="round" stroke-linejoin="round"/><path d="M490.164 260.828c-.006.032-.006.048-.006.048-.091 1.545-.331 3.127-.582 4.453-7.055-2.55-1.646-10.861-1.646-10.861 2.009.476 2.41 3.341 2.234 6.36z" fill="#FDA600" stroke="#000" stroke-linecap="round" stroke-linejoin="round"/><path d="M495.995 204.313v52.25c-5.179-1.031-5.783 3.72-5.831 4.265.176-3.019-.225-5.884-2.234-6.36-5.356-1.261-7.178 6.745-7.178 6.745l-1.732 6.66a11.162 11.162 0 0 1-1.796 3.784 19.992 19.992 0 0 1-2.56 2.811l6.088-72.186 15.243 2.031z" fill="#CBD6EC" stroke="#000" stroke-linecap="round" stroke-linejoin="round"/><path d="M234.162 238.316c0 7.622-6.007 13.838-13.543 14.169-.214.011-.428.016-.642.016-7.835 0-14.185-6.349-14.185-14.185 0-4.414 2.015-8.353 5.174-10.962a24.993 24.993 0 0 0 5.703 1.513 10.008 10.008 0 0 0-6.702 9.449c0 5.527 4.484 10.006 10.01 10.006h.118c5.473-.064 9.893-4.517 9.893-10.006 0-4.313-2.731-7.99-6.553-9.401a24.814 24.814 0 0 0 5.708-1.427 14.166 14.166 0 0 1 5.019 10.828z" fill="#F6D54A" stroke="#000" stroke-linecap="round" stroke-linejoin="round"/><path d="M346.519 215.906v-.016" stroke="#000" stroke-linecap="round" stroke-linejoin="round"/><path d="M386.07 249.081l-1.454 17.915-.935-2.624-3.191-8.942c3.233-3.511 5.58-6.349 5.58-6.349z" fill="#000" stroke="#000" stroke-linecap="round" stroke-linejoin="round"/><path d="M346.519 215.885a5.454 5.454 0 0 0-.032-.107l.032.128-5.388-.54 1.085-10.882 6.745.674c-1.699 4.297-2.255 8.359-2.442 10.727zm23.666-8.605l-1.641 10.823-11.555-1.155 1.197-10.866 11.999 1.198z" fill="#F6D54A" stroke="#000" stroke-linecap="round" stroke-linejoin="round"/><path d="M358.186 206.077l-1.197 10.871-10.465-1.042s0-.011-.005-.016c.187-2.373.743-6.435 2.442-10.732l9.225.919z" fill="#F6D54A" stroke="#000" stroke-linecap="round" stroke-linejoin="round"/><path d="M346.524 215.906h-.005l-.032-.128a5.454 5.454 0 0 1 .037.128z" stroke="#000" stroke-linecap="round" stroke-linejoin="round"/><path d="M381.468 208.407l-1.561 10.834-11.363-1.138 1.641-10.823 11.283 1.127z" fill="#F6D54A" stroke="#000" stroke-linecap="round" stroke-linejoin="round"/><path d="M392.136 209.471l-1.561 10.834-10.668-1.064 1.561-10.834 10.668 1.064z" fill="#F6D54A" stroke="#000" stroke-linecap="round" stroke-linejoin="round"/><path d="M400.49 210.305l-1.876 10.801-8.039-.801 1.561-10.834 8.354.834z" fill="#F6D54A" stroke="#000" stroke-linecap="round" stroke-linejoin="round"/><path d="M407.064 216.494l-.652 5.393-7.798-.781 1.876-10.801 6.542.657c.347 3.26.032 5.532.032 5.532z" fill="#F6D54A" stroke="#000" stroke-linecap="round" stroke-linejoin="round"/><path d="M411.008 211.358l-1.085 10.881-3.511-.352.652-5.393s.315-2.272-.032-5.532l3.976.396zm-3.976-.396l-6.542-.657-8.354-.834-10.668-1.064-11.283-1.127-11.999-1.198-9.225-.924c3.357-8.482 11.165-17.889 29.321-17.034 23.074 1.085 27.9 14.896 28.75 22.838z" fill="#F6D54A" stroke="#000" stroke-linecap="round" stroke-linejoin="round"/><path d="M405.418 248.813c-8.13.198-6.804-8.519-6.804-8.519-10.144 2.646-11.523-4.351-11.523-4.351s9.043-6.226 5.045-11.945c-4.003-5.714-12.229.941-12.229.941-9.235 4.179-12.18-5.698-12.18-5.698s-2.218 3.651-10.738 4.158c-7.52.455-9.989-5.98-10.465-7.493l10.465 1.042 11.555 1.155 11.363 1.138 10.668 1.064 8.039.801 7.798.781c-.471 3.949-1.107 9.294-1.572 13.265-.636 5.436.161 11.224.578 13.661z" fill="#000" stroke="#000" stroke-linecap="round" stroke-linejoin="round"/><path d="M346.439 215.596s0 .011.005.016c-.005 0 0 .011.005.027 0 .01 0 .016.011.032l.011.053.016.054m1.657 13.394s-3.042.096-2.86-1.711" stroke="#000" stroke-linecap="round" stroke-linejoin="round"/><path d="M408.662 258.183l-3.025-8.178s-.091-.433-.219-1.186c-8.13.192-6.804-8.525-6.804-8.525-10.144 2.646-11.523-4.351-11.523-4.351s9.043-6.226 5.045-11.945c-4.003-5.714-12.229.941-12.229.941-9.235 4.179-12.18-5.698-12.18-5.698s-2.218 3.651-10.738 4.158c-7.52.455-9.989-5.98-10.465-7.493h-.005c-.096 1.325-.08 2.116-.08 2.116s-.038 3.074.555 4.698c.572 1.545 1.914 4.415 1.15 6.452-.038.096-.075.192-.123.288-1.027 2.047-2.389 4.351-2.389 4.351s-1.283 2.303-1.705 4.008a468.927 468.927 0 0 1-1.198 4.607s-.935 2.561 2.389 3.581a57.063 57.063 0 0 0 6.227 1.534l1 3.303h.005c4.757-.288 9.743-4.238 9.743-4.238s2.021 12.977-5.473 14.078l.722 2.191.315.962s1.711 7.595 8.787 4.009c1.694-.855 3.693-2.378 5.767-4.196 2.849-2.496 5.815-5.553 8.273-8.22 3.234-3.511 5.58-6.349 5.58-6.349l-1.453 17.915 2.576 6.735c8.792 2.805 12.159 9.716 12.159 9.716.647-8.311 6.916-14.024 12.213-17.413l-2.902-7.851h.005zm-52.277-24.185c.193-.144.39-.267.577-.38l-.577.38zm28.653-.77c-.304 0-.604-.037-.887-.107l-3.667 4.538-2.367-2.272 3.698-3.949a3.774 3.774 0 0 1-.582-2.015 3.808 3.808 0 1 1 3.805 3.805zm-24.5-4.709a21.141 21.141 0 0 1-3.661-.144 15.983 15.983 0 0 1-2.229-.443 12.084 12.084 0 0 1-1.336-.455c-.246.813-.246 1.919.043 3.084.534 2.127 1.94 3.704 3.025 3.437h.005c.193-.144.39-.267.577-.38.914-.566 1.705-.876 1.705-.876 4.987-2.074 7.339-4.201 7.339-4.201l-5.468-.022zm0 0a21.141 21.141 0 0 1-3.661-.144 15.983 15.983 0 0 1-2.229-.443 12.084 12.084 0 0 1-1.336-.455c-.246.813-.246 1.919.043 3.084.534 2.127 1.94 3.704 3.025 3.437h.005c.193-.144.39-.267.577-.38.914-.566 1.705-.876 1.705-.876 4.987-2.074 7.339-4.201 7.339-4.201l-5.468-.022z" fill="#F9B49D" stroke="#000" stroke-linecap="round" stroke-linejoin="round"/><path d="M383.681 264.372l-11.465-.722c2.849-2.496 5.815-5.553 8.274-8.22l3.191 8.942z" fill="#F9B49D" stroke="#000" stroke-linecap="round" stroke-linejoin="round"/><path d="M346.994 222.72c-8.872.679-5.863-7.354-5.863-7.354l5.388.54c-.096 1.325-.08 2.116-.08 2.116s-.038 3.074.555 4.698z" fill="#000" stroke="#000" stroke-linecap="round" stroke-linejoin="round"/><path d="M388.849 229.423a3.808 3.808 0 0 1-4.698 3.698l-3.667 4.538-2.367-2.272 3.698-3.949a3.774 3.774 0 0 1-.582-2.015 3.808 3.808 0 1 1 7.616 0z" stroke="#000" stroke-linecap="round" stroke-linejoin="round"/><path d="M356.62 260.684l-1.01-3.073c7.082-2.56 6.483-11.005 6.483-11.005s2.021 12.977-5.473 14.078z" fill="#E26940" stroke="#000" stroke-linecap="round" stroke-linejoin="round"/><path d="M362.093 246.606c-1.961 5.714-9.038 6.569-9.038 6.569l-.705-2.331c4.757-.288 9.743-4.238 9.743-4.238z" fill="#E26940" stroke="#000" stroke-linecap="round" stroke-linejoin="round"/><path d="M366.006 228.541s-2.352 2.127-7.339 4.201c0 0-.791.31-1.705.876.61-.732.743-2.351.321-4.035a7.673 7.673 0 0 0-.406-1.208c1.053.139 2.271.203 3.661.144l5.468.022z" fill="#fff" stroke="#000" stroke-linecap="round" stroke-linejoin="round"/><path d="M356.962 233.618a7.044 7.044 0 0 0-.577.38h-.005c-1.085.267-2.491-1.31-3.025-3.437-.289-1.165-.289-2.271-.043-3.084.385.161.828.31 1.336.455.641.176 1.384.336 2.229.443.16.369.299.775.406 1.208.422 1.684.289 3.303-.321 4.035z" fill="#000" stroke="#000" stroke-linecap="round" stroke-linejoin="round"/><path d="M356.962 233.618a7.044 7.044 0 0 0-.577.38m18.851 38.84c4.784-.62 8.733-.139 11.956.892m31.876-11.496s-3.469 1.224-7.504 3.8m-54.153-3.148s-.021 0-.069-.011m-20.978 24.501c5.735-3.512 13.169-6.008 22.549-5.554m87.9-15.221a2.997 2.997 0 0 0-.07.165m17.825 3.849l-.145-.081m-17.61-3.933c-6.815.497-11.299 3.089-11.299 3.089m28.835 3.148l-.155.016m-4.431 10.032l-.155.011m15.056-8.413v-.016" stroke="#000" stroke-linecap="round" stroke-linejoin="round"/><path d="M495.995 298.124v39.861c0 6.617-5.04 12.052-11.491 12.683l-8.878-34.003s-.182.171-1.272.401c1.176-2.753 7.563-16.142 21.641-18.942z" fill="#9F9FF9" stroke="#000" stroke-linecap="round" stroke-linejoin="round"/><path d="M480.751 202.282l-6.087 72.186c-4.858 4.463-11.294 6.622-11.294 6.622l.824-8.236.229-2.32 6.644-66.712 9.684-1.54z" fill="#C1BFC0" stroke="#000" stroke-linecap="round" stroke-linejoin="round"/><path d="M475.744 287.579c9.118-1.374 12.592-16.537 13.051-18.75.038-.187.08-.368.129-.55.128-.492.395-1.582.652-2.95m6.419 10.855c-.048 2.277-.743 10.935-8.343 14.179m8.343-14.735s.005.198 0 .55m.005 25.201s-.005-.016-.005-.022c-.225-1.069-.727-2.036-1.294-2.848" stroke="#000" stroke-linecap="round" stroke-linejoin="round"/><path d="M411.297 277.696l.353 8.723 47.958-3.522a42.313 42.313 0 0 1 3.763-1.807l.823-8.236-52.897 4.842zm48.252 1.518l-8.252.417.251-2.891 8.381-.572-.38 3.046z" fill="#C1BFC0" stroke="#000" stroke-linecap="round" stroke-linejoin="round"/><path d="M459.928 276.168l-.379 3.046-8.252.417.251-2.891 8.38-.572z" fill="#EF5752" stroke="#000" stroke-linecap="round" stroke-linejoin="round"/><path d="M178.197 75.2v7.676h-14.211c-3.207-3.271-4.976-6.884-4.976-6.884l-.364-.626-.096-.165h19.647z" fill="#000" stroke="#000" stroke-linecap="round" stroke-linejoin="round"/><path d="M262.665 12.25v129.461l-9.909-8.589c1.882-1.791.674-3.897.674-3.897l-12.795-13.244-10.241-10.604s-3.105-3.421-7.638-7.424V86.532a3.662 3.662 0 0 0-3.661-3.656h-40.898V75.2h16.66a4.945 4.945 0 0 0 4.949-4.95V37.537a4.945 4.945 0 0 0-4.949-4.949h-18.263c.032-.369.048-.737.048-1.111 0-6.67-4.505-12.283-10.641-13.971a14.443 14.443 0 0 0 5.403-11.289c0-1.838-.342-3.597-.972-5.216h80.983c6.216 0 11.25 5.035 11.25 11.25z" fill="#9F9FF9" stroke="#000" stroke-linecap="round" stroke-linejoin="round"/><path d="M176.642 31.476c0 .374-.016.742-.048 1.111-.449 5.965-4.506 10.909-9.984 12.683a14.443 14.443 0 0 1 3.426 9.359c0 8.001-6.488 14.49-14.489 14.49-.182 0-.369-.006-.551-.017l-10.481-17.995a5.14 5.14 0 0 0 3.186-.797l2.854-1.812 4.409-2.805c.454-.289.85-.642 1.176-1.032a5.181 5.181 0 0 0 .417-6.136l-3.774-5.938-4.104-6.456-4.372-6.879a5.201 5.201 0 0 0-7.173-1.592l-.85.54v-.011s-7.253-10.599-16.007-6.382a77.85 77.85 0 0 0-5.019 2.667c-7.237 4.164-14.014 9.225-14.014 9.225s-4.853 3.298-6.782 7.691c-.994 2.26-1.213 4.81.4 7.344.22.347.434.678.631 1.005a65.741 65.741 0 0 1 2.149 3.66l-.07.049-5.056 3.217-1.352.86c-.545.348-1 .776-1.368 1.262a5.196 5.196 0 0 0-.23 5.906l12.255 19.273c.342.54.77.994 1.251 1.352a5.13 5.13 0 0 0 2.726 1.037h.005a5.138 5.138 0 0 0 3.186-.796l2.854-1.812c.069.085.107.128.107.128s3.351 6.382 11.999 3.245a26.104 26.104 0 0 0 4.511-2.133 14.404 14.404 0 0 1-1.583 7.889 14.507 14.507 0 0 1-12.859 7.798c-6.569 0-12.122-4.378-13.891-10.374a14.442 14.442 0 0 1-8.257 2.581c-8.002 0-14.49-6.488-14.49-14.495 0-1.555.246-3.052.706-4.457-7.494-.556-13.394-6.81-13.394-14.447 0-3.859 1.507-7.354 3.96-9.952a14.48 14.48 0 0 1-5.767-11.571c0-6.382 4.12-11.801 9.85-13.73a14.362 14.362 0 0 1-1.293-5.987c0-2.64.706-5.115 1.94-7.242h97.05c.63 1.62.972 3.378.972 5.216 0 4.565-2.105 8.637-5.403 11.288 6.136 1.69 10.641 7.301 10.641 13.972z" fill="#573801" stroke="#000" stroke-linecap="round" stroke-linejoin="round"/><path d="M119.085 89.76v12.656c-8.931 2.416-20 6.708-27.467 15.366-.705.818-1.4 1.668-2.084 2.55l-9.546-7.809a12.194 12.194 0 0 0-12.63-1.726l-50.732 22.335V12.251C16.627 6.035 21.666 1 27.877 1h45.505a14.382 14.382 0 0 0-1.94 7.242c0 2.133.46 4.164 1.293 5.986-5.73 1.93-9.85 7.35-9.85 13.73 0 4.726 2.266 8.927 5.767 11.572a14.438 14.438 0 0 0-3.96 9.952c0 7.638 5.9 13.89 13.394 14.447a14.306 14.306 0 0 0-.706 4.457c0 8.007 6.488 14.495 14.49 14.495 3.067 0 5.916-.957 8.257-2.581 1.769 5.996 7.322 10.374 13.891 10.374 1.78 0 3.49-.32 5.067-.914zm135.371 90.849c-.967.273-1.988.417-3.041.417h-11.09l-13.694-28.541 4.089 4.089 23.736 24.035z" fill="#9F9FF9" stroke="#000" stroke-linecap="round" stroke-linejoin="round"/><path d="M21.325 178.91a11.13 11.13 0 0 0 6.552 2.116" stroke="#000" stroke-linecap="round" stroke-linejoin="round"/><path d="M253.43 129.225s-1.251-.059-3.031 1.855c-.304.326-.625.711-.956 1.16-.69.935-2.673 3.522-5.105 6.686a9160.864 9160.864 0 0 1-13.618 17.648l-4.089-4.089 13.694 28.541h-9.936c-.043-.016-.086-.037-.134-.059-.144-.064-.289-.122-.438-.187a29.978 29.978 0 0 0-1.529-.571 24.22 24.22 0 0 0-1.78-.53c-.181-.048-.363-.09-.545-.133-.032 0-.064-.016-.096-.027l-.444-.096-.481-.096c-.422-1.668-7.76-29.391-26.953-29.535-3.095-.022-6.398.491-9.765 1.379-3.372.539-13.153 4.965-13.153 4.965-13.496 6.408-25.024 15.355-25.024 15.355s-3.725 3.389-6.205 9.535h-30.888l1.679-8.637c-10.273.102-26.916-10.593-33.394-12.865-.78-.272-1.54-.497-2.266-.678-5.324-1.326-9.092-.407-9.092-.407s2.438-7.076 6.617-15.964c3.346-7.125 7.814-15.414 13.036-22.143a63.447 63.447 0 0 1 2.084-2.55c7.467-8.658 18.536-12.95 27.467-15.366 6.462-1.742 11.801-2.507 13.843-3.233 4.863-1.732 2.592-7.68 2.592-7.68l-1.16-2.812 7.125-3.549 9.759 15.505-4.506-18.92 11.908-6.36.364.625s1.769 3.613 4.976 6.884c2.784 2.843 6.654 5.43 11.384 5.163 10.176-.572 17.905-5.537 29.711-1.545 6.147 2.074 12.753 7.109 17.675 11.46 4.533 4.002 7.638 7.423 7.638 7.423l10.241 10.599 12.795 13.249z" fill="#F9B49D" stroke="#000" stroke-linecap="round" stroke-linejoin="round"/><path d="M244.06 278.813a152.428 152.428 0 0 0-9.203 2.988 2.392 2.392 0 0 1-2.341 1.887 2.4 2.4 0 0 1-1.62-4.169c-1.614-2.854-4.206-8.21-7.835-17.969a50.33 50.33 0 0 1-2.437-9.065c-.214.011-.428.016-.641.016-7.836 0-14.185-6.349-14.185-14.185 0-4.414 2.015-8.353 5.173-10.962-9.278-3.688-15.847-12.752-15.847-23.351 0-.32.006-.641.016-.956a35.007 35.007 0 0 1 .102-1.438v-.011c.011-.15.027-.294.043-.438.037-.326.08-.647.128-.968.043-.299.096-.587.149-.881.07-.369.15-.738.236-1.107.053-.23.112-.459.176-.689.075-.294.16-.583.246-.871l.016-.049c.085-.277.176-.555.273-.828.08-.23.16-.46.251-.684l.096-.257c.032-.085.069-.171.107-.256.059-.155.123-.31.192-.465l.032-.08.289-.642.016-.032c.048-.101.096-.198.144-.294a26.032 26.032 0 0 1 .508-.989l.016-.032c.027-.053.059-.106.091-.16.069-.123.134-.246.208-.369a.17.17 0 0 1 .022-.042c.01-.022.026-.043.037-.065.064-.107.128-.219.193-.326l.368-.593.016-.021c-15.718-2.224-13.96-17.996-13.848-18.878-.144.861-1.245 6.58-5.633 9.444-1.748 1.144-4.014 1.839-6.954 1.588-2.389-.203-4.163-.791-5.478-1.588-4.286-2.587-3.645-7.386-3.506-8.182-.15.689-1 4.404-2.801 8.182-3.03 6.382-8.979 12.774-18.594 5.265a29.825 29.825 0 0 0-.492 8.209c.08 1.08.219 2.202.428 3.351l7.883 2.112c1.935.513 2.876 2.709 1.914 4.468a3.086 3.086 0 0 1-4.624.919l-4.013-2.849 2.72 9.012s.054.24.128.652c.011-.006.016-.006.022-.011.999-.454 1.967-.893 2.95-1.01a16.621 16.621 0 0 1 2.827-.091c1.721.096 2.913.406 2.913.406.594 1.171 1.016 2.705.802 4.597a17.08 17.08 0 0 1-.556 2.811s-1.341 1.325-4.046 1.507a3.714 3.714 0 0 1-.342.016c-.139.006-.267.005-.39.005h-.059c-1.673-.053-1.801-.705-3.49-.571a7.36 7.36 0 0 1-.048.491c-.444 3.448-1.026 7.109.657 12.534.658 2.111 2.074 6.189 3.555 10.374a1963.153 1963.153 0 0 0 4.799 13.367s.444 1.817 1.502 4.19a26.92 26.92 0 0 0 2.004 3.726c2.405 3.703 6.206 7.29 11.887 7.183 7.317-.139 13.25-3.549 16.649-6.061 2.009-1.486 3.137-2.662 3.137-2.662s7.91-8.209 9.963-10.844c0 0 .294 18.391-8.498 24.623l3.955 10.256s-5.778-1.993-14.383-3.415h-.005s-11.529 17.932-4.073 28.862c2.352 3.447 6.595 6.2 13.677 7.472.561.101 1.149.197 1.748.278 31.822 4.366 54.767-41.919 55.104-42.614-1.555.406-3.036.818-4.42 1.229h-.006z" fill="#BC5326"/><path d="M244.06 278.813a152.428 152.428 0 0 0-9.203 2.988 2.392 2.392 0 0 1-2.341 1.887 2.4 2.4 0 0 1-1.62-4.169c-1.614-2.854-4.206-8.21-7.835-17.969a50.33 50.33 0 0 1-2.437-9.065c-.214.011-.428.016-.641.016-7.836 0-14.185-6.349-14.185-14.185 0-4.414 2.015-8.353 5.173-10.962-9.278-3.688-15.847-12.752-15.847-23.351 0-.32.006-.641.016-.956a35.007 35.007 0 0 1 .102-1.438v-.011c.011-.15.027-.294.043-.438.037-.326.08-.647.128-.968.043-.299.096-.587.149-.881.07-.369.15-.738.236-1.107.053-.23.112-.459.176-.689.075-.294.16-.583.246-.871l.016-.049c.085-.277.176-.555.273-.828.08-.23.16-.46.251-.684l.096-.257c.032-.085.069-.171.107-.256.059-.155.123-.31.192-.465l.032-.08.289-.642.016-.032c.048-.101.096-.198.144-.294a26.032 26.032 0 0 1 .508-.989l.016-.032c.027-.053.059-.106.091-.16.069-.123.134-.246.208-.369a.17.17 0 0 1 .022-.042c.01-.022.026-.043.037-.065.064-.107.128-.219.193-.326l.368-.593.016-.021c-15.718-2.224-13.96-17.996-13.848-18.878-.144.861-1.245 6.58-5.633 9.444-1.748 1.144-4.014 1.839-6.954 1.588-2.389-.203-4.163-.791-5.478-1.588-4.286-2.587-3.645-7.386-3.506-8.182-.15.689-1 4.404-2.801 8.182-3.03 6.382-8.979 12.774-18.594 5.265a29.825 29.825 0 0 0-.492 8.209c.08 1.08.219 2.202.428 3.351l7.883 2.112c1.935.513 2.876 2.709 1.914 4.468a3.086 3.086 0 0 1-4.624.919l-4.013-2.849 2.72 9.012s.054.24.128.652c.011-.006.016-.006.022-.011.999-.454 1.967-.893 2.95-1.01a16.621 16.621 0 0 1 2.827-.091c1.721.096 2.913.406 2.913.406.594 1.171 1.016 2.705.802 4.597a17.08 17.08 0 0 1-.556 2.811s-1.341 1.325-4.046 1.507a3.714 3.714 0 0 1-.342.016c-.139.006-.267.005-.39.005h-.059c-1.673-.053-1.801-.705-3.49-.571a7.36 7.36 0 0 1-.048.491c-.444 3.448-1.026 7.109.657 12.534.658 2.111 2.074 6.189 3.555 10.374a1963.153 1963.153 0 0 0 4.799 13.367s.444 1.817 1.502 4.19a26.92 26.92 0 0 0 2.004 3.726c2.405 3.703 6.206 7.29 11.887 7.183 7.317-.139 13.25-3.549 16.649-6.061 2.009-1.486 3.137-2.662 3.137-2.662s7.91-8.209 9.963-10.844c0 0 .294 18.391-8.498 24.623l3.955 10.256s-5.778-1.993-14.383-3.415h-.005s-11.529 17.932-4.073 28.862c2.352 3.447 6.595 6.2 13.677 7.472.561.101 1.149.197 1.748.278 31.822 4.366 54.767-41.919 55.104-42.614-1.555.406-3.036.818-4.42 1.229h-.006z" stroke="#000" stroke-linecap="round" stroke-linejoin="round"/><path d="M220.228 178.888c-.267 0-.534.006-.801.016-.182 0-.358.011-.54.022-.273.011-.545.032-.813.059-.176.01-.347.026-.518.048-.289.026-.577.064-.86.107-.15.016-.3.037-.444.064-.219.032-.433.069-.647.112-.214.037-.427.08-.641.128-.209.043-.422.091-.631.145-.139.032-.283.064-.422.101-.16.043-.326.086-.486.134a25.205 25.205 0 0 0-3.346 1.202c-.289.129-.577.262-.861.401-.144.07-.283.139-.422.214l-.032.016c-.011.005-.027.011-.037.021-.107.048-.204.102-.31.161-.273.144-.54.294-.802.449-.022.01-.043.026-.064.037-.219.128-.433.257-.642.39-5.959-22.998-31.838-26.579-31.838-26.579s9.781-4.426 13.153-4.965c25.927 1.683 32.004 27.717 32.004 27.717z" fill="#CBD6EC" stroke="#000" stroke-linecap="round" stroke-linejoin="round"/><path d="M183.066 193.453l-13.858 9.829a3.085 3.085 0 0 1-4.624-.92 3.083 3.083 0 0 1 1.914-4.468l16.568-4.441z" fill="#EF5752" stroke="#000" stroke-linecap="round" stroke-linejoin="round"/><path d="M192.457 276.745l-4.602-11.117c2.01-1.486 3.138-2.662 3.138-2.662s7.91-8.209 9.962-10.844c0 0 .294 18.391-8.498 24.623z" fill="#000" stroke="#000" stroke-linecap="round" stroke-linejoin="round"/><path d="M185.851 209.829s-1.812 1.721-4.345 3.346c-1.016.652-2.138 1.288-3.309 1.79-.149.064-.304.129-.454.187-.914.358-1.716.636-2.421.92 2.133-.834 2.651-3.849 1.566-6.719-.567-1.491-1.545-2.661-2.656-3.329 4.099-1.117 8.14-1.518 11.197-.497 3.8 1.266.422 4.302.422 4.302z" fill="#fff" stroke="#000" stroke-linecap="round" stroke-linejoin="round"/><path d="M151.511 220.086c-1.539.577-3.319-.107-4.607-1.593 0-2.421-.454-5.115-.684-6.328.011-.006.016-.006.021-.011 1-.454 1.967-.893 2.951-1.01a16.618 16.618 0 0 1 2.827-.091 7.252 7.252 0 0 1 1.427 2.33c1.09 2.886.225 5.885-1.935 6.703z" fill="#000" stroke="#000" stroke-linecap="round" stroke-linejoin="round"/><path d="M232.281 204.003c0 6.654-5.393 12.053-12.047 12.053-6.654 0-12.053-5.399-12.053-12.053 0-6.654 5.399-12.052 12.053-12.052 6.654 0 12.047 5.398 12.047 12.052z" stroke="#000" stroke-linecap="round" stroke-linejoin="round"/><path d="M159.32 264.506a14.605 14.605 0 0 1-8.033 2.383c-7.996 0-14.479-6.349-14.479-14.185 0-4.377 2.02-8.279 5.2-10.892a24.18 24.18 0 0 0 5.976 1.32c-3.971 1.379-6.916 5.206-6.916 9.572 0 5.527 4.58 10.006 10.219 10.006 2.255 0 4.34-.717 6.029-1.93a26.814 26.814 0 0 0 2.004 3.726z" fill="#F6D54A" stroke="#000" stroke-linecap="round" stroke-linejoin="round"/><path d="M157.316 260.78a10.305 10.305 0 0 1-6.029 1.93c-5.639 0-10.219-4.479-10.219-10.006 0-4.366 2.945-8.193 6.916-9.572.78.075 1.571.107 2.367.102.225 0 .444-.006.663-.011 2.32 6.547 4.8 13.367 4.8 13.367s.443 1.817 1.502 4.19zm-79-94.986c-.113-.027-.22-.059-.332-.091m36.665 6.686h-.016m3.26-16.761l-3.26 16.761M65.237 278.888l-.332-.091" stroke="#000" stroke-linecap="round" stroke-linejoin="round"/><path d="M114.633 172.389l-1.679 8.637-.465 2.395s-9.299 33.511-13.842 44.874c-4.543 11.358-7.569 19.578-7.569 19.578s-2.81 4.543-1.517 8.327c1.298 3.784 2.239 7.215-.343 10.689-2.576 3.474-14.04 12.127-14.04 12.127s-2.266 2.16-6.81.754l-3.131-.882c-3.506 3.015-7.836 6.323-11.267 8.814a128.85 128.85 0 0 1-4.147 2.907c-1.759 1.171-3.667 2.117-5.746 2.507a8.48 8.48 0 0 1-.732.112c-1.983.251-4.035-.048-4.998-1.929a4.7 4.7 0 0 1-.46-1.321c.492-.042 3.298-.47 5.458-4.414 0 0 .94-1.449 0-3.191l7.188-7.135c-3.495-2.063-2.047-5.917-2.047-5.917-3.66-2.533-1.207-7.392-1.207-7.392-1.946-2.918.865-6.488.865-6.488l4.33-6.702s3.565-6.168 6.055-7.355c2.485-1.192 4.757-5.735 4.757-5.735 3.677-8.001 12.004-51.256 12.004-51.256l.486-3.367 2.208-15.323.989-6.857c.727.181 1.486.406 2.266.678 6.478 2.272 23.121 12.967 33.394 12.865z" fill="#E26940" stroke="#000" stroke-linecap="round" stroke-linejoin="round"/><path d="M50.464 258.525l-3.185 3.404m7.311 0l-6.104 7.392m9.3-2.437l-7.253 8.354m14.704 3.65c2.213-1.897 4.094-3.677 5.227-5.056m-32.576 16.146c-.663-3.447 3.367-5.537 3.367-5.537l2.09-2.068m-5.457 7.605c-.048.006-.075.006-.075.006" stroke="#000" stroke-linecap="round" stroke-linejoin="round"/><path d="M150.555 48.498l-2.854 1.812a5.14 5.14 0 0 1-3.186.797h-.005a5.131 5.131 0 0 1-2.726-1.037 5.059 5.059 0 0 1-1.251-1.352l-12.255-19.273a5.149 5.149 0 0 1-.786-3.266 5.183 5.183 0 0 1 2.384-3.902l1.347-.86h.005l5.056-3.218 11.417 24.244 2.854 6.056z" fill="#EF5752" stroke="#000" stroke-linecap="round" stroke-linejoin="round"/><path d="M156.14 44.661c-.326.39-.722.743-1.176 1.032l-4.409 2.806-2.855-6.056-11.416-24.244.85-.54a5.201 5.201 0 0 1 7.173 1.593l4.372 6.879 4.104 6.456 3.774 5.938a5.181 5.181 0 0 1-.417 6.136zm-44.297 29.086l-2.854 1.812a5.14 5.14 0 0 1-3.186.796h-.005a5.13 5.13 0 0 1-2.726-1.037 5.058 5.058 0 0 1-1.251-1.352L89.566 54.693a5.196 5.196 0 0 1 .23-5.906 5.25 5.25 0 0 1 1.368-1.261l1.352-.86 5.056-3.218.07-.048c.037.064.07.123.096.181.577 1.075 1 1.978 1.315 2.758.048.123.09.235.133.342.428 1.133.62 2 .706 2.774.043.45.053.866.053 1.283 0 .588-.048 1.283-.074 2.068-.043 1.08-.038 2.315.192 3.624a11.05 11.05 0 0 0 1.828 4.468c.732 1.058 1.812 2.496 2.993 4.03.444.588.914 1.187 1.379 1.785h.005a531.885 531.885 0 0 0 5.575 7.034z" fill="#77A0B6" stroke="#000" stroke-linecap="round" stroke-linejoin="round"/><path d="M136.284 18.2l-5.056 3.217h-.005s-5.826-8.637-15.965-6.943a77.85 77.85 0 0 1 5.019-2.667c8.754-4.217 16.002 6.382 16.002 6.382v.01h.005zm88.658 161.127a40.212 40.212 0 0 0-.368-.064c-.171-.033-.342-.059-.519-.086a26.119 26.119 0 0 0-1.154-.15 33.046 33.046 0 0 0-1.465-.112 30.126 30.126 0 0 0-1.202-.027h-.006s-6.077-26.034-32.004-27.717c3.367-.888 6.67-1.401 9.765-1.379 19.193.144 26.531 27.867 26.953 29.535z" fill="#EF5752" stroke="#000" stroke-linecap="round" stroke-linejoin="round"/><path d="M131.96 82.876l-3.303-8.007c5.153-3.137 7.189-6.937 7.189-6.937s1.945-3.244 1.945-8.653c0 0 8.023 19.321-5.831 23.597z" fill="#000" stroke="#000" stroke-linecap="round" stroke-linejoin="round"/><path d="M144.51 51.107V51.1m82.121 101.384l-12.843-26.761m-51.641-7.749l-10.903-17.328M134.36 88.691l-.828.411m25.221-13.794l-.107.058m-39.561 27.055v-.005" stroke="#000" stroke-linecap="round" stroke-linejoin="round"/><path d="M222.756 86.532v11.421c-4.922-4.35-11.528-9.385-17.675-11.459-11.806-3.992-19.535.973-29.711 1.545-4.73.267-8.6-2.32-11.384-5.163h55.109a3.662 3.662 0 0 1 3.661 3.656z" fill="#000" stroke="#000" stroke-linecap="round" stroke-linejoin="round"/><path d="M166.61 45.27h-.005" stroke="#000" stroke-linecap="round" stroke-linejoin="round"/><path d="M199.806 37.536v32.716a4.945 4.945 0 0 1-4.949 4.949H158.55l-3.554-6.099c.182.011.369.016.551.016 8.001 0 14.489-6.488 14.489-14.49 0-3.564-1.288-6.83-3.426-9.358 5.478-1.774 9.535-6.718 9.984-12.683h18.263a4.945 4.945 0 0 1 4.949 4.95z" fill="#000" stroke="#000" stroke-linecap="round" stroke-linejoin="round"/><path d="M166.61 45.27h-.005" stroke="#000" stroke-linecap="round" stroke-linejoin="round"/><path d="M131.223 21.417l-1.347.86a5.183 5.183 0 0 0-2.384 3.902c-5.917 2.084-8.407-2.86-8.407-2.86-6.034 7.21-12.256 1.994-12.256 1.994-4.03 10.583-12.121 6.216-12.367 6.077 1.93-4.393 6.782-7.691 6.782-7.691s6.777-5.061 14.014-9.225c10.139-1.694 15.965 6.943 15.965 6.943z" fill="#573801" stroke="#000" stroke-linecap="round" stroke-linejoin="round"/><path d="M94.462 31.39h-.006m.252 15.291s1.459 1.192 3.613.412c.16-.059.32-.128.491-.209 0 0 0-.005.006-.01.123-.054.24-.118.368-.193m-.374.203s0-.005.006-.01m1.053 5.938c-.53.502-.947 1.144-1.059 1.945" stroke="#000" stroke-linecap="round" stroke-linejoin="round"/><path d="M126.877 82.876a14.404 14.404 0 0 0 1.582-7.889c.065-.037.134-.075.198-.118l3.303 8.007h-5.083z" fill="#9F9FF9" stroke="#000" stroke-linecap="round" stroke-linejoin="round"/><path d="M132.928 99.183c-2.042.726-7.381 1.491-13.843 3.233V89.76a14.507 14.507 0 0 0 7.792-6.884h5.083l2.4 5.815 1.16 2.811s2.271 5.949-2.592 7.68zm-29.455-48.376a4.443 4.443 0 0 0-.481.353h-.005s-.006 0-.011.006h-.032c-.781.203-1.967-.476-3.052-1.716-.086-.775-.278-1.64-.706-2.774.845-.486 1.577-1.17 2.277-1.855.316.358.626.765.914 1.208 1.262 1.935 1.695 3.94 1.096 4.773v.005zm13.367-6.616c-.171.107-.326.219-.481.352h-.005c-1 .31-2.715-.913-4.014-2.907-.251-.39-.471-.78-.652-1.16.278-.101.572-.235.871-.411.844-.487 1.571-1.176 2.271-1.855.316.358.626.764.914 1.208 1.262 1.935 1.695 3.939 1.096 4.773z" fill="#000" stroke="#000" stroke-linecap="round" stroke-linejoin="round"/><path d="M99.881 40.695c0 .63-.262 1.262-.785 1.716l-1.358 1.17a65.741 65.741 0 0 0-2.245-3.843l.267-.374a2.278 2.278 0 0 1 4.121 1.331z" fill="#573801" stroke="#000" stroke-linecap="round" stroke-linejoin="round"/><path d="M99.87 52.806c.027-.785.075-1.48.075-2.068 0-.417-.01-.834-.053-1.283 1.085 1.24 2.271 1.919 3.052 1.716-.283.075-1.935.545-3.073 1.635zm5.784-6.835c-.145 1.528-.695 2.661-1.027 4.078a7.56 7.56 0 0 1-.876.582 3.065 3.065 0 0 0-.278.176c.599-.833.166-2.838-1.096-4.772-.288-.444-.598-.85-.914-1.208.759-.738 1.486-1.465 2.288-1.919.962.625 2.036 1.636 1.903 3.063z" fill="#fff" stroke="#000" stroke-linecap="round" stroke-linejoin="round"/><path d="M158.646 75.367l-.096-.166-3.554-6.099-10.481-17.995h-.005a5.131 5.131 0 0 1-2.726-1.037 5.059 5.059 0 0 1-1.251-1.352l-12.255-19.273a5.149 5.149 0 0 1-.786-3.266c-5.917 2.084-8.407-2.86-8.407-2.86-6.034 7.21-12.256 1.994-12.256 1.994-4.03 10.583-12.121 6.216-12.367 6.077-.994 2.26-1.213 4.81.4 7.344.22.347.434.678.631 1.005l.267-.375a2.278 2.278 0 0 1 4.121 1.331 2.23 2.23 0 0 1-.785 1.716l-1.358 1.17c.577 1.075 1 1.978 1.315 2.758.048.123.09.235.133.342.845-.486 1.577-1.17 2.277-1.854.759-.738 1.486-1.465 2.288-1.919.962.625 2.036 1.635 1.903 3.063-.145 1.528-.695 2.661-1.027 4.078a7.56 7.56 0 0 1-.876.582 3.065 3.065 0 0 0-.278.176 4.43 4.43 0 0 0-.481.353h-.005s-.006 0-.011.006h-.032c-.283.074-1.935.545-3.073 1.635-.043 1.08-.038 2.314.192 3.624a11.05 11.05 0 0 0 1.828 4.468c.732 1.058 1.812 2.496 2.993 4.03.444.588.914 1.186 1.379 1.785h.005c2.496 3.212 5.04 6.37 5.575 7.034.069.085.107.128.107.128s3.351 6.381 11.999 3.244a26.05 26.05 0 0 0 4.51-2.132c.065-.038.134-.075.198-.118 5.153-3.137 7.189-6.937 7.189-6.937s1.945-3.245 1.945-8.654c0 0 8.023 19.322-5.831 23.598l2.4 5.815 7.125-3.55 9.759 15.506-4.506-18.92 11.908-6.36v.005zm-51.469-37.74a2.271 2.271 0 0 1-.85-4.383l9.695-3.853a.71.71 0 0 1 .962.588 2.02 2.02 0 0 1-.855 1.865l-7.659 5.372c-.395.278-.85.411-1.293.411zm15.168-.112s-1.336 3.496-4.062 5.698h-.005a8.457 8.457 0 0 1-1.16.801 3.11 3.11 0 0 0-.278.177c-.171.107-.326.219-.481.352h-.005c-1 .31-2.715-.913-4.014-2.907-.251-.39-.471-.78-.652-1.16.278-.101.572-.235.871-.411.844-.487 1.571-1.176 2.271-1.855 1.481-1.438 2.838-2.843 4.896-2.282 3.036.828 2.619 1.587 2.619 1.587z" fill="#E26940" stroke="#000" stroke-linecap="round" stroke-linejoin="round"/><path d="M122.345 37.515s-1.336 3.496-4.062 5.698h-.005a8.457 8.457 0 0 1-1.16.801 3.11 3.11 0 0 0-.278.177c.599-.834.166-2.838-1.096-4.773-.288-.444-.598-.85-.914-1.208 1.481-1.438 2.838-2.843 4.896-2.282 3.036.828 2.619 1.587 2.619 1.587z" fill="#fff" stroke="#000" stroke-linecap="round" stroke-linejoin="round"/><path d="M116.129 31.844l-7.659 5.372c-.395.278-.85.411-1.293.411a2.271 2.271 0 0 1-.85-4.383l9.695-3.853a.71.71 0 0 1 .962.588 2.02 2.02 0 0 1-.855 1.865z" fill="#573801" stroke="#000" stroke-linecap="round" stroke-linejoin="round"/><path d="M69.881 158.439s2.438-7.076 6.617-15.964c3.346-7.125 7.814-15.414 13.036-22.143l-9.546-7.809a12.194 12.194 0 0 0-12.63-1.726l-50.731 22.335-.647.283a12.182 12.182 0 0 0-6.745 7.601L1.533 166.27c-1.972 6.467 1.7 13.308 8.183 15.237 1.149.342 2.32.508 3.474.508 4.2 0 8.21-2.181 10.454-5.922l.674-1.304c1.042 5.414 3.56 6.237 3.56 6.237h3.03c.181-.561.315-.887.315-.887s1.94-5.879 10.086-6.077c4.596-.112 7.926 2.122 9.946 4.089 1.32-1.727 3.976-3.966 8.958-4.089 8.145-.203 12.287 6.964 12.287 6.964h3.277l2.207-15.323c-4.693-1.374-8.103-7.264-8.103-7.264zm-39.08-6.215a1.822 1.822 0 0 1-1.823-1.823c0-1.01.818-1.817 1.823-1.817a1.82 1.82 0 1 1 0 3.64zm9.94 4.345l-2.046 4.019a.797.797 0 0 1-.524.417.789.789 0 0 1-.577-.086l-3.48-1.95a.795.795 0 0 1 .107-1.438l5.532-2.069c.679-.251 1.315.46.989 1.107zm2.743-7.985a1.82 1.82 0 1 1 1.822-1.823 1.825 1.825 0 0 1-1.822 1.823z" fill="#E0E0E0" stroke="#000" stroke-linecap="round" stroke-linejoin="round"/><path d="M78.973 158.846l-.99 6.857c-4.692-1.374-8.102-7.264-8.102-7.264s3.768-.919 9.092.407z" fill="#000" stroke="#000" stroke-linecap="round" stroke-linejoin="round"/><path d="M24.317 174.789v-.005m-4.537-27.413c3.148 7.172 3.966 12.934 4.094 22.661.027 1.887.192 3.453.444 4.757m39.722-46.467c-.08-.401 6.75 5.093 8.808 9.631 1.459 3.212 3.645 4.522 3.645 4.522" stroke="#000" stroke-linecap="round" stroke-linejoin="round"/><path d="M45.306 146.761a1.825 1.825 0 0 1-1.822 1.823 1.82 1.82 0 1 1 1.822-1.823zm-12.683 3.64a1.822 1.822 0 1 1-3.645 0c0-1.01.818-1.817 1.823-1.817a1.82 1.82 0 0 1 1.822 1.817z" fill="#000"/><path d="M40.742 156.569l-2.047 4.019a.8.8 0 0 1-.524.417.789.789 0 0 1-.577-.086l-3.48-1.95a.795.795 0 0 1 .107-1.438l5.532-2.069c.679-.251 1.315.46.989 1.107z" fill="#000" stroke="#000" stroke-linecap="round" stroke-linejoin="round"/><path d="M38.962 164.41c.032.235.47 3.254-1.994 3.367-2.57.112-2.688-2.528-2.688-2.528m4.677-.855l-.786-3.389V161m5.927 1.031s1.133 2.71-1.48 3.891c-2.507 1.133-3.57-1.304-3.656-1.512" stroke="#000" stroke-linecap="round" stroke-linejoin="round"/><path d="M72.5 181.026h-3.34c-2.833 0-3.982 10.615-10.438 13.212-1.144.465-2.464.674-3.988.524a8.962 8.962 0 0 1-1.753-.342c-6.301-1.94-4.158-10.374-3.206-13.287.203-.625.352-.994.352-.994s.294-.887 1.128-1.988c1.32-1.727 3.976-3.966 8.958-4.089 8.145-.203 12.287 6.964 12.287 6.964z" fill="#E0E0E0" stroke="#000" stroke-linecap="round" stroke-linejoin="round"/><path d="M58.722 194.244s-.914-4.223.887-7.29m-6.628 7.466s-1.651-5.264 1.021-8.402m-2.742-7.862l-.005-.005" stroke="#000" stroke-linecap="round" stroke-linejoin="round"/><path d="M51.255 178.151c-.834 1.101-1.128 1.988-1.128 1.988s-.15.369-.353.994c-2.506 1.112-3.88 10.663-9.957 13.105-1.144.465-2.464.674-3.987.524a9.036 9.036 0 0 1-1.753-.342h-.005c-6.377-1.972-4.094-10.593-3.164-13.394.181-.561.315-.887.315-.887s1.94-5.879 10.085-6.077c4.597-.112 7.927 2.122 9.947 4.089z" fill="#E0E0E0" stroke="#000" stroke-linecap="round" stroke-linejoin="round"/><path d="M39.817 194.244s-.914-4.223.888-7.29m-6.628 7.466s-1.651-5.264 1.02-8.402" stroke="#000" stroke-linecap="round" stroke-linejoin="round"/><path d="M252.756 133.122l-2.357-2.042c1.78-1.914 3.031-1.855 3.031-1.855s1.208 2.106-.674 3.897z" fill="#000" stroke="#000" stroke-linecap="round" stroke-linejoin="round"/><path d="M262.665 141.711v28.065c0 5.157-3.474 9.508-8.209 10.833l-23.736-24.035s8.001-10.342 13.618-17.643c2.432-3.169 4.415-5.756 5.105-6.691.331-.449.652-.834.956-1.16l2.357 2.042 9.909 8.589z" fill="#E26940" stroke="#000" stroke-linecap="round" stroke-linejoin="round"/><path d="M250.399 131.08h-.005M107.177 416.055l-1.384 4.607s-.781 2.726-2.619 2.069c-2.053-.733-.3-3.95-.3-3.95m9.899-.668c-.214-.775-1.123-1.278-1.892-1.048-.77.23-1.251 1.155-1 1.914.267.812 1.139 1.245 1.673 1.913.658.829.732 2.068.187 2.966-.545.898-1.683 1.401-2.72 1.198-1.037-.204-1.898-1.096-2.069-2.138" stroke="#000" stroke-linecap="round" stroke-linejoin="round"/><path d="M63.585 366.023H52.623l-5.483 9.498 5.483 9.497h10.962l5.484-9.497-5.484-9.498z" fill="#004AA5" stroke="#000" stroke-linecap="round" stroke-linejoin="round"/><path d="M58.294 371.64s-5.521.471-3.533 5.292 5.97 4.035 7.125 0m120.603 56.536h-19.583l-2.677-5.28h19.396l2.864 5.28zm-27.311-214.601c-.936 3.298-2.544 5.393-2.544 5.393s-3.362 4.142-.775 6.67c2.212 2.165 3.933 2.79 3.933 2.79" stroke="#000" stroke-linecap="round" stroke-linejoin="round"/><path d="M171.404 244.27c-7.6 4.42-11.496-.865-11.496-.865.011-.091.165-1.053 1.646-2.16 1.55-1.165 3.1-.31 5.195-1.315 2.095-1.01 2.635-2.95 3.8-4.778 1.149-1.801 5.537-2.875 5.671-2.907h.005s2.78 7.605-4.821 12.025z" fill="#EF5752" stroke="#000" stroke-linecap="round" stroke-linejoin="round"/><path d="M177.139 228.295s-.037 1.63-.914 3.95m-14.671-.385l1.785-1.705m8.659-10.78c.641-1.914 1.705-2.635 3.276-3.282m2.929-1.128s-1.614 1.668-1.058 4.415m4.361-6.205s-1.107 2.587-.171 3.992m-10.898-9.952s1.523-1.507 2.977-3.116c1.555-1.721 5.612-2.18 7.819-2.148" stroke="#000" stroke-linecap="round" stroke-linejoin="round"/><path d="M175.322 216.072l-.032.016c-.005 0-.011.005-.016.005-2.159.796-5.115-.903-6.205-3.784-.647-1.716-.604-3.474-.006-4.789.439-.069.898-.171 1.385-.315.256-.07.518-.15.791-.246a44.105 44.105 0 0 1 2.993-.935c1.111.668 2.09 1.838 2.656 3.329 1.085 2.87.567 5.885-1.566 6.719z" fill="#000" stroke="#000" stroke-linecap="round" stroke-linejoin="round"/><path d="M155.734 216.056c-.113 1.01-.31 1.95-.556 2.811 0 0-1.342 1.325-4.046 1.507a3.73 3.73 0 0 1-.342.016s-.155-.016-.39.005h-.059c-1.673-.053-1.801-.705-3.49-.571.037-.428.053-.877.053-1.331 1.288 1.486 3.068 2.17 4.607 1.593 2.16-.818 3.025-3.817 1.935-6.703a7.252 7.252 0 0 0-1.427-2.33c1.721.096 2.913.406 2.913.406.593 1.171 1.015 2.705.802 4.597z" fill="#fff" stroke="#000" stroke-linecap="round" stroke-linejoin="round"/><path d="M150.79 220.39c-.139.006-.268.006-.39.006.235-.022.39-.006.39-.006z" stroke="#000" stroke-linecap="round" stroke-linejoin="round"/><path d="M151.014 243.223c-.219.005-.438.011-.663.011a23.224 23.224 0 0 1-2.367-.102 24.18 24.18 0 0 1-5.976-1.32c-9.77-3.437-16.771-12.747-16.771-23.693 0-10.946 6.894-20.118 16.547-23.619.08 1.08.219 2.202.427 3.351a36.536 36.536 0 0 0 1.091 4.426l.069.224 2.721 9.012s.053.24.128.652c.23 1.213.679 3.907.684 6.328a15.567 15.567 0 0 1-.101 1.822c-.444 3.448-1.027 7.109.657 12.534.657 2.111 2.074 6.189 3.554 10.374z" fill="#CBD6EC" stroke="#000" stroke-linecap="round" stroke-linejoin="round"/><path d="M206.909 182.715c-.224.139-.449.283-.668.433h-.01a25.49 25.49 0 0 0-1.513 1.101c-.47.369-.925.754-1.363 1.155-.011.01-.016.021-.027.026-.176.155-.347.321-.518.487a2.846 2.846 0 0 0-.139.133c-.134.123-.257.252-.38.38-.01.01-.021.027-.032.037-.165.166-.32.332-.475.497-.016.016-.032.038-.048.054l-.011.01c-.075.081-.144.155-.214.236-.075.08-.139.16-.208.24-.241.273-.476.556-.7.839-.006.006-.011.016-.017.022-.122.149-.24.304-.358.459a.283.283 0 0 0-.037.043.13.13 0 0 1-.027.037c-.032.043-.064.086-.096.134-.139.182-.278.369-.406.561-.005.006-.005.011-.011.016-.043.059-.08.118-.117.177-.15.213-.294.433-.433.652-.006.005-.011.005-.011.01-15.521-2.196-14.003-17.6-13.854-18.834-.171.994-1.309 6.579-5.628 9.401-1.747 1.144-4.013 1.839-6.953 1.587-2.389-.203-4.164-.791-5.478-1.587-4.287-2.587-3.645-7.386-3.506-8.183-.15.69-1 4.404-2.801 8.183-3.031 6.382-8.979 12.774-18.594 5.265a29.149 29.149 0 0 1 1.566-5.265c2.479-6.146 6.205-9.535 6.205-9.535s11.528-8.947 25.024-15.355c0 0 25.879 3.581 31.838 26.579v.005z" fill="#EF5752" stroke="#000" stroke-linecap="round" stroke-linejoin="round"/><path d="M230.389 181.026c-.043-.016-.086-.037-.134-.058-.144-.065-.289-.123-.438-.188a29.978 29.978 0 0 0-1.529-.571 24.22 24.22 0 0 0-1.78-.53c-.181-.048-.363-.09-.545-.133-.032 0-.064-.016-.096-.027l-.444-.096-.481-.096a40.212 40.212 0 0 0-.368-.064c-.171-.033-.342-.059-.519-.086a26.119 26.119 0 0 0-1.154-.15 33.046 33.046 0 0 0-1.465-.112 30.126 30.126 0 0 0-1.202-.027h-.006c-.267 0-.534.006-.801.016-.182 0-.358.011-.54.022-.273.011-.545.032-.813.059-.176.01-.347.026-.518.048-.289.026-.577.064-.86.107-.15.016-.3.037-.444.064-.219.032-.433.069-.647.112-.214.037-.427.08-.641.128-.209.043-.422.091-.631.145-.139.032-.283.064-.422.101-.16.043-.326.086-.486.134a25.205 25.205 0 0 0-3.346 1.202c-.289.129-.577.262-.861.401-.144.07-.283.139-.422.214l-.032.016c-.011.005-.027.011-.037.021-.107.048-.204.102-.31.161-.273.144-.54.294-.802.449-.022.01-.043.026-.064.037-.219.128-.433.257-.642.39-.224.139-.449.283-.668.433h-.01a25.49 25.49 0 0 0-1.513 1.101c-.47.369-.925.754-1.363 1.155-.011.01-.016.021-.027.026-.176.155-.347.321-.518.487a12.344 12.344 0 0 0-.518.513c-.011.01-.022.027-.033.037-.165.166-.32.332-.475.497-.016.016-.032.038-.048.054l-.011.01c-.075.081-.144.155-.214.236-.075.08-.139.16-.208.24-.241.273-.476.556-.7.839-.006.006-.011.016-.016.022-.123.149-.241.304-.359.459a.283.283 0 0 0-.037.043.13.13 0 0 1-.027.037c-.032.043-.064.086-.096.134-.139.182-.278.369-.406.561-.005.006-.005.011-.011.016-.043.059-.08.118-.117.177-.15.213-.294.433-.433.652-.006.005-.011.005-.011.01l-.016.022-.369.593-.192.326c-.011.021-.027.043-.038.064a.17.17 0 0 0-.021.043c-.075.123-.139.246-.208.369a1.857 1.857 0 0 0-.091.16l-.016.032c-.118.219-.236.438-.348.663-.053.107-.107.214-.16.326a13.534 13.534 0 0 0-.16.326l-.289.641-.032.08c-.07.155-.134.31-.193.465-.037.086-.074.171-.106.257l-.097.257c-.091.224-.171.454-.251.684-.096.272-.187.55-.272.828l-.016.048c-.086.289-.172.577-.246.871-.064.23-.123.46-.177.69-.085.369-.165.737-.235 1.106-.053.294-.107.583-.149.882-.049.321-.091.641-.129.967-.016.145-.032.289-.043.439v.01a35.845 35.845 0 0 0-.101 1.438c-.011.316-.016.636-.016.957 0 10.598 6.569 19.663 15.847 23.351a25.083 25.083 0 0 0 5.703 1.513c1.01.144 2.036.224 3.084.24.16.011.32.011.481.011a25.4 25.4 0 0 0 3.201-.203 24.866 24.866 0 0 0 5.708-1.427c9.471-3.592 16.2-12.753 16.2-23.485s-6.146-19.075-14.954-22.977v.005zm-10.155 35.03c-6.654 0-12.053-5.399-12.053-12.053 0-6.654 5.399-12.052 12.053-12.052 6.654 0 12.047 5.398 12.047 12.052s-5.393 12.053-12.047 12.053z" fill="#CBD6EC" stroke="#000" stroke-linecap="round" stroke-linejoin="round"/><path d="M232.281 204.003c0 6.654-5.393 12.053-12.047 12.053-6.654 0-12.053-5.399-12.053-12.053 0-6.654 5.399-12.052 12.053-12.052 6.654 0 12.047 5.398 12.047 12.052z" fill="#9F9FF9" stroke="#000" stroke-linecap="round" stroke-linejoin="round"/><path d="M219.993 248.322h-.016c-5.526 0-10.01-4.479-10.01-10.006 0-4.372 2.8-8.086 6.702-9.449 1.01.144 2.036.224 3.084.24-1.059 6.441-.364 14.442.24 19.215z" fill="#BC5326" stroke="#000" stroke-linecap="round" stroke-linejoin="round"/><path d="M229.988 238.316c0 5.489-4.42 9.942-9.893 10.006h-.102c-.604-4.773-1.299-12.774-.24-19.215.16.011.32.011.481.011 1.085 0 2.154-.069 3.201-.203 3.822 1.411 6.553 5.088 6.553 9.401z" stroke="#000" stroke-linecap="round" stroke-linejoin="round"/><path d="M198.675 291.522a2.4 2.4 0 1 0-1.837-4.434 2.4 2.4 0 0 0 1.837 4.434z" fill="#77A0B6" stroke="#000" stroke-linecap="round" stroke-linejoin="round"/><path d="M204.381 291.705a2.4 2.4 0 0 1-2.4 2.4 2.405 2.405 0 0 1-2.405-2.4c0-1.326 1.08-2.4 2.405-2.4a2.4 2.4 0 0 1 2.4 2.4z" fill="#CBD6EC" stroke="#000" stroke-linecap="round" stroke-linejoin="round"/><path d="M207.7 295.366a2.4 2.4 0 1 0-1.835-4.434 2.4 2.4 0 0 0 1.835 4.434z" fill="#F6D54A" stroke="#000" stroke-linecap="round" stroke-linejoin="round"/><path d="M212.498 295.368a2.4 2.4 0 1 0-1.837-4.435 2.4 2.4 0 0 0 1.837 4.435z" fill="#EF5752" stroke="#000" stroke-linecap="round" stroke-linejoin="round"/><path d="M218.78 292.143a2.4 2.4 0 1 1-4.8 0 2.405 2.405 0 0 1 2.4-2.405c1.326 0 2.4 1.08 2.4 2.405z" fill="#FB2CFA" stroke="#000" stroke-linecap="round" stroke-linejoin="round"/><path d="M220.934 292.661a2.4 2.4 0 1 0 0-4.8 2.4 2.4 0 0 0 0 4.8z" fill="#CBD6EC" stroke="#000" stroke-linecap="round" stroke-linejoin="round"/><path d="M227.513 287.707a2.4 2.4 0 0 1-2.4 2.4 2.405 2.405 0 0 1-2.405-2.4c0-1.326 1.075-2.4 2.405-2.4 1.331 0 2.4 1.074 2.4 2.4z" fill="#004AA5" stroke="#000" stroke-linecap="round" stroke-linejoin="round"/><path d="M231.265 284.982a2.4 2.4 0 1 0-4.74-.769 2.4 2.4 0 0 0 4.74.769z" fill="#77A0B6" stroke="#000" stroke-linecap="round" stroke-linejoin="round"/><path d="M234.91 281.288a2.392 2.392 0 0 1-2.394 2.4 2.4 2.4 0 1 1 2.4-2.4h-.006z" fill="#CBD6EC" stroke="#000" stroke-linecap="round" stroke-linejoin="round"/><path d="M163.339 206.622s2.031 1.513 5.724.898m-22.822 4.639s.652-2.057 1.561-2.822c.914-.769 3.207-1.202 3.207-1.202m-11.935 4.024c2.758 2.005 5.013.984 7.146 0m-2.33 9.038s.684-1.031 2.335-1.293c.23-.038.439-.064.626-.08m29.369 12.421c-.93 2.485-2.833 5.767-6.681 8.69-3.853 2.929-7.253 3.041-9.631 2.464-2.218-.529-3.549-1.657-3.549-1.657m81.368 182.603c1.86-3.806 3.49-8.461 6.488-11.935 4.324-5.013 6.093-7.67 6.093-7.67s1.967 2.165 1.577 4.132c-.395 1.967-.887 4.521.492 6.194m100.684-169.518l1.245-.412m2.074-11.138c-.887.63-1.764 1.47-2.074 2.485m-.994-9.006c-1.363-.545-1.983-1.101-1.983-1.101m7.338 6.366s-1.069 1.838-.267 4.067m-3.752-8.877s1.053-2.251 4.762-2.106M104.627 50.048c-.246 1.064-.374 2.283-.112 3.945 0 0-.101 3.987 3.56 3.533m3.613-1.962l.491-1.667m-8.428-10.989c-.791-.519-1.529-.791-1.529-.845m5.853 21.3s13.094 2.442 14.805-14.864m-10.701-8.237s.588-.978.829-2.394c.385-2.272 2.042-3.506 3.308-3.736M99.053 46.339c.176-.422.417-1.074.588-1.849.278-1.277.657-1.962 1.389-2.068m13.667 4.949a4.006 4.006 0 0 1 .502-1.465 4.877 4.877 0 0 1 1.155-1.362m1.929 1.427c-.518-1.62-.043-2.667 0-2.753m-10.208-3.153s1.459 1.186 3.613.411m-10.364 13.517c.064-.54.268-1.037.508-1.47.294-.518.69-.973 1.144-1.357" stroke="#000" stroke-linecap="round" stroke-linejoin="round"/><path d="M70.346 437.915s-21.427-7.632-27.605-15.665l6.756 15.665h20.85zM496 304.751s-1.47 44.586-53.682 45.917h42.185S496 350.523 496 335.922v-31.171z" fill="#000" stroke="#000" stroke-linecap="round" stroke-linejoin="round"/></svg>